G04*
G04 #@! TF.GenerationSoftware,Altium Limited,Altium Designer,20.0.10 (225)*
G04*
G04 Layer_Color=8388736*
%FSLAX24Y24*%
%MOIN*%
G70*
G01*
G75*
%ADD11C,0.0100*%
G04:AMPARAMS|DCode=17|XSize=68mil|YSize=58mil|CornerRadius=0mil|HoleSize=0mil|Usage=FLASHONLY|Rotation=0.000|XOffset=0mil|YOffset=0mil|HoleType=Round|Shape=Octagon|*
%AMOCTAGOND17*
4,1,8,0.0340,-0.0145,0.0340,0.0145,0.0195,0.0290,-0.0195,0.0290,-0.0340,0.0145,-0.0340,-0.0145,-0.0195,-0.0290,0.0195,-0.0290,0.0340,-0.0145,0.0*
%
%ADD17OCTAGOND17*%

%ADD18R,0.0680X0.0580*%
%ADD19R,0.0580X0.0580*%
%ADD20C,0.1458*%
%ADD21O,0.1064X0.0789*%
%ADD22R,0.1064X0.0789*%
%ADD23C,0.0789*%
%ADD24R,0.0828X0.0828*%
%ADD25C,0.0828*%
%ADD26C,0.0580*%
D11*
X19050Y10525D02*
Y21800D01*
X19700Y22450D02*
X38808Y22450D01*
X19725Y9850D02*
X38825Y9850D01*
X39500Y10525D02*
Y21750D01*
X38808Y22450D02*
X38825Y22433D01*
Y22425D02*
X39500Y21750D01*
X38825Y9875D02*
X39475Y10525D01*
X19075D02*
X19725Y9875D01*
X19050Y21800D02*
X19700Y22450D01*
X19900D01*
X19700D02*
X19750D01*
D17*
X27700Y17550D02*
D03*
X31450D02*
D03*
D18*
X26700D02*
D03*
X30450D02*
D03*
D19*
X29600D02*
D03*
X28700D02*
D03*
X33350D02*
D03*
X32450D02*
D03*
D20*
X20400Y21200D02*
D03*
Y10950D02*
D03*
X38400D02*
D03*
Y21200D02*
D03*
D21*
X24000Y12731D02*
D03*
Y11747D02*
D03*
Y13716D02*
D03*
Y14700D02*
D03*
Y15684D02*
D03*
D22*
Y16668D02*
D03*
D23*
X27928Y16450D02*
D03*
X28928D02*
D03*
X29928D02*
D03*
X30928D02*
D03*
X27928Y11450D02*
D03*
X28928D02*
D03*
X29928D02*
D03*
X30928D02*
D03*
D24*
X22811Y20330D02*
D03*
X34161D02*
D03*
D25*
X22811Y18558D02*
D03*
X25489D02*
D03*
Y20330D02*
D03*
X34161Y18558D02*
D03*
X36839D02*
D03*
Y20330D02*
D03*
D26*
X27279Y15329D02*
D03*
X31400Y13900D02*
D03*
X31800Y16900D02*
D03*
M02*
