G04*
G04 #@! TF.GenerationSoftware,Altium Limited,Altium Designer,20.0.10 (225)*
G04*
G04 Layer_Color=255*
%FSLAX24Y24*%
%MOIN*%
G70*
G01*
G75*
%ADD11C,0.0100*%
%ADD28C,0.1378*%
%ADD29O,0.0984X0.0709*%
%ADD30R,0.0984X0.0709*%
%ADD31C,0.0709*%
%ADD32R,0.0748X0.0748*%
%ADD33C,0.0748*%
D11*
X19050Y10525D02*
Y21800D01*
X19700Y22450D02*
X38808Y22450D01*
X19725Y9850D02*
X38825Y9850D01*
X39500Y10525D02*
Y21750D01*
X38808Y22450D02*
X38825Y22433D01*
Y22425D02*
X39500Y21750D01*
X38825Y9875D02*
X39475Y10525D01*
X19075D02*
X19725Y9875D01*
X19050Y21800D02*
X19700Y22450D01*
X19900D01*
X19700D02*
X19750D01*
D28*
X20400Y21200D02*
D03*
Y10950D02*
D03*
X38400D02*
D03*
Y21200D02*
D03*
D29*
X24000Y12731D02*
D03*
Y11747D02*
D03*
Y13716D02*
D03*
Y14700D02*
D03*
Y15684D02*
D03*
D30*
Y16668D02*
D03*
D31*
X27928Y16450D02*
D03*
X28928D02*
D03*
X29928D02*
D03*
X30928D02*
D03*
X27928Y11450D02*
D03*
X28928D02*
D03*
X29928D02*
D03*
X30928D02*
D03*
D32*
X22811Y20330D02*
D03*
X34161D02*
D03*
D33*
X22811Y18558D02*
D03*
X25489D02*
D03*
Y20330D02*
D03*
X34161Y18558D02*
D03*
X36839D02*
D03*
Y20330D02*
D03*
M02*
