G04*
G04 #@! TF.GenerationSoftware,Altium Limited,Altium Designer,20.0.10 (225)*
G04*
G04 Layer_Color=65535*
%FSLAX24Y24*%
%MOIN*%
G70*
G01*
G75*
%ADD10C,0.0098*%
%ADD11C,0.0100*%
%ADD12C,0.0079*%
%ADD13C,0.0080*%
G36*
X31078Y13200D02*
X30745D01*
Y13014D01*
X30700D01*
Y13250D01*
X31078D01*
Y13200D01*
D02*
G37*
G36*
Y12680D02*
X31033D01*
Y12903D01*
X30918D01*
Y12694D01*
X30873D01*
Y12903D01*
X30745D01*
Y12671D01*
X30700D01*
Y12954D01*
X31078D01*
Y12680D01*
D02*
G37*
G36*
Y12457D02*
X31077Y12447D01*
X31077Y12436D01*
X31076Y12425D01*
X31074Y12414D01*
X31072Y12405D01*
Y12404D01*
X31072Y12403D01*
Y12402D01*
X31071Y12399D01*
X31069Y12393D01*
X31066Y12386D01*
X31063Y12377D01*
X31058Y12368D01*
X31052Y12358D01*
X31045Y12350D01*
X31045Y12349D01*
X31044Y12349D01*
X31042Y12347D01*
X31041Y12345D01*
X31035Y12339D01*
X31028Y12333D01*
X31018Y12326D01*
X31007Y12318D01*
X30995Y12311D01*
X30981Y12305D01*
X30980D01*
X30979Y12304D01*
X30977Y12303D01*
X30974Y12303D01*
X30970Y12301D01*
X30965Y12300D01*
X30960Y12299D01*
X30954Y12297D01*
X30948Y12296D01*
X30941Y12294D01*
X30926Y12292D01*
X30909Y12290D01*
X30891Y12290D01*
X30890D01*
X30889D01*
X30886D01*
X30883D01*
X30880Y12290D01*
X30875D01*
X30865Y12291D01*
X30853Y12292D01*
X30840Y12294D01*
X30827Y12297D01*
X30814Y12300D01*
X30814D01*
X30812Y12301D01*
X30811Y12301D01*
X30809Y12302D01*
X30803Y12304D01*
X30795Y12307D01*
X30786Y12310D01*
X30778Y12315D01*
X30768Y12320D01*
X30760Y12326D01*
X30758Y12326D01*
X30756Y12328D01*
X30752Y12332D01*
X30747Y12336D01*
X30742Y12341D01*
X30736Y12347D01*
X30730Y12353D01*
X30725Y12360D01*
X30725Y12361D01*
X30723Y12363D01*
X30721Y12367D01*
X30718Y12373D01*
X30715Y12379D01*
X30712Y12387D01*
X30709Y12396D01*
X30706Y12405D01*
Y12406D01*
X30705Y12408D01*
X30705Y12410D01*
X30704Y12415D01*
X30703Y12423D01*
X30702Y12432D01*
X30701Y12442D01*
X30701Y12453D01*
X30700Y12466D01*
Y12602D01*
X31078D01*
Y12457D01*
D02*
G37*
G36*
Y12083D02*
Y12045D01*
X30833D01*
Y11994D01*
X30791D01*
Y12045D01*
X30700D01*
Y12091D01*
X30791D01*
Y12256D01*
X30833D01*
X31078Y12083D01*
D02*
G37*
G36*
X30078Y13200D02*
X29745D01*
Y13014D01*
X29700D01*
Y13250D01*
X30078D01*
Y13200D01*
D02*
G37*
G36*
Y12680D02*
X30033D01*
Y12903D01*
X29918D01*
Y12694D01*
X29873D01*
Y12903D01*
X29745D01*
Y12671D01*
X29700D01*
Y12954D01*
X30078D01*
Y12680D01*
D02*
G37*
G36*
Y12457D02*
X30077Y12447D01*
X30077Y12436D01*
X30076Y12425D01*
X30074Y12414D01*
X30072Y12405D01*
Y12404D01*
X30072Y12403D01*
Y12402D01*
X30071Y12399D01*
X30069Y12393D01*
X30066Y12386D01*
X30063Y12377D01*
X30058Y12368D01*
X30052Y12358D01*
X30045Y12350D01*
X30045Y12349D01*
X30044Y12349D01*
X30042Y12347D01*
X30041Y12345D01*
X30035Y12339D01*
X30028Y12333D01*
X30018Y12326D01*
X30007Y12318D01*
X29995Y12311D01*
X29981Y12305D01*
X29980D01*
X29979Y12304D01*
X29977Y12303D01*
X29974Y12303D01*
X29970Y12301D01*
X29965Y12300D01*
X29960Y12299D01*
X29954Y12297D01*
X29948Y12296D01*
X29941Y12294D01*
X29926Y12292D01*
X29909Y12290D01*
X29891Y12290D01*
X29890D01*
X29889D01*
X29886D01*
X29883D01*
X29880Y12290D01*
X29875D01*
X29865Y12291D01*
X29853Y12292D01*
X29840Y12294D01*
X29827Y12297D01*
X29814Y12300D01*
X29814D01*
X29812Y12301D01*
X29811Y12301D01*
X29809Y12302D01*
X29803Y12304D01*
X29795Y12307D01*
X29786Y12310D01*
X29778Y12315D01*
X29768Y12320D01*
X29760Y12326D01*
X29758Y12326D01*
X29756Y12328D01*
X29752Y12332D01*
X29747Y12336D01*
X29741Y12341D01*
X29736Y12347D01*
X29730Y12353D01*
X29725Y12360D01*
X29725Y12361D01*
X29723Y12363D01*
X29721Y12367D01*
X29718Y12373D01*
X29715Y12379D01*
X29712Y12387D01*
X29709Y12396D01*
X29706Y12405D01*
Y12406D01*
X29705Y12408D01*
X29705Y12410D01*
X29704Y12415D01*
X29703Y12423D01*
X29702Y12432D01*
X29701Y12442D01*
X29701Y12453D01*
X29700Y12466D01*
Y12602D01*
X30078D01*
Y12457D01*
D02*
G37*
G36*
X29806Y12193D02*
X29805D01*
X29804Y12192D01*
X29802Y12192D01*
X29799Y12191D01*
X29796Y12191D01*
X29792Y12190D01*
X29784Y12187D01*
X29774Y12183D01*
X29765Y12178D01*
X29756Y12173D01*
X29749Y12166D01*
X29748Y12165D01*
X29746Y12163D01*
X29743Y12159D01*
X29740Y12153D01*
X29737Y12147D01*
X29734Y12138D01*
X29732Y12129D01*
X29732Y12119D01*
Y12116D01*
X29732Y12114D01*
X29733Y12108D01*
X29734Y12100D01*
X29737Y12091D01*
X29741Y12082D01*
X29746Y12073D01*
X29754Y12064D01*
X29755Y12063D01*
X29758Y12060D01*
X29763Y12057D01*
X29770Y12053D01*
X29778Y12048D01*
X29787Y12045D01*
X29798Y12042D01*
X29810Y12041D01*
X29811D01*
X29812D01*
X29814D01*
X29816Y12042D01*
X29822Y12042D01*
X29829Y12044D01*
X29838Y12046D01*
X29846Y12050D01*
X29855Y12055D01*
X29863Y12062D01*
X29864Y12064D01*
X29867Y12066D01*
X29870Y12071D01*
X29874Y12077D01*
X29877Y12084D01*
X29881Y12094D01*
X29883Y12104D01*
X29884Y12115D01*
Y12120D01*
X29883Y12124D01*
X29883Y12129D01*
X29882Y12135D01*
X29881Y12141D01*
X29879Y12148D01*
X29920Y12143D01*
Y12140D01*
X29919Y12138D01*
Y12131D01*
X29921Y12125D01*
X29922Y12118D01*
X29923Y12109D01*
X29926Y12100D01*
X29930Y12091D01*
X29935Y12082D01*
Y12082D01*
X29935Y12081D01*
X29938Y12078D01*
X29941Y12074D01*
X29946Y12070D01*
X29953Y12066D01*
X29962Y12062D01*
X29971Y12059D01*
X29976Y12058D01*
X29982D01*
X29983D01*
X29983D01*
X29987D01*
X29991Y12059D01*
X29997Y12060D01*
X30004Y12062D01*
X30011Y12065D01*
X30018Y12070D01*
X30024Y12076D01*
X30025Y12076D01*
X30027Y12079D01*
X30030Y12083D01*
X30033Y12088D01*
X30036Y12094D01*
X30039Y12102D01*
X30041Y12111D01*
X30041Y12120D01*
Y12125D01*
X30040Y12130D01*
X30039Y12136D01*
X30037Y12143D01*
X30034Y12150D01*
X30030Y12158D01*
X30024Y12165D01*
X30024Y12166D01*
X30021Y12168D01*
X30017Y12171D01*
X30012Y12175D01*
X30005Y12179D01*
X29996Y12183D01*
X29986Y12186D01*
X29974Y12188D01*
X29982Y12234D01*
X29982D01*
X29984Y12234D01*
X29986Y12233D01*
X29989Y12233D01*
X29993Y12232D01*
X29998Y12230D01*
X30008Y12227D01*
X30020Y12221D01*
X30032Y12215D01*
X30043Y12207D01*
X30054Y12196D01*
X30054Y12196D01*
X30055Y12195D01*
X30056Y12193D01*
X30058Y12191D01*
X30060Y12188D01*
X30062Y12184D01*
X30064Y12180D01*
X30067Y12175D01*
X30071Y12165D01*
X30076Y12152D01*
X30078Y12137D01*
X30079Y12130D01*
Y12116D01*
X30079Y12110D01*
X30078Y12103D01*
X30076Y12094D01*
X30073Y12084D01*
X30070Y12074D01*
X30066Y12065D01*
Y12064D01*
X30065Y12064D01*
X30064Y12060D01*
X30060Y12055D01*
X30057Y12050D01*
X30051Y12043D01*
X30045Y12037D01*
X30038Y12030D01*
X30030Y12025D01*
X30029Y12024D01*
X30026Y12023D01*
X30021Y12020D01*
X30015Y12018D01*
X30008Y12015D01*
X30000Y12013D01*
X29990Y12011D01*
X29981Y12011D01*
X29980D01*
X29977D01*
X29972Y12011D01*
X29966Y12012D01*
X29959Y12014D01*
X29952Y12017D01*
X29944Y12020D01*
X29936Y12024D01*
X29935Y12025D01*
X29933Y12026D01*
X29929Y12030D01*
X29925Y12034D01*
X29920Y12040D01*
X29915Y12046D01*
X29910Y12054D01*
X29905Y12063D01*
Y12062D01*
X29904Y12061D01*
X29904Y12060D01*
X29903Y12058D01*
X29901Y12052D01*
X29898Y12044D01*
X29893Y12035D01*
X29888Y12026D01*
X29881Y12018D01*
X29873Y12011D01*
X29871Y12010D01*
X29868Y12008D01*
X29863Y12005D01*
X29856Y12001D01*
X29847Y11998D01*
X29836Y11995D01*
X29824Y11993D01*
X29811Y11992D01*
X29811D01*
X29809D01*
X29806D01*
X29803Y11993D01*
X29799Y11993D01*
X29794Y11994D01*
X29788Y11995D01*
X29782Y11996D01*
X29769Y12001D01*
X29762Y12004D01*
X29756Y12007D01*
X29749Y12012D01*
X29741Y12017D01*
X29734Y12022D01*
X29728Y12029D01*
X29727Y12029D01*
X29726Y12030D01*
X29725Y12032D01*
X29722Y12035D01*
X29720Y12038D01*
X29717Y12043D01*
X29714Y12048D01*
X29711Y12054D01*
X29708Y12060D01*
X29704Y12067D01*
X29702Y12074D01*
X29699Y12082D01*
X29697Y12091D01*
X29695Y12100D01*
X29694Y12109D01*
X29693Y12120D01*
Y12125D01*
X29694Y12128D01*
X29695Y12132D01*
X29695Y12137D01*
X29696Y12143D01*
X29697Y12149D01*
X29701Y12162D01*
X29706Y12175D01*
X29709Y12183D01*
X29713Y12189D01*
X29718Y12196D01*
X29723Y12202D01*
X29723Y12203D01*
X29725Y12204D01*
X29726Y12205D01*
X29728Y12207D01*
X29731Y12210D01*
X29735Y12213D01*
X29739Y12216D01*
X29744Y12219D01*
X29749Y12222D01*
X29755Y12226D01*
X29768Y12232D01*
X29783Y12237D01*
X29791Y12238D01*
X29800Y12239D01*
X29806Y12193D01*
D02*
G37*
G36*
X29028Y12475D02*
X29027Y12470D01*
Y12465D01*
X29027Y12454D01*
X29025Y12442D01*
X29023Y12429D01*
X29021Y12417D01*
X29019Y12411D01*
X29017Y12406D01*
Y12405D01*
X29017Y12405D01*
X29015Y12402D01*
X29013Y12397D01*
X29009Y12391D01*
X29004Y12384D01*
X28998Y12377D01*
X28990Y12370D01*
X28981Y12364D01*
X28981D01*
X28980Y12363D01*
X28977Y12361D01*
X28972Y12359D01*
X28965Y12356D01*
X28956Y12353D01*
X28946Y12350D01*
X28936Y12349D01*
X28925Y12348D01*
X28924D01*
X28923D01*
X28921D01*
X28918Y12349D01*
X28914D01*
X28910Y12349D01*
X28901Y12351D01*
X28890Y12355D01*
X28879Y12359D01*
X28867Y12366D01*
X28862Y12370D01*
X28856Y12374D01*
X28856Y12375D01*
X28855Y12375D01*
X28854Y12377D01*
X28852Y12379D01*
X28850Y12382D01*
X28848Y12385D01*
X28845Y12390D01*
X28842Y12394D01*
X28839Y12399D01*
X28836Y12405D01*
X28833Y12412D01*
X28830Y12419D01*
X28828Y12427D01*
X28825Y12435D01*
X28824Y12445D01*
X28822Y12455D01*
X28821Y12453D01*
X28820Y12451D01*
X28818Y12448D01*
X28816Y12444D01*
X28810Y12434D01*
X28806Y12429D01*
X28803Y12424D01*
X28802Y12423D01*
X28799Y12421D01*
X28795Y12416D01*
X28789Y12411D01*
X28782Y12405D01*
X28773Y12398D01*
X28764Y12391D01*
X28753Y12383D01*
X28650Y12318D01*
Y12380D01*
X28729Y12430D01*
X28729D01*
X28730Y12431D01*
X28732Y12432D01*
X28734Y12434D01*
X28740Y12438D01*
X28748Y12443D01*
X28756Y12449D01*
X28765Y12455D01*
X28773Y12461D01*
X28780Y12466D01*
X28781Y12467D01*
X28783Y12468D01*
X28786Y12471D01*
X28790Y12475D01*
X28799Y12483D01*
X28802Y12487D01*
X28806Y12492D01*
X28806Y12492D01*
X28807Y12493D01*
X28808Y12495D01*
X28809Y12499D01*
X28811Y12502D01*
X28813Y12506D01*
X28815Y12515D01*
Y12515D01*
X28816Y12516D01*
Y12518D01*
X28817Y12521D01*
X28817Y12525D01*
Y12529D01*
X28818Y12535D01*
Y12600D01*
X28650D01*
Y12650D01*
X29028D01*
Y12475D01*
D02*
G37*
G36*
X28845Y12162D02*
X29028Y12291D01*
Y12232D01*
X28931Y12163D01*
X28930D01*
X28930Y12162D01*
X28928Y12161D01*
X28926Y12159D01*
X28920Y12156D01*
X28914Y12151D01*
X28906Y12146D01*
X28898Y12141D01*
X28891Y12137D01*
X28885Y12133D01*
X28886Y12132D01*
X28888Y12131D01*
X28892Y12128D01*
X28898Y12124D01*
X28904Y12120D01*
X28912Y12114D01*
X28919Y12109D01*
X28927Y12102D01*
X29028Y12027D01*
Y11972D01*
X28848Y12103D01*
X28650Y11962D01*
Y12024D01*
X28784Y12119D01*
X28785Y12120D01*
X28786Y12121D01*
X28789Y12122D01*
X28791Y12124D01*
X28799Y12129D01*
X28807Y12135D01*
X28807Y12135D01*
X28805Y12137D01*
X28801Y12139D01*
X28797Y12142D01*
X28788Y12148D01*
X28784Y12150D01*
X28781Y12153D01*
X28650Y12248D01*
Y12308D01*
X28845Y12162D01*
D02*
G37*
G36*
X28128Y12401D02*
X28083D01*
Y12525D01*
X27750D01*
Y12576D01*
X28083D01*
Y12700D01*
X28128D01*
Y12401D01*
D02*
G37*
G36*
X27945Y12242D02*
X28128Y12371D01*
Y12311D01*
X28031Y12242D01*
X28030D01*
X28030Y12241D01*
X28028Y12240D01*
X28026Y12239D01*
X28020Y12235D01*
X28014Y12230D01*
X28006Y12226D01*
X27998Y12221D01*
X27991Y12216D01*
X27985Y12212D01*
X27986Y12212D01*
X27988Y12210D01*
X27992Y12208D01*
X27998Y12204D01*
X28004Y12199D01*
X28012Y12194D01*
X28019Y12188D01*
X28027Y12182D01*
X28128Y12106D01*
Y12052D01*
X27948Y12183D01*
X27750Y12042D01*
Y12103D01*
X27884Y12199D01*
X27885Y12199D01*
X27887Y12200D01*
X27889Y12201D01*
X27891Y12204D01*
X27899Y12209D01*
X27907Y12214D01*
X27907Y12215D01*
X27905Y12216D01*
X27901Y12218D01*
X27897Y12221D01*
X27888Y12227D01*
X27884Y12230D01*
X27881Y12232D01*
X27750Y12328D01*
Y12388D01*
X27945Y12242D01*
D02*
G37*
G36*
X28055Y15771D02*
X28038Y15724D01*
X27861Y15788D01*
X27974Y15548D01*
X27951Y15484D01*
X27861Y15685D01*
X27593Y15607D01*
X27616Y15669D01*
X27841Y15730D01*
X27806Y15808D01*
X27683Y15853D01*
X27700Y15900D01*
X28055Y15771D01*
D02*
G37*
G36*
X27934Y15437D02*
X27840Y15180D01*
X27798Y15196D01*
X27874Y15405D01*
X27766Y15445D01*
X27695Y15248D01*
X27653Y15264D01*
X27724Y15460D01*
X27604Y15504D01*
X27524Y15286D01*
X27482Y15301D01*
X27579Y15567D01*
X27934Y15437D01*
D02*
G37*
G36*
X27806Y15087D02*
X27673Y15057D01*
X27673Y15057D01*
X27671Y15056D01*
X27669Y15056D01*
X27667Y15056D01*
X27664Y15054D01*
X27660Y15054D01*
X27650Y15052D01*
X27639Y15049D01*
X27627Y15047D01*
X27613Y15044D01*
X27600Y15042D01*
X27600Y15042D01*
X27601Y15041D01*
X27602Y15040D01*
X27604Y15037D01*
X27606Y15035D01*
X27608Y15032D01*
X27614Y15024D01*
X27621Y15015D01*
X27630Y15005D01*
X27639Y14993D01*
X27649Y14980D01*
X27728Y14873D01*
X27708Y14819D01*
X27555Y15035D01*
X27405Y15089D01*
X27422Y15137D01*
X27572Y15082D01*
X27827Y15144D01*
X27806Y15087D01*
D02*
G37*
G36*
X29105Y15771D02*
X29045Y15606D01*
X29043Y15602D01*
X29041Y15598D01*
X29037Y15587D01*
X29031Y15576D01*
X29025Y15564D01*
X29019Y15554D01*
X29015Y15549D01*
X29012Y15545D01*
X29012Y15544D01*
X29011Y15544D01*
X29008Y15542D01*
X29005Y15538D01*
X28999Y15533D01*
X28992Y15529D01*
X28983Y15525D01*
X28974Y15521D01*
X28964Y15518D01*
X28963Y15518D01*
X28962Y15518D01*
X28959Y15517D01*
X28953Y15517D01*
X28945Y15516D01*
X28936Y15516D01*
X28926Y15517D01*
X28916Y15519D01*
X28905Y15522D01*
X28904Y15523D01*
X28903Y15523D01*
X28901Y15524D01*
X28899Y15525D01*
X28895Y15526D01*
X28892Y15528D01*
X28884Y15533D01*
X28875Y15540D01*
X28865Y15548D01*
X28857Y15558D01*
X28853Y15564D01*
X28850Y15570D01*
X28849Y15571D01*
X28849Y15572D01*
X28848Y15574D01*
X28847Y15576D01*
X28846Y15580D01*
X28845Y15584D01*
X28844Y15589D01*
X28843Y15594D01*
X28842Y15600D01*
X28841Y15606D01*
X28840Y15614D01*
X28840Y15621D01*
X28841Y15630D01*
X28841Y15638D01*
X28843Y15648D01*
X28845Y15658D01*
X28844Y15657D01*
X28842Y15655D01*
X28839Y15653D01*
X28835Y15649D01*
X28826Y15642D01*
X28821Y15639D01*
X28817Y15636D01*
X28815Y15635D01*
X28812Y15634D01*
X28806Y15631D01*
X28799Y15628D01*
X28790Y15625D01*
X28780Y15621D01*
X28768Y15617D01*
X28755Y15614D01*
X28636Y15588D01*
X28658Y15647D01*
X28749Y15666D01*
X28749Y15666D01*
X28751Y15667D01*
X28752Y15667D01*
X28755Y15668D01*
X28762Y15670D01*
X28771Y15672D01*
X28781Y15674D01*
X28791Y15677D01*
X28801Y15680D01*
X28810Y15682D01*
X28810Y15683D01*
X28813Y15684D01*
X28817Y15685D01*
X28822Y15687D01*
X28832Y15692D01*
X28837Y15695D01*
X28842Y15698D01*
X28843Y15698D01*
X28844Y15699D01*
X28845Y15701D01*
X28848Y15703D01*
X28851Y15706D01*
X28854Y15709D01*
X28859Y15716D01*
X28859Y15717D01*
X28860Y15718D01*
X28861Y15720D01*
X28862Y15722D01*
X28864Y15725D01*
X28866Y15729D01*
X28868Y15735D01*
X28890Y15795D01*
X28733Y15853D01*
X28750Y15900D01*
X29105Y15771D01*
D02*
G37*
G36*
X28593Y15192D02*
X28606Y15190D01*
X28619Y15186D01*
X28607Y15140D01*
X28607Y15140D01*
X28606Y15141D01*
X28604Y15141D01*
X28602Y15141D01*
X28597Y15142D01*
X28590Y15143D01*
X28583Y15143D01*
X28574Y15144D01*
X28566Y15143D01*
X28558Y15142D01*
X28557Y15142D01*
X28554Y15141D01*
X28550Y15140D01*
X28545Y15137D01*
X28538Y15133D01*
X28532Y15129D01*
X28524Y15123D01*
X28517Y15117D01*
X28517Y15116D01*
X28516Y15116D01*
X28515Y15114D01*
X28514Y15113D01*
X28511Y15109D01*
X28506Y15103D01*
X28501Y15095D01*
X28496Y15086D01*
X28492Y15077D01*
X28487Y15065D01*
X28485Y15061D01*
X28484Y15056D01*
X28482Y15049D01*
X28481Y15042D01*
X28479Y15033D01*
X28478Y15024D01*
X28477Y15015D01*
X28478Y15014D01*
X28478Y15011D01*
X28478Y15007D01*
X28479Y15002D01*
X28481Y14996D01*
X28482Y14989D01*
X28485Y14983D01*
X28488Y14977D01*
X28489Y14976D01*
X28490Y14974D01*
X28492Y14972D01*
X28496Y14968D01*
X28499Y14965D01*
X28504Y14961D01*
X28509Y14958D01*
X28515Y14955D01*
X28515Y14955D01*
X28518Y14954D01*
X28521Y14954D01*
X28525Y14953D01*
X28530Y14953D01*
X28536Y14952D01*
X28542Y14953D01*
X28548Y14955D01*
X28549Y14955D01*
X28551Y14956D01*
X28553Y14958D01*
X28558Y14960D01*
X28562Y14963D01*
X28568Y14967D01*
X28574Y14973D01*
X28580Y14979D01*
X28581Y14980D01*
X28582Y14982D01*
X28585Y14986D01*
X28587Y14988D01*
X28589Y14991D01*
X28592Y14994D01*
X28594Y14998D01*
X28598Y15003D01*
X28602Y15009D01*
X28605Y15014D01*
X28610Y15021D01*
X28615Y15028D01*
X28620Y15036D01*
X28621Y15037D01*
X28622Y15038D01*
X28623Y15040D01*
X28625Y15043D01*
X28628Y15047D01*
X28630Y15051D01*
X28637Y15060D01*
X28645Y15070D01*
X28653Y15081D01*
X28660Y15090D01*
X28664Y15093D01*
X28667Y15097D01*
X28668Y15097D01*
X28668Y15098D01*
X28671Y15100D01*
X28676Y15104D01*
X28682Y15107D01*
X28689Y15112D01*
X28696Y15116D01*
X28705Y15120D01*
X28714Y15122D01*
X28716Y15122D01*
X28719Y15123D01*
X28724Y15123D01*
X28729Y15124D01*
X28737Y15123D01*
X28745Y15123D01*
X28754Y15121D01*
X28763Y15118D01*
X28764Y15118D01*
X28764Y15118D01*
X28766Y15117D01*
X28768Y15117D01*
X28772Y15114D01*
X28779Y15110D01*
X28786Y15106D01*
X28794Y15100D01*
X28801Y15094D01*
X28808Y15085D01*
X28808Y15085D01*
X28809Y15084D01*
X28811Y15081D01*
X28814Y15076D01*
X28817Y15069D01*
X28821Y15061D01*
X28824Y15051D01*
X28826Y15040D01*
X28828Y15028D01*
X28827Y15027D01*
X28828Y15026D01*
X28827Y15024D01*
X28828Y15022D01*
X28828Y15019D01*
X28828Y15015D01*
X28827Y15006D01*
X28825Y14996D01*
X28823Y14984D01*
X28820Y14971D01*
X28816Y14958D01*
X28814Y14951D01*
X28812Y14948D01*
X28811Y14944D01*
X28806Y14935D01*
X28801Y14925D01*
X28794Y14914D01*
X28786Y14903D01*
X28778Y14893D01*
X28778Y14893D01*
X28777Y14892D01*
X28775Y14891D01*
X28774Y14889D01*
X28769Y14885D01*
X28762Y14880D01*
X28754Y14874D01*
X28745Y14869D01*
X28734Y14864D01*
X28723Y14861D01*
X28723Y14861D01*
X28722Y14861D01*
X28720Y14860D01*
X28718Y14860D01*
X28712Y14859D01*
X28704Y14859D01*
X28695Y14858D01*
X28684Y14859D01*
X28673Y14860D01*
X28661Y14863D01*
X28674Y14910D01*
X28675Y14909D01*
X28676Y14909D01*
X28677Y14909D01*
X28680Y14909D01*
X28686Y14908D01*
X28695Y14907D01*
X28704Y14907D01*
X28714Y14909D01*
X28724Y14912D01*
X28734Y14916D01*
X28735Y14917D01*
X28738Y14919D01*
X28742Y14923D01*
X28748Y14929D01*
X28754Y14936D01*
X28761Y14945D01*
X28768Y14957D01*
X28774Y14972D01*
X28776Y14979D01*
X28777Y14982D01*
X28778Y14986D01*
X28780Y14996D01*
X28782Y15007D01*
X28783Y15018D01*
X28782Y15029D01*
X28781Y15034D01*
X28780Y15040D01*
X28780Y15041D01*
X28779Y15044D01*
X28776Y15048D01*
X28773Y15052D01*
X28769Y15058D01*
X28764Y15063D01*
X28758Y15068D01*
X28750Y15072D01*
X28749Y15073D01*
X28747Y15073D01*
X28743Y15074D01*
X28738Y15075D01*
X28733Y15075D01*
X28727Y15074D01*
X28720Y15073D01*
X28714Y15070D01*
X28713Y15070D01*
X28710Y15068D01*
X28708Y15066D01*
X28706Y15065D01*
X28704Y15062D01*
X28700Y15059D01*
X28697Y15055D01*
X28693Y15051D01*
X28689Y15046D01*
X28684Y15040D01*
X28679Y15034D01*
X28674Y15027D01*
X28668Y15018D01*
X28662Y15009D01*
X28662Y15008D01*
X28661Y15006D01*
X28659Y15003D01*
X28657Y15000D01*
X28654Y14996D01*
X28650Y14991D01*
X28647Y14986D01*
X28643Y14980D01*
X28635Y14968D01*
X28626Y14957D01*
X28622Y14951D01*
X28618Y14946D01*
X28614Y14942D01*
X28611Y14938D01*
X28611Y14938D01*
X28610Y14937D01*
X28608Y14936D01*
X28607Y14934D01*
X28601Y14930D01*
X28595Y14925D01*
X28586Y14919D01*
X28577Y14913D01*
X28568Y14909D01*
X28558Y14906D01*
X28556Y14905D01*
X28553Y14904D01*
X28548Y14904D01*
X28541Y14903D01*
X28532Y14903D01*
X28523Y14904D01*
X28512Y14906D01*
X28502Y14909D01*
X28501Y14909D01*
X28501Y14909D01*
X28499Y14910D01*
X28497Y14911D01*
X28492Y14914D01*
X28485Y14917D01*
X28478Y14922D01*
X28470Y14928D01*
X28462Y14936D01*
X28455Y14945D01*
X28454Y14945D01*
X28454Y14946D01*
X28452Y14949D01*
X28448Y14955D01*
X28445Y14962D01*
X28441Y14971D01*
X28438Y14981D01*
X28435Y14993D01*
X28433Y15005D01*
X28433Y15006D01*
X28433Y15007D01*
X28433Y15009D01*
X28433Y15011D01*
X28433Y15015D01*
X28433Y15019D01*
X28434Y15028D01*
X28435Y15039D01*
X28436Y15051D01*
X28440Y15065D01*
X28444Y15079D01*
X28447Y15087D01*
X28449Y15091D01*
X28451Y15096D01*
X28453Y15100D01*
X28456Y15106D01*
X28463Y15118D01*
X28470Y15131D01*
X28478Y15143D01*
X28487Y15154D01*
X28487Y15155D01*
X28488Y15156D01*
X28490Y15157D01*
X28492Y15158D01*
X28497Y15164D01*
X28504Y15169D01*
X28513Y15175D01*
X28524Y15181D01*
X28535Y15186D01*
X28548Y15190D01*
X28549Y15190D01*
X28550Y15191D01*
X28552Y15191D01*
X28554Y15191D01*
X28557Y15192D01*
X28561Y15192D01*
X28570Y15193D01*
X28581Y15193D01*
X28593Y15192D01*
D02*
G37*
G36*
X28975Y15413D02*
X28881Y15156D01*
X28839Y15171D01*
X28915Y15381D01*
X28807Y15420D01*
X28736Y15224D01*
X28694Y15239D01*
X28765Y15435D01*
X28645Y15479D01*
X28565Y15261D01*
X28523Y15277D01*
X28620Y15542D01*
X28975Y15413D01*
D02*
G37*
G36*
X28734Y14751D02*
X28640Y14494D01*
X28598Y14509D01*
X28675Y14719D01*
X28566Y14758D01*
X28495Y14562D01*
X28453Y14577D01*
X28524Y14774D01*
X28404Y14818D01*
X28324Y14599D01*
X28282Y14615D01*
X28379Y14880D01*
X28734Y14751D01*
D02*
G37*
G36*
X28623Y14447D02*
X28521Y14166D01*
X28479Y14181D01*
X28521Y14298D01*
X28208Y14412D01*
X28226Y14459D01*
X28539Y14345D01*
X28581Y14462D01*
X28623Y14447D01*
D02*
G37*
G36*
X28098Y14317D02*
X27993Y14028D01*
X27961Y14040D01*
X28066Y14328D01*
X28098Y14317D01*
D02*
G37*
G36*
X28403Y13842D02*
X28385Y13793D01*
X28038Y13709D01*
X28318Y13607D01*
X28301Y13562D01*
X27946Y13691D01*
X27964Y13740D01*
X28310Y13824D01*
X28031Y13926D01*
X28048Y13971D01*
X28403Y13842D01*
D02*
G37*
G36*
X29842Y15800D02*
X29847Y15800D01*
X29854Y15800D01*
X29862Y15799D01*
X29870Y15799D01*
X29878Y15797D01*
X29887Y15796D01*
X29906Y15792D01*
X29925Y15786D01*
X29926Y15786D01*
X29928Y15785D01*
X29931Y15784D01*
X29934Y15782D01*
X29939Y15781D01*
X29944Y15778D01*
X29949Y15775D01*
X29956Y15772D01*
X29962Y15768D01*
X29970Y15764D01*
X29985Y15754D01*
X30000Y15743D01*
X30014Y15729D01*
X30014Y15729D01*
X30016Y15728D01*
X30017Y15726D01*
X30020Y15723D01*
X30023Y15719D01*
X30026Y15715D01*
X30033Y15704D01*
X30042Y15692D01*
X30048Y15677D01*
X30055Y15661D01*
X30057Y15652D01*
X30059Y15643D01*
X30059Y15642D01*
X30059Y15641D01*
X30059Y15638D01*
X30060Y15634D01*
X30060Y15630D01*
X30060Y15624D01*
X30060Y15619D01*
X30060Y15612D01*
X30060Y15604D01*
X30059Y15596D01*
X30058Y15588D01*
X30056Y15579D01*
X30052Y15560D01*
X30050Y15551D01*
X30044Y15534D01*
X30043Y15531D01*
X30041Y15527D01*
X30036Y15518D01*
X30031Y15508D01*
X30024Y15497D01*
X30017Y15486D01*
X30008Y15476D01*
X30008Y15475D01*
X30007Y15475D01*
X30006Y15473D01*
X30004Y15472D01*
X29999Y15467D01*
X29993Y15461D01*
X29985Y15455D01*
X29976Y15449D01*
X29967Y15444D01*
X29956Y15440D01*
X29954Y15439D01*
X29951Y15438D01*
X29945Y15437D01*
X29937Y15435D01*
X29927Y15434D01*
X29915Y15433D01*
X29902Y15433D01*
X29888Y15434D01*
X29892Y15480D01*
X29893Y15480D01*
X29893Y15481D01*
X29895Y15481D01*
X29897Y15480D01*
X29902Y15480D01*
X29909Y15480D01*
X29918Y15480D01*
X29926Y15482D01*
X29934Y15483D01*
X29942Y15485D01*
X29943Y15485D01*
X29945Y15486D01*
X29949Y15488D01*
X29954Y15491D01*
X29960Y15494D01*
X29966Y15498D01*
X29973Y15503D01*
X29979Y15510D01*
X29980Y15511D01*
X29982Y15513D01*
X29985Y15517D01*
X29989Y15522D01*
X29993Y15529D01*
X29998Y15537D01*
X30002Y15546D01*
X30006Y15555D01*
X30008Y15561D01*
X30009Y15563D01*
X30010Y15567D01*
X30012Y15574D01*
X30014Y15584D01*
X30016Y15594D01*
X30017Y15604D01*
X30016Y15615D01*
X30016Y15616D01*
X30016Y15619D01*
X30015Y15624D01*
X30015Y15630D01*
X30013Y15638D01*
X30011Y15646D01*
X30008Y15654D01*
X30005Y15662D01*
X30004Y15663D01*
X30003Y15666D01*
X30000Y15669D01*
X29997Y15674D01*
X29994Y15679D01*
X29989Y15685D01*
X29983Y15691D01*
X29977Y15697D01*
X29977Y15698D01*
X29976Y15699D01*
X29975Y15700D01*
X29973Y15702D01*
X29970Y15704D01*
X29967Y15706D01*
X29963Y15709D01*
X29959Y15712D01*
X29949Y15718D01*
X29937Y15725D01*
X29925Y15731D01*
X29911Y15737D01*
X29910Y15737D01*
X29909Y15738D01*
X29906Y15738D01*
X29903Y15739D01*
X29899Y15741D01*
X29894Y15742D01*
X29888Y15743D01*
X29883Y15745D01*
X29869Y15747D01*
X29855Y15750D01*
X29840Y15750D01*
X29825Y15750D01*
X29825Y15750D01*
X29823Y15750D01*
X29822Y15750D01*
X29819Y15749D01*
X29812Y15747D01*
X29803Y15744D01*
X29793Y15740D01*
X29782Y15735D01*
X29771Y15728D01*
X29761Y15719D01*
X29760Y15719D01*
X29760Y15718D01*
X29758Y15717D01*
X29756Y15715D01*
X29754Y15713D01*
X29752Y15709D01*
X29746Y15702D01*
X29739Y15693D01*
X29733Y15683D01*
X29726Y15671D01*
X29721Y15658D01*
X29719Y15653D01*
X29718Y15650D01*
X29717Y15647D01*
X29716Y15639D01*
X29713Y15629D01*
X29712Y15619D01*
X29711Y15607D01*
X29711Y15595D01*
X29710Y15594D01*
X29711Y15593D01*
X29711Y15592D01*
X29711Y15589D01*
X29711Y15583D01*
X29712Y15576D01*
X29713Y15567D01*
X29715Y15558D01*
X29717Y15549D01*
X29719Y15541D01*
X29786Y15517D01*
X29824Y15621D01*
X29866Y15606D01*
X29811Y15455D01*
X29680Y15503D01*
X29679Y15504D01*
X29679Y15505D01*
X29678Y15508D01*
X29677Y15511D01*
X29676Y15515D01*
X29675Y15519D01*
X29674Y15525D01*
X29672Y15531D01*
X29669Y15544D01*
X29667Y15559D01*
X29665Y15574D01*
X29664Y15590D01*
X29664Y15591D01*
X29664Y15592D01*
X29664Y15594D01*
X29664Y15597D01*
X29665Y15601D01*
X29665Y15606D01*
X29665Y15611D01*
X29666Y15616D01*
X29667Y15628D01*
X29670Y15642D01*
X29673Y15656D01*
X29678Y15671D01*
X29680Y15676D01*
X29681Y15679D01*
X29683Y15684D01*
X29686Y15689D01*
X29689Y15695D01*
X29692Y15701D01*
X29700Y15715D01*
X29710Y15730D01*
X29721Y15744D01*
X29727Y15751D01*
X29735Y15758D01*
X29735Y15758D01*
X29736Y15760D01*
X29739Y15761D01*
X29741Y15764D01*
X29745Y15766D01*
X29749Y15769D01*
X29760Y15776D01*
X29773Y15783D01*
X29788Y15790D01*
X29804Y15795D01*
X29823Y15799D01*
X29823Y15799D01*
X29825Y15799D01*
X29828Y15800D01*
X29832Y15800D01*
X29836Y15800D01*
X29842Y15800D01*
D02*
G37*
G36*
X29960Y15323D02*
X29943Y15275D01*
X29596Y15190D01*
X29875Y15089D01*
X29859Y15044D01*
X29504Y15173D01*
X29521Y15221D01*
X29867Y15306D01*
X29589Y15407D01*
X29605Y15452D01*
X29960Y15323D01*
D02*
G37*
G36*
X29830Y14964D02*
X29780Y14828D01*
X29776Y14819D01*
X29772Y14809D01*
X29767Y14799D01*
X29762Y14789D01*
X29757Y14781D01*
X29757Y14781D01*
X29756Y14780D01*
X29756Y14778D01*
X29754Y14777D01*
X29750Y14771D01*
X29745Y14765D01*
X29738Y14758D01*
X29731Y14751D01*
X29722Y14744D01*
X29713Y14739D01*
X29712Y14738D01*
X29711Y14738D01*
X29709Y14737D01*
X29707Y14736D01*
X29700Y14732D01*
X29691Y14729D01*
X29679Y14725D01*
X29666Y14722D01*
X29652Y14719D01*
X29637Y14719D01*
X29636Y14719D01*
X29635Y14719D01*
X29633Y14718D01*
X29629Y14719D01*
X29625Y14719D01*
X29621Y14719D01*
X29616Y14720D01*
X29610Y14720D01*
X29603Y14721D01*
X29596Y14722D01*
X29581Y14725D01*
X29565Y14729D01*
X29547Y14735D01*
X29546Y14735D01*
X29545Y14736D01*
X29543Y14737D01*
X29540Y14738D01*
X29537Y14739D01*
X29533Y14741D01*
X29523Y14745D01*
X29513Y14751D01*
X29501Y14756D01*
X29490Y14763D01*
X29479Y14771D01*
X29478Y14771D01*
X29477Y14772D01*
X29476Y14773D01*
X29474Y14774D01*
X29469Y14778D01*
X29463Y14784D01*
X29456Y14790D01*
X29449Y14797D01*
X29443Y14806D01*
X29436Y14814D01*
X29435Y14815D01*
X29434Y14818D01*
X29431Y14822D01*
X29428Y14828D01*
X29424Y14834D01*
X29421Y14842D01*
X29418Y14849D01*
X29416Y14858D01*
X29415Y14859D01*
X29415Y14862D01*
X29414Y14866D01*
X29413Y14872D01*
X29412Y14879D01*
X29412Y14887D01*
X29412Y14897D01*
X29413Y14907D01*
X29414Y14908D01*
X29414Y14910D01*
X29414Y14911D01*
X29415Y14917D01*
X29417Y14924D01*
X29419Y14933D01*
X29421Y14943D01*
X29424Y14954D01*
X29428Y14966D01*
X29475Y15094D01*
X29830Y14964D01*
D02*
G37*
G36*
X30827Y15819D02*
X30835Y15818D01*
X30844Y15816D01*
X30834Y15770D01*
X30833Y15770D01*
X30832Y15770D01*
X30830Y15770D01*
X30827Y15771D01*
X30824Y15771D01*
X30820Y15772D01*
X30811Y15772D01*
X30801Y15772D01*
X30790Y15770D01*
X30780Y15768D01*
X30771Y15765D01*
X30770Y15764D01*
X30767Y15762D01*
X30763Y15759D01*
X30758Y15755D01*
X30753Y15750D01*
X30748Y15743D01*
X30743Y15735D01*
X30739Y15726D01*
X30738Y15723D01*
X30737Y15721D01*
X30736Y15715D01*
X30735Y15707D01*
X30734Y15698D01*
X30735Y15688D01*
X30737Y15678D01*
X30741Y15667D01*
X30742Y15665D01*
X30744Y15662D01*
X30747Y15657D01*
X30752Y15651D01*
X30758Y15644D01*
X30766Y15637D01*
X30775Y15631D01*
X30786Y15626D01*
X30786Y15626D01*
X30787Y15625D01*
X30789Y15625D01*
X30791Y15625D01*
X30797Y15623D01*
X30804Y15622D01*
X30813Y15621D01*
X30823Y15622D01*
X30833Y15624D01*
X30843Y15628D01*
X30844Y15629D01*
X30847Y15630D01*
X30852Y15633D01*
X30858Y15638D01*
X30864Y15644D01*
X30870Y15651D01*
X30876Y15660D01*
X30881Y15671D01*
X30882Y15675D01*
X30883Y15679D01*
X30884Y15684D01*
X30885Y15689D01*
X30886Y15696D01*
X30887Y15703D01*
X30924Y15684D01*
X30923Y15681D01*
X30922Y15680D01*
X30919Y15673D01*
X30918Y15667D01*
X30917Y15660D01*
X30915Y15652D01*
X30915Y15642D01*
X30915Y15632D01*
X30917Y15622D01*
X30917Y15621D01*
X30917Y15621D01*
X30918Y15617D01*
X30920Y15613D01*
X30924Y15607D01*
X30929Y15600D01*
X30935Y15594D01*
X30943Y15588D01*
X30948Y15585D01*
X30953Y15583D01*
X30954Y15583D01*
X30954Y15583D01*
X30957Y15582D01*
X30962Y15581D01*
X30968Y15580D01*
X30975Y15580D01*
X30982Y15580D01*
X30991Y15582D01*
X30999Y15585D01*
X30999Y15585D01*
X31002Y15587D01*
X31006Y15590D01*
X31011Y15593D01*
X31016Y15599D01*
X31021Y15605D01*
X31026Y15612D01*
X31030Y15621D01*
X31031Y15626D01*
X31032Y15631D01*
X31033Y15637D01*
X31034Y15644D01*
X31034Y15652D01*
X31032Y15661D01*
X31029Y15669D01*
X31029Y15670D01*
X31027Y15673D01*
X31025Y15677D01*
X31021Y15683D01*
X31016Y15689D01*
X31009Y15695D01*
X31000Y15702D01*
X30989Y15708D01*
X31013Y15749D01*
X31014Y15749D01*
X31015Y15748D01*
X31017Y15747D01*
X31020Y15745D01*
X31023Y15743D01*
X31026Y15740D01*
X31035Y15733D01*
X31044Y15724D01*
X31054Y15713D01*
X31062Y15702D01*
X31068Y15688D01*
X31068Y15688D01*
X31068Y15687D01*
X31069Y15685D01*
X31069Y15682D01*
X31071Y15679D01*
X31071Y15674D01*
X31072Y15670D01*
X31073Y15664D01*
X31073Y15653D01*
X31073Y15639D01*
X31071Y15625D01*
X31069Y15617D01*
X31064Y15604D01*
X31062Y15599D01*
X31058Y15593D01*
X31054Y15585D01*
X31048Y15577D01*
X31041Y15568D01*
X31034Y15561D01*
X31034Y15560D01*
X31033Y15560D01*
X31030Y15557D01*
X31026Y15554D01*
X31020Y15550D01*
X31013Y15546D01*
X31005Y15542D01*
X30996Y15538D01*
X30987Y15536D01*
X30985Y15535D01*
X30982Y15535D01*
X30977Y15534D01*
X30970Y15534D01*
X30963Y15534D01*
X30954Y15535D01*
X30945Y15536D01*
X30936Y15539D01*
X30935Y15539D01*
X30932Y15540D01*
X30928Y15542D01*
X30923Y15545D01*
X30917Y15549D01*
X30910Y15555D01*
X30904Y15560D01*
X30899Y15567D01*
X30898Y15568D01*
X30896Y15570D01*
X30894Y15575D01*
X30891Y15580D01*
X30888Y15587D01*
X30886Y15595D01*
X30884Y15604D01*
X30882Y15614D01*
X30882Y15614D01*
X30881Y15613D01*
X30880Y15612D01*
X30879Y15610D01*
X30875Y15605D01*
X30869Y15599D01*
X30862Y15592D01*
X30854Y15586D01*
X30844Y15580D01*
X30834Y15576D01*
X30833Y15576D01*
X30829Y15575D01*
X30823Y15574D01*
X30815Y15573D01*
X30805Y15573D01*
X30795Y15573D01*
X30783Y15576D01*
X30770Y15579D01*
X30770Y15580D01*
X30768Y15580D01*
X30765Y15581D01*
X30763Y15583D01*
X30759Y15585D01*
X30754Y15588D01*
X30750Y15590D01*
X30744Y15593D01*
X30734Y15602D01*
X30728Y15608D01*
X30723Y15613D01*
X30718Y15619D01*
X30713Y15626D01*
X30708Y15634D01*
X30704Y15642D01*
X30704Y15643D01*
X30703Y15645D01*
X30702Y15647D01*
X30701Y15650D01*
X30700Y15654D01*
X30699Y15660D01*
X30697Y15665D01*
X30697Y15672D01*
X30696Y15679D01*
X30695Y15686D01*
X30695Y15694D01*
X30695Y15703D01*
X30696Y15712D01*
X30698Y15721D01*
X30700Y15730D01*
X30703Y15740D01*
X30705Y15745D01*
X30706Y15747D01*
X30708Y15751D01*
X30710Y15756D01*
X30713Y15760D01*
X30716Y15766D01*
X30724Y15777D01*
X30734Y15788D01*
X30739Y15793D01*
X30745Y15798D01*
X30752Y15803D01*
X30759Y15807D01*
X30760Y15808D01*
X30761Y15808D01*
X30763Y15809D01*
X30766Y15810D01*
X30769Y15812D01*
X30774Y15813D01*
X30778Y15815D01*
X30784Y15816D01*
X30790Y15817D01*
X30797Y15819D01*
X30811Y15820D01*
X30827Y15819D01*
D02*
G37*
G36*
X30691Y15532D02*
X30672Y15482D01*
X30623Y15500D01*
X30641Y15550D01*
X30691Y15532D01*
D02*
G37*
G36*
X30676Y15405D02*
X30685Y15404D01*
X30693Y15402D01*
X30683Y15356D01*
X30682Y15356D01*
X30681Y15356D01*
X30679Y15356D01*
X30676Y15357D01*
X30673Y15357D01*
X30669Y15358D01*
X30660Y15358D01*
X30650Y15358D01*
X30639Y15356D01*
X30629Y15354D01*
X30620Y15351D01*
X30619Y15350D01*
X30616Y15348D01*
X30612Y15345D01*
X30608Y15341D01*
X30602Y15336D01*
X30597Y15329D01*
X30592Y15321D01*
X30588Y15312D01*
X30587Y15309D01*
X30587Y15307D01*
X30585Y15301D01*
X30584Y15293D01*
X30584Y15284D01*
X30584Y15274D01*
X30586Y15264D01*
X30590Y15253D01*
X30591Y15251D01*
X30593Y15248D01*
X30596Y15243D01*
X30601Y15237D01*
X30607Y15230D01*
X30615Y15223D01*
X30624Y15217D01*
X30635Y15212D01*
X30636Y15212D01*
X30637Y15211D01*
X30638Y15211D01*
X30640Y15211D01*
X30646Y15209D01*
X30654Y15208D01*
X30662Y15207D01*
X30672Y15208D01*
X30682Y15210D01*
X30692Y15214D01*
X30694Y15215D01*
X30697Y15216D01*
X30701Y15219D01*
X30707Y15224D01*
X30713Y15230D01*
X30719Y15237D01*
X30725Y15246D01*
X30730Y15257D01*
X30731Y15261D01*
X30732Y15265D01*
X30733Y15270D01*
X30734Y15275D01*
X30736Y15282D01*
X30736Y15289D01*
X30773Y15270D01*
X30772Y15267D01*
X30771Y15265D01*
X30768Y15259D01*
X30767Y15253D01*
X30766Y15246D01*
X30765Y15237D01*
X30764Y15228D01*
X30765Y15218D01*
X30766Y15208D01*
X30766Y15207D01*
X30766Y15207D01*
X30767Y15203D01*
X30770Y15198D01*
X30773Y15193D01*
X30778Y15186D01*
X30784Y15180D01*
X30792Y15174D01*
X30797Y15171D01*
X30803Y15169D01*
X30803Y15169D01*
X30804Y15169D01*
X30807Y15168D01*
X30811Y15167D01*
X30817Y15166D01*
X30824Y15166D01*
X30832Y15166D01*
X30840Y15168D01*
X30848Y15171D01*
X30849Y15171D01*
X30852Y15173D01*
X30856Y15176D01*
X30860Y15179D01*
X30865Y15185D01*
X30870Y15191D01*
X30875Y15198D01*
X30879Y15207D01*
X30881Y15211D01*
X30881Y15216D01*
X30883Y15223D01*
X30883Y15230D01*
X30883Y15238D01*
X30881Y15247D01*
X30879Y15255D01*
X30878Y15256D01*
X30877Y15259D01*
X30874Y15263D01*
X30870Y15269D01*
X30865Y15275D01*
X30858Y15281D01*
X30849Y15288D01*
X30839Y15294D01*
X30862Y15335D01*
X30863Y15335D01*
X30864Y15334D01*
X30866Y15332D01*
X30869Y15331D01*
X30872Y15328D01*
X30876Y15325D01*
X30884Y15319D01*
X30894Y15310D01*
X30903Y15299D01*
X30911Y15288D01*
X30917Y15274D01*
X30917Y15274D01*
X30917Y15273D01*
X30918Y15271D01*
X30919Y15268D01*
X30920Y15265D01*
X30921Y15260D01*
X30921Y15256D01*
X30922Y15250D01*
X30923Y15239D01*
X30922Y15225D01*
X30920Y15211D01*
X30918Y15203D01*
X30914Y15190D01*
X30911Y15185D01*
X30908Y15178D01*
X30903Y15171D01*
X30897Y15163D01*
X30891Y15154D01*
X30883Y15147D01*
X30883Y15146D01*
X30882Y15146D01*
X30880Y15143D01*
X30875Y15140D01*
X30870Y15136D01*
X30862Y15132D01*
X30854Y15128D01*
X30845Y15124D01*
X30836Y15122D01*
X30835Y15121D01*
X30831Y15121D01*
X30826Y15120D01*
X30820Y15120D01*
X30812Y15120D01*
X30803Y15121D01*
X30794Y15122D01*
X30785Y15125D01*
X30784Y15125D01*
X30781Y15126D01*
X30777Y15128D01*
X30772Y15131D01*
X30766Y15135D01*
X30760Y15141D01*
X30754Y15146D01*
X30748Y15153D01*
X30747Y15154D01*
X30746Y15156D01*
X30743Y15160D01*
X30740Y15166D01*
X30738Y15173D01*
X30735Y15181D01*
X30733Y15190D01*
X30731Y15200D01*
X30731Y15200D01*
X30730Y15199D01*
X30729Y15197D01*
X30728Y15196D01*
X30724Y15191D01*
X30718Y15185D01*
X30711Y15178D01*
X30703Y15172D01*
X30693Y15166D01*
X30683Y15162D01*
X30682Y15162D01*
X30678Y15161D01*
X30672Y15160D01*
X30664Y15159D01*
X30655Y15159D01*
X30644Y15159D01*
X30632Y15161D01*
X30619Y15165D01*
X30619Y15166D01*
X30617Y15166D01*
X30615Y15167D01*
X30612Y15169D01*
X30608Y15171D01*
X30604Y15173D01*
X30599Y15176D01*
X30594Y15179D01*
X30583Y15188D01*
X30577Y15194D01*
X30572Y15199D01*
X30567Y15205D01*
X30562Y15212D01*
X30557Y15220D01*
X30553Y15228D01*
X30553Y15229D01*
X30552Y15230D01*
X30552Y15233D01*
X30550Y15236D01*
X30549Y15240D01*
X30548Y15245D01*
X30547Y15251D01*
X30546Y15258D01*
X30545Y15265D01*
X30544Y15272D01*
X30544Y15280D01*
X30544Y15289D01*
X30545Y15298D01*
X30547Y15307D01*
X30549Y15316D01*
X30552Y15326D01*
X30554Y15330D01*
X30556Y15333D01*
X30558Y15337D01*
X30560Y15342D01*
X30563Y15346D01*
X30566Y15352D01*
X30573Y15363D01*
X30583Y15374D01*
X30589Y15379D01*
X30594Y15384D01*
X30601Y15389D01*
X30608Y15393D01*
X30609Y15394D01*
X30610Y15394D01*
X30612Y15395D01*
X30615Y15396D01*
X30618Y15398D01*
X30623Y15399D01*
X30628Y15401D01*
X30633Y15402D01*
X30640Y15403D01*
X30646Y15404D01*
X30660Y15406D01*
X30676Y15405D01*
D02*
G37*
G36*
X30842Y14999D02*
X30551Y15000D01*
X30550Y15001D01*
X30549Y15001D01*
X30547Y15001D01*
X30545Y15000D01*
X30541Y15001D01*
X30538Y15001D01*
X30529Y15001D01*
X30520Y15001D01*
X30509Y15002D01*
X30486Y15003D01*
X30486Y15003D01*
X30487Y15002D01*
X30489Y15001D01*
X30490Y15000D01*
X30496Y14996D01*
X30502Y14991D01*
X30510Y14985D01*
X30519Y14978D01*
X30528Y14971D01*
X30537Y14963D01*
X30760Y14773D01*
X30743Y14725D01*
X30438Y14993D01*
X30456Y15042D01*
X30861Y15050D01*
X30842Y14999D01*
D02*
G37*
G36*
X37400Y15066D02*
Y14321D01*
X34443D01*
Y15066D01*
X32111D01*
Y15857D01*
X37400D01*
Y15066D01*
D02*
G37*
%LPC*%
G36*
X31033Y12552D02*
X30745D01*
Y12462D01*
X30745Y12458D01*
X30746Y12450D01*
X30746Y12441D01*
X30747Y12431D01*
X30749Y12421D01*
X30751Y12413D01*
X30752Y12412D01*
X30752Y12409D01*
X30754Y12405D01*
X30756Y12400D01*
X30760Y12395D01*
X30763Y12390D01*
X30767Y12384D01*
X30771Y12379D01*
X30772Y12378D01*
X30774Y12376D01*
X30778Y12373D01*
X30784Y12369D01*
X30791Y12364D01*
X30799Y12359D01*
X30808Y12355D01*
X30818Y12351D01*
X30819D01*
X30820Y12351D01*
X30822Y12350D01*
X30824Y12350D01*
X30827Y12349D01*
X30830Y12348D01*
X30834Y12347D01*
X30839Y12346D01*
X30850Y12344D01*
X30862Y12343D01*
X30876Y12341D01*
X30892Y12341D01*
X30892D01*
X30894D01*
X30897D01*
X30901Y12341D01*
X30906D01*
X30912Y12342D01*
X30918Y12343D01*
X30925Y12343D01*
X30940Y12346D01*
X30955Y12349D01*
X30969Y12354D01*
X30976Y12357D01*
X30982Y12361D01*
X30983D01*
X30984Y12362D01*
X30986Y12363D01*
X30988Y12364D01*
X30993Y12368D01*
X31000Y12374D01*
X31007Y12381D01*
X31014Y12389D01*
X31020Y12398D01*
X31025Y12408D01*
X31025Y12409D01*
X31026Y12412D01*
X31028Y12417D01*
X31029Y12424D01*
X31030Y12433D01*
X31032Y12444D01*
X31033Y12450D01*
Y12457D01*
X31033Y12464D01*
Y12552D01*
D02*
G37*
G36*
X30833Y12210D02*
Y12091D01*
X31002D01*
X30833Y12210D01*
D02*
G37*
G36*
X30033Y12552D02*
X29745D01*
Y12462D01*
X29745Y12458D01*
X29746Y12450D01*
X29746Y12441D01*
X29748Y12431D01*
X29749Y12421D01*
X29751Y12413D01*
X29752Y12412D01*
X29752Y12409D01*
X29754Y12405D01*
X29756Y12400D01*
X29760Y12395D01*
X29763Y12390D01*
X29767Y12384D01*
X29771Y12379D01*
X29772Y12378D01*
X29774Y12376D01*
X29778Y12373D01*
X29784Y12369D01*
X29791Y12364D01*
X29799Y12359D01*
X29808Y12355D01*
X29818Y12351D01*
X29819D01*
X29820Y12351D01*
X29822Y12350D01*
X29824Y12350D01*
X29827Y12349D01*
X29830Y12348D01*
X29834Y12347D01*
X29839Y12346D01*
X29850Y12344D01*
X29862Y12343D01*
X29876Y12341D01*
X29892Y12341D01*
X29892D01*
X29894D01*
X29897D01*
X29901Y12341D01*
X29906D01*
X29912Y12342D01*
X29918Y12343D01*
X29925Y12343D01*
X29940Y12346D01*
X29955Y12349D01*
X29969Y12354D01*
X29976Y12357D01*
X29982Y12361D01*
X29983D01*
X29984Y12362D01*
X29986Y12363D01*
X29988Y12364D01*
X29993Y12368D01*
X30000Y12374D01*
X30007Y12381D01*
X30014Y12389D01*
X30020Y12398D01*
X30025Y12408D01*
X30025Y12409D01*
X30026Y12412D01*
X30028Y12417D01*
X30029Y12424D01*
X30030Y12433D01*
X30032Y12444D01*
X30033Y12450D01*
Y12457D01*
X30033Y12464D01*
Y12552D01*
D02*
G37*
G36*
X28986Y12600D02*
X28861D01*
Y12487D01*
X28861Y12481D01*
X28862Y12473D01*
X28862Y12464D01*
X28863Y12456D01*
X28865Y12447D01*
X28867Y12439D01*
X28868Y12438D01*
X28869Y12436D01*
X28871Y12433D01*
X28873Y12428D01*
X28876Y12423D01*
X28880Y12419D01*
X28885Y12414D01*
X28890Y12410D01*
X28891Y12409D01*
X28893Y12408D01*
X28896Y12406D01*
X28901Y12404D01*
X28906Y12403D01*
X28911Y12401D01*
X28918Y12400D01*
X28924Y12399D01*
X28925D01*
X28925D01*
X28928Y12400D01*
X28933Y12400D01*
X28940Y12402D01*
X28946Y12404D01*
X28954Y12408D01*
X28961Y12412D01*
X28968Y12419D01*
X28969Y12420D01*
X28971Y12423D01*
X28974Y12427D01*
X28977Y12434D01*
X28980Y12443D01*
X28983Y12453D01*
X28985Y12466D01*
X28986Y12481D01*
Y12600D01*
D02*
G37*
G36*
X28931Y15781D02*
X28892Y15675D01*
X28891Y15669D01*
X28889Y15661D01*
X28886Y15653D01*
X28884Y15644D01*
X28883Y15636D01*
X28882Y15628D01*
X28882Y15626D01*
X28883Y15624D01*
X28883Y15620D01*
X28884Y15616D01*
X28885Y15610D01*
X28887Y15604D01*
X28890Y15598D01*
X28894Y15592D01*
X28894Y15591D01*
X28896Y15590D01*
X28898Y15587D01*
X28901Y15583D01*
X28906Y15580D01*
X28910Y15577D01*
X28916Y15574D01*
X28922Y15571D01*
X28922Y15571D01*
X28923Y15570D01*
X28926Y15570D01*
X28931Y15569D01*
X28937Y15567D01*
X28945Y15568D01*
X28953Y15568D01*
X28961Y15570D01*
X28970Y15574D01*
X28971Y15575D01*
X28974Y15577D01*
X28978Y15580D01*
X28984Y15585D01*
X28989Y15592D01*
X28996Y15601D01*
X29002Y15612D01*
X29008Y15626D01*
X29048Y15738D01*
X28931Y15781D01*
D02*
G37*
G36*
X29500Y15031D02*
X29469Y14947D01*
X29468Y14943D01*
X29466Y14935D01*
X29463Y14927D01*
X29461Y14917D01*
X29459Y14907D01*
X29458Y14899D01*
X29458Y14897D01*
X29458Y14895D01*
X29458Y14891D01*
X29459Y14885D01*
X29460Y14879D01*
X29461Y14873D01*
X29463Y14866D01*
X29465Y14860D01*
X29466Y14859D01*
X29467Y14856D01*
X29470Y14852D01*
X29474Y14846D01*
X29479Y14840D01*
X29485Y14832D01*
X29492Y14825D01*
X29500Y14818D01*
X29501Y14818D01*
X29502Y14817D01*
X29503Y14816D01*
X29505Y14814D01*
X29507Y14813D01*
X29511Y14811D01*
X29514Y14808D01*
X29517Y14806D01*
X29527Y14800D01*
X29538Y14795D01*
X29551Y14789D01*
X29566Y14783D01*
X29566Y14783D01*
X29568Y14782D01*
X29571Y14781D01*
X29575Y14780D01*
X29580Y14778D01*
X29585Y14777D01*
X29591Y14775D01*
X29598Y14774D01*
X29612Y14771D01*
X29628Y14769D01*
X29643Y14769D01*
X29651Y14769D01*
X29657Y14770D01*
X29658Y14770D01*
X29659Y14771D01*
X29661Y14771D01*
X29664Y14772D01*
X29670Y14774D01*
X29678Y14777D01*
X29687Y14781D01*
X29697Y14786D01*
X29706Y14793D01*
X29714Y14800D01*
X29715Y14801D01*
X29716Y14804D01*
X29719Y14808D01*
X29723Y14814D01*
X29727Y14822D01*
X29733Y14831D01*
X29735Y14837D01*
X29738Y14844D01*
X29741Y14851D01*
X29771Y14933D01*
X29500Y15031D01*
D02*
G37*
G36*
X32611Y15657D02*
X32451D01*
X32436Y15656D01*
X32422Y15654D01*
X32410Y15652D01*
X32400Y15649D01*
X32391Y15647D01*
X32387Y15645D01*
X32384Y15644D01*
X32382Y15643D01*
X32380Y15642D01*
X32379Y15642D01*
X32378D01*
X32367Y15636D01*
X32357Y15629D01*
X32348Y15622D01*
X32341Y15616D01*
X32336Y15610D01*
X32332Y15605D01*
X32329Y15602D01*
X32329Y15601D01*
Y15601D01*
X32323Y15590D01*
X32318Y15581D01*
X32315Y15571D01*
X32313Y15563D01*
X32312Y15555D01*
X32311Y15549D01*
Y15544D01*
X32312Y15533D01*
X32313Y15523D01*
X32316Y15513D01*
X32319Y15506D01*
X32322Y15499D01*
X32324Y15494D01*
X32326Y15492D01*
X32327Y15491D01*
X32334Y15482D01*
X32341Y15475D01*
X32349Y15468D01*
X32358Y15462D01*
X32365Y15458D01*
X32371Y15455D01*
X32373Y15453D01*
X32374Y15452D01*
X32376Y15452D01*
X32376D01*
X32380Y15450D01*
X32386Y15448D01*
X32392Y15446D01*
X32398Y15444D01*
X32412Y15440D01*
X32426Y15436D01*
X32433Y15434D01*
X32439Y15433D01*
X32445Y15431D01*
X32450Y15430D01*
X32454Y15429D01*
X32457Y15428D01*
X32459Y15428D01*
X32460D01*
X32471Y15425D01*
X32480Y15423D01*
X32489Y15420D01*
X32497Y15418D01*
X32504Y15415D01*
X32510Y15413D01*
X32515Y15411D01*
X32520Y15409D01*
X32524Y15407D01*
X32527Y15405D01*
X32530Y15404D01*
X32532Y15403D01*
X32534Y15401D01*
X32535Y15400D01*
X32540Y15395D01*
X32543Y15390D01*
X32546Y15384D01*
X32548Y15379D01*
X32549Y15374D01*
X32549Y15370D01*
Y15368D01*
Y15367D01*
X32548Y15358D01*
X32546Y15351D01*
X32543Y15344D01*
X32539Y15338D01*
X32536Y15334D01*
X32532Y15330D01*
X32530Y15328D01*
X32529Y15327D01*
X32525Y15325D01*
X32520Y15322D01*
X32510Y15317D01*
X32499Y15315D01*
X32488Y15313D01*
X32478Y15311D01*
X32474Y15311D01*
X32471Y15310D01*
X32463D01*
X32448Y15311D01*
X32434Y15313D01*
X32423Y15316D01*
X32414Y15320D01*
X32407Y15323D01*
X32401Y15326D01*
X32398Y15328D01*
X32397Y15329D01*
X32390Y15337D01*
X32384Y15345D01*
X32379Y15354D01*
X32376Y15362D01*
X32373Y15370D01*
X32372Y15376D01*
X32371Y15379D01*
X32371Y15381D01*
Y15382D01*
Y15382D01*
X32323Y15379D01*
X32324Y15367D01*
X32326Y15356D01*
X32329Y15345D01*
X32333Y15337D01*
X32336Y15330D01*
X32339Y15324D01*
X32340Y15322D01*
X32341Y15321D01*
X32342Y15320D01*
Y15320D01*
X32349Y15310D01*
X32356Y15302D01*
X32365Y15295D01*
X32373Y15290D01*
X32380Y15285D01*
X32385Y15282D01*
X32388Y15281D01*
X32389Y15280D01*
X32390Y15279D01*
X32391D01*
X32403Y15275D01*
X32416Y15272D01*
X32428Y15269D01*
X32439Y15267D01*
X32450Y15266D01*
X32454D01*
X32457Y15266D01*
X32465D01*
X32479Y15266D01*
X32491Y15268D01*
X32503Y15270D01*
X32514Y15272D01*
X32522Y15274D01*
X32526Y15275D01*
X32528Y15277D01*
X32531Y15278D01*
X32532Y15278D01*
X32533Y15279D01*
X32534D01*
X32545Y15284D01*
X32555Y15290D01*
X32563Y15297D01*
X32569Y15303D01*
X32574Y15308D01*
X32578Y15313D01*
X32581Y15316D01*
X32581Y15316D01*
Y15317D01*
X32587Y15326D01*
X32591Y15336D01*
X32593Y15345D01*
X32595Y15353D01*
X32596Y15360D01*
X32597Y15366D01*
Y15368D01*
Y15369D01*
Y15370D01*
Y15370D01*
X32597Y15380D01*
X32595Y15388D01*
X32593Y15397D01*
X32591Y15404D01*
X32588Y15409D01*
X32586Y15414D01*
X32585Y15416D01*
X32584Y15417D01*
X32579Y15425D01*
X32572Y15432D01*
X32566Y15438D01*
X32559Y15443D01*
X32554Y15447D01*
X32549Y15450D01*
X32545Y15452D01*
X32545Y15453D01*
X32544D01*
X32540Y15455D01*
X32535Y15457D01*
X32524Y15461D01*
X32511Y15465D01*
X32499Y15469D01*
X32489Y15472D01*
X32484Y15473D01*
X32479Y15474D01*
X32476Y15475D01*
X32473Y15476D01*
X32472Y15476D01*
X32471D01*
X32462Y15479D01*
X32453Y15481D01*
X32445Y15483D01*
X32439Y15485D01*
X32432Y15486D01*
X32427Y15488D01*
X32422Y15489D01*
X32418Y15491D01*
X32414Y15492D01*
X32412Y15492D01*
X32407Y15494D01*
X32404Y15494D01*
X32404Y15495D01*
X32396Y15498D01*
X32389Y15502D01*
X32383Y15506D01*
X32378Y15509D01*
X32374Y15512D01*
X32372Y15515D01*
X32371Y15516D01*
X32370Y15517D01*
X32366Y15522D01*
X32364Y15527D01*
X32362Y15533D01*
X32360Y15537D01*
X32360Y15541D01*
X32359Y15545D01*
Y15547D01*
Y15548D01*
X32360Y15554D01*
X32361Y15560D01*
X32362Y15566D01*
X32365Y15570D01*
X32367Y15575D01*
X32368Y15577D01*
X32370Y15580D01*
X32370Y15580D01*
X32374Y15586D01*
X32380Y15590D01*
X32385Y15594D01*
X32390Y15598D01*
X32395Y15600D01*
X32399Y15602D01*
X32402Y15603D01*
X32403Y15604D01*
X32411Y15606D01*
X32420Y15609D01*
X32429Y15610D01*
X32436Y15611D01*
X32443Y15611D01*
X32448Y15612D01*
X32453D01*
X32465Y15611D01*
X32476Y15610D01*
X32486Y15609D01*
X32495Y15606D01*
X32502Y15604D01*
X32507Y15603D01*
X32509Y15602D01*
X32510Y15601D01*
X32511Y15601D01*
X32511D01*
X32520Y15596D01*
X32528Y15592D01*
X32534Y15587D01*
X32540Y15582D01*
X32544Y15578D01*
X32547Y15574D01*
X32549Y15572D01*
X32549Y15571D01*
X32553Y15564D01*
X32557Y15557D01*
X32559Y15548D01*
X32561Y15541D01*
X32563Y15534D01*
X32564Y15529D01*
Y15527D01*
X32564Y15526D01*
Y15525D01*
Y15524D01*
X32611Y15529D01*
X32610Y15542D01*
X32608Y15556D01*
X32605Y15567D01*
X32601Y15577D01*
X32597Y15586D01*
X32596Y15589D01*
X32594Y15592D01*
X32593Y15594D01*
X32592Y15595D01*
X32591Y15596D01*
Y15597D01*
X32583Y15607D01*
X32574Y15617D01*
X32565Y15624D01*
X32556Y15631D01*
X32549Y15636D01*
X32542Y15639D01*
X32540Y15640D01*
X32538Y15641D01*
X32537Y15642D01*
X32537D01*
X32523Y15647D01*
X32509Y15651D01*
X32495Y15653D01*
X32481Y15655D01*
X32474Y15655D01*
X32469Y15656D01*
X32464D01*
X32460Y15657D01*
X32611D01*
D02*
G37*
G36*
X34295Y15650D02*
X34244D01*
Y15482D01*
X34180D01*
X34174Y15483D01*
X34170D01*
X34166Y15483D01*
X34163Y15484D01*
X34161D01*
X34160Y15485D01*
X34159D01*
X34151Y15487D01*
X34147Y15489D01*
X34143Y15491D01*
X34140Y15492D01*
X34138Y15493D01*
X34137Y15494D01*
X34136Y15494D01*
X34132Y15498D01*
X34128Y15501D01*
X34119Y15510D01*
X34116Y15513D01*
X34113Y15517D01*
X34111Y15519D01*
X34111Y15520D01*
X34105Y15527D01*
X34099Y15535D01*
X34093Y15544D01*
X34087Y15552D01*
X34082Y15560D01*
X34079Y15566D01*
X34077Y15568D01*
X34076Y15570D01*
X34075Y15571D01*
Y15571D01*
X34025Y15650D01*
X34169D01*
X33963D01*
X34028Y15547D01*
X34035Y15536D01*
X34042Y15527D01*
X34050Y15518D01*
X34056Y15511D01*
X34061Y15505D01*
X34065Y15501D01*
X34068Y15498D01*
X34069Y15497D01*
X34074Y15494D01*
X34079Y15490D01*
X34088Y15484D01*
X34093Y15482D01*
X34096Y15480D01*
X34098Y15479D01*
X34099Y15478D01*
X34089Y15476D01*
X34080Y15475D01*
X34072Y15472D01*
X34064Y15470D01*
X34057Y15467D01*
X34050Y15464D01*
X34044Y15461D01*
X34039Y15458D01*
X34034Y15455D01*
X34030Y15452D01*
X34027Y15450D01*
X34024Y15448D01*
X34022Y15446D01*
X34020Y15445D01*
X34020Y15444D01*
X34019Y15444D01*
X34015Y15438D01*
X34010Y15433D01*
X34004Y15421D01*
X33999Y15410D01*
X33996Y15399D01*
X33994Y15390D01*
X33993Y15386D01*
Y15382D01*
X33993Y15379D01*
Y15377D01*
Y15376D01*
Y15375D01*
X33993Y15364D01*
X33995Y15354D01*
X33998Y15344D01*
X34000Y15336D01*
X34004Y15328D01*
X34006Y15323D01*
X34008Y15320D01*
X34009Y15319D01*
Y15319D01*
X34015Y15310D01*
X34022Y15302D01*
X34029Y15296D01*
X34035Y15291D01*
X34041Y15287D01*
X34046Y15285D01*
X34050Y15283D01*
X34050Y15283D01*
X34051D01*
X34056Y15281D01*
X34062Y15279D01*
X34074Y15277D01*
X34087Y15275D01*
X34099Y15273D01*
X34110Y15273D01*
X34115D01*
X34119Y15272D01*
X33963D01*
X34295D01*
Y15650D01*
D02*
G37*
G36*
X34646D02*
X34472D01*
Y15317D01*
X34347D01*
Y15650D01*
Y15272D01*
X34646D01*
Y15317D01*
X34522D01*
Y15650D01*
X34646D01*
D01*
D02*
G37*
G36*
X35014Y15657D02*
X34680D01*
D01*
X34836D01*
X34825Y15656D01*
X34815Y15655D01*
X34805Y15654D01*
X34796Y15652D01*
X34787Y15649D01*
X34779Y15646D01*
X34771Y15643D01*
X34764Y15640D01*
X34758Y15637D01*
X34752Y15635D01*
X34748Y15632D01*
X34744Y15629D01*
X34741Y15627D01*
X34738Y15626D01*
X34737Y15625D01*
X34736Y15624D01*
X34729Y15618D01*
X34722Y15611D01*
X34716Y15604D01*
X34710Y15596D01*
X34700Y15581D01*
X34693Y15565D01*
X34689Y15558D01*
X34687Y15552D01*
X34685Y15546D01*
X34683Y15541D01*
X34681Y15536D01*
X34680Y15533D01*
X34680Y15531D01*
Y15535D01*
Y15266D01*
Y15530D01*
X34730Y15518D01*
X34732Y15527D01*
X34735Y15535D01*
X34738Y15542D01*
X34740Y15550D01*
X34744Y15556D01*
X34747Y15562D01*
X34751Y15567D01*
X34754Y15572D01*
X34757Y15576D01*
X34760Y15580D01*
X34763Y15583D01*
X34765Y15586D01*
X34767Y15587D01*
X34769Y15589D01*
X34769Y15589D01*
X34770Y15590D01*
X34775Y15594D01*
X34781Y15598D01*
X34793Y15604D01*
X34805Y15608D01*
X34816Y15611D01*
X34826Y15613D01*
X34830Y15613D01*
X34834D01*
X34837Y15614D01*
X34841D01*
X34853Y15613D01*
X34865Y15611D01*
X34876Y15609D01*
X34886Y15605D01*
X34894Y15602D01*
X34897Y15600D01*
X34900Y15599D01*
X34902Y15598D01*
X34904Y15597D01*
X34905Y15596D01*
X34905D01*
X34916Y15589D01*
X34924Y15581D01*
X34932Y15571D01*
X34938Y15563D01*
X34943Y15555D01*
X34946Y15548D01*
X34947Y15546D01*
X34948Y15544D01*
X34949Y15543D01*
Y15542D01*
X34953Y15528D01*
X34956Y15514D01*
X34959Y15500D01*
X34961Y15487D01*
X34961Y15481D01*
X34962Y15475D01*
Y15470D01*
X34962Y15467D01*
Y15463D01*
Y15461D01*
Y15459D01*
Y15458D01*
X34962Y15444D01*
X34961Y15431D01*
X34959Y15419D01*
X34956Y15408D01*
X34955Y15399D01*
X34954Y15395D01*
X34953Y15392D01*
X34952Y15389D01*
X34952Y15387D01*
X34951Y15386D01*
Y15386D01*
X34946Y15373D01*
X34940Y15362D01*
X34933Y15352D01*
X34926Y15344D01*
X34920Y15338D01*
X34915Y15333D01*
X34911Y15331D01*
X34911Y15330D01*
X34910D01*
X34899Y15322D01*
X34886Y15317D01*
X34874Y15313D01*
X34863Y15311D01*
X34852Y15309D01*
X34848Y15309D01*
X34844D01*
X34841Y15308D01*
X34837D01*
X34823Y15309D01*
X34811Y15311D01*
X34800Y15314D01*
X34791Y15317D01*
X34784Y15321D01*
X34778Y15324D01*
X34775Y15326D01*
X34774Y15327D01*
X34765Y15336D01*
X34757Y15345D01*
X34751Y15355D01*
X34745Y15364D01*
X34741Y15373D01*
X34739Y15378D01*
X34738Y15381D01*
X34737Y15384D01*
X34736Y15386D01*
X34735Y15387D01*
Y15387D01*
X34686Y15376D01*
X34689Y15366D01*
X34693Y15357D01*
X34697Y15349D01*
X34701Y15341D01*
X34705Y15334D01*
X34710Y15327D01*
X34715Y15321D01*
X34719Y15315D01*
X34723Y15311D01*
X34727Y15307D01*
X34731Y15303D01*
X34734Y15300D01*
X34736Y15297D01*
X34739Y15296D01*
X34740Y15295D01*
X34740Y15295D01*
X34748Y15290D01*
X34756Y15285D01*
X34763Y15281D01*
X34771Y15278D01*
X34788Y15273D01*
X34803Y15269D01*
X34810Y15268D01*
X34816Y15267D01*
X34822Y15267D01*
X34827Y15266D01*
X34830Y15266D01*
X34836D01*
X34854Y15267D01*
X34871Y15269D01*
X34887Y15273D01*
X34894Y15275D01*
X34900Y15277D01*
X34906Y15279D01*
X34912Y15281D01*
X34916Y15283D01*
X34920Y15285D01*
X34923Y15286D01*
X34925Y15287D01*
X34927Y15288D01*
X34928Y15289D01*
X34942Y15298D01*
X34955Y15309D01*
X34966Y15320D01*
X34975Y15331D01*
X34982Y15340D01*
X34985Y15345D01*
X34987Y15349D01*
X34989Y15351D01*
X34990Y15354D01*
X34991Y15355D01*
X34991Y15356D01*
X34999Y15373D01*
X35005Y15390D01*
X35008Y15408D01*
X35011Y15423D01*
X35012Y15431D01*
X35013Y15438D01*
X35013Y15443D01*
Y15449D01*
X35014Y15452D01*
Y15459D01*
Y15458D01*
X35013Y15478D01*
X35011Y15497D01*
X35008Y15514D01*
X35006Y15522D01*
X35004Y15529D01*
X35002Y15536D01*
X35000Y15542D01*
X34999Y15547D01*
X34997Y15552D01*
X34996Y15555D01*
X34995Y15558D01*
X34994Y15559D01*
Y15560D01*
X34986Y15576D01*
X34977Y15591D01*
X34967Y15604D01*
X34962Y15609D01*
X34958Y15613D01*
X34953Y15618D01*
X34949Y15622D01*
X34945Y15625D01*
X34942Y15627D01*
X34940Y15629D01*
X34937Y15631D01*
X34936Y15631D01*
X34936Y15632D01*
X34928Y15636D01*
X34920Y15640D01*
X34904Y15646D01*
X34888Y15651D01*
X34872Y15653D01*
X34864Y15654D01*
X34858Y15655D01*
X34852Y15656D01*
X34847D01*
X34842Y15657D01*
X35014D01*
D01*
D02*
G37*
G36*
X37200Y15650D02*
X37064D01*
X37051Y15649D01*
X37040Y15649D01*
X37030Y15648D01*
X37021Y15647D01*
X37013Y15646D01*
X37008Y15645D01*
X37006Y15645D01*
X37005Y15644D01*
X37003D01*
X36994Y15641D01*
X36985Y15638D01*
X36977Y15635D01*
X36971Y15632D01*
X36965Y15629D01*
X36961Y15627D01*
X36959Y15625D01*
X36958Y15625D01*
X36951Y15620D01*
X36945Y15614D01*
X36939Y15609D01*
X36934Y15603D01*
X36930Y15598D01*
X36926Y15594D01*
X36924Y15592D01*
X36924Y15590D01*
X36918Y15582D01*
X36913Y15572D01*
X36908Y15564D01*
X36905Y15555D01*
X36902Y15547D01*
X36900Y15541D01*
X36899Y15539D01*
X36899Y15538D01*
X36898Y15536D01*
Y15536D01*
X36895Y15523D01*
X36892Y15510D01*
X36890Y15497D01*
X36889Y15485D01*
X36888Y15475D01*
Y15470D01*
X36888Y15467D01*
Y15272D01*
Y15459D01*
X36888Y15441D01*
X36890Y15424D01*
X36893Y15409D01*
X36894Y15402D01*
X36895Y15396D01*
X36897Y15390D01*
X36898Y15385D01*
X36899Y15380D01*
X36901Y15376D01*
X36901Y15373D01*
X36902Y15371D01*
X36903Y15370D01*
Y15369D01*
X36909Y15355D01*
X36916Y15343D01*
X36924Y15332D01*
X36931Y15322D01*
X36937Y15315D01*
X36943Y15309D01*
X36945Y15308D01*
X36947Y15306D01*
X36947Y15305D01*
X36948Y15305D01*
X36956Y15298D01*
X36966Y15292D01*
X36975Y15287D01*
X36984Y15284D01*
X36991Y15281D01*
X36997Y15279D01*
X37000Y15278D01*
X37001D01*
X37002Y15278D01*
X37003D01*
X37012Y15276D01*
X37023Y15274D01*
X37034Y15273D01*
X37045Y15273D01*
X37055Y15272D01*
X37200D01*
Y15650D01*
D02*
G37*
G36*
X36847D02*
X36548D01*
Y15272D01*
X36847D01*
Y15317D01*
X36723D01*
Y15650D01*
X36847D01*
D01*
D02*
G37*
G36*
X36498D02*
X36186D01*
D01*
X36352Y15426D01*
X36193Y15272D01*
X36261D01*
X36448Y15460D01*
Y15272D01*
X36373D01*
X36498D01*
Y15650D01*
D02*
G37*
G36*
X35997D02*
X35714D01*
Y15272D01*
Y15605D01*
X35946D01*
Y15477D01*
X35737D01*
Y15432D01*
X35946D01*
Y15317D01*
X35723D01*
Y15272D01*
X35714D01*
X35997D01*
Y15650D01*
D02*
G37*
G36*
X35647D02*
X35411D01*
Y15272D01*
Y15605D01*
X35597D01*
Y15272D01*
X35647D01*
Y15650D01*
D02*
G37*
G36*
X35351D02*
X35068D01*
Y15272D01*
Y15605D01*
X35300D01*
Y15477D01*
X35091D01*
Y15432D01*
X35300D01*
Y15317D01*
X35077D01*
Y15272D01*
X35068D01*
X35351D01*
Y15650D01*
D02*
G37*
G36*
X32819Y15657D02*
X32813D01*
X32802Y15656D01*
X32792Y15655D01*
X32782Y15654D01*
X32772Y15652D01*
X32764Y15649D01*
X32756Y15646D01*
X32748Y15643D01*
X32741Y15640D01*
X32735Y15637D01*
X32729Y15635D01*
X32724Y15632D01*
X32720Y15629D01*
X32717Y15627D01*
X32715Y15626D01*
X32714Y15625D01*
X32713Y15624D01*
X32705Y15618D01*
X32699Y15611D01*
X32693Y15604D01*
X32687Y15596D01*
X32677Y15581D01*
X32669Y15565D01*
X32666Y15558D01*
X32663Y15552D01*
X32661Y15546D01*
X32659Y15541D01*
X32658Y15536D01*
X32657Y15533D01*
X32656Y15531D01*
Y15530D01*
X32706Y15518D01*
X32709Y15527D01*
X32711Y15535D01*
X32714Y15542D01*
X32717Y15550D01*
X32720Y15556D01*
X32723Y15562D01*
X32727Y15567D01*
X32730Y15572D01*
X32733Y15576D01*
X32736Y15580D01*
X32739Y15583D01*
X32741Y15586D01*
X32744Y15587D01*
X32745Y15589D01*
X32746Y15589D01*
X32746Y15590D01*
X32752Y15594D01*
X32758Y15598D01*
X32770Y15604D01*
X32781Y15608D01*
X32793Y15611D01*
X32803Y15613D01*
X32806Y15613D01*
X32810D01*
X32813Y15614D01*
X32817D01*
X32830Y15613D01*
X32842Y15611D01*
X32853Y15609D01*
X32863Y15605D01*
X32870Y15602D01*
X32873Y15600D01*
X32876Y15599D01*
X32878Y15598D01*
X32880Y15597D01*
X32881Y15596D01*
X32882D01*
X32892Y15589D01*
X32901Y15581D01*
X32908Y15571D01*
X32914Y15563D01*
X32919Y15555D01*
X32923Y15548D01*
X32924Y15546D01*
X32925Y15544D01*
X32925Y15543D01*
Y15542D01*
X32930Y15528D01*
X32933Y15514D01*
X32936Y15500D01*
X32937Y15487D01*
X32938Y15481D01*
X32938Y15475D01*
Y15470D01*
X32939Y15467D01*
Y15463D01*
Y15461D01*
Y15459D01*
Y15458D01*
X32938Y15444D01*
X32937Y15431D01*
X32935Y15419D01*
X32933Y15408D01*
X32931Y15399D01*
X32930Y15395D01*
X32929Y15392D01*
X32929Y15389D01*
X32928Y15387D01*
X32928Y15386D01*
Y15386D01*
X32922Y15373D01*
X32916Y15362D01*
X32910Y15352D01*
X32902Y15344D01*
X32896Y15338D01*
X32892Y15333D01*
X32888Y15331D01*
X32887Y15330D01*
X32887D01*
X32875Y15322D01*
X32863Y15317D01*
X32851Y15313D01*
X32839Y15311D01*
X32829Y15309D01*
X32824Y15309D01*
X32821D01*
X32818Y15308D01*
X32813D01*
X32800Y15309D01*
X32787Y15311D01*
X32777Y15314D01*
X32768Y15317D01*
X32760Y15321D01*
X32755Y15324D01*
X32752Y15326D01*
X32751Y15327D01*
X32742Y15336D01*
X32734Y15345D01*
X32727Y15355D01*
X32722Y15364D01*
X32717Y15373D01*
X32716Y15378D01*
X32715Y15381D01*
X32714Y15384D01*
X32712Y15386D01*
X32712Y15387D01*
Y15387D01*
X32663Y15376D01*
X32666Y15366D01*
X32669Y15357D01*
X32674Y15349D01*
X32677Y15341D01*
X32682Y15334D01*
X32687Y15327D01*
X32691Y15321D01*
X32696Y15315D01*
X32700Y15311D01*
X32704Y15307D01*
X32708Y15303D01*
X32710Y15300D01*
X32713Y15297D01*
X32715Y15296D01*
X32716Y15295D01*
X32717Y15295D01*
X32724Y15290D01*
X32732Y15285D01*
X32740Y15281D01*
X32748Y15278D01*
X32764Y15273D01*
X32779Y15269D01*
X32786Y15268D01*
X32792Y15267D01*
X32798Y15267D01*
X32803Y15266D01*
X32807Y15266D01*
X32812D01*
X32830Y15267D01*
X32848Y15269D01*
X32863Y15273D01*
X32870Y15275D01*
X32877Y15277D01*
X32883Y15279D01*
X32888Y15281D01*
X32893Y15283D01*
X32897Y15285D01*
X32900Y15286D01*
X32902Y15287D01*
X32904Y15288D01*
X32904Y15289D01*
X32919Y15298D01*
X32931Y15309D01*
X32942Y15320D01*
X32952Y15331D01*
X32959Y15340D01*
X32961Y15345D01*
X32964Y15349D01*
X32966Y15351D01*
X32967Y15354D01*
X32967Y15355D01*
X32968Y15356D01*
X32976Y15373D01*
X32981Y15390D01*
X32985Y15408D01*
X32988Y15423D01*
X32989Y15431D01*
X32989Y15438D01*
X32990Y15443D01*
Y15449D01*
X32990Y15452D01*
Y15272D01*
Y15458D01*
X32989Y15478D01*
X32987Y15497D01*
X32984Y15514D01*
X32982Y15522D01*
X32981Y15529D01*
X32979Y15536D01*
X32977Y15542D01*
X32975Y15547D01*
X32974Y15552D01*
X32972Y15555D01*
X32972Y15558D01*
X32971Y15559D01*
Y15560D01*
X32962Y15576D01*
X32953Y15591D01*
X32943Y15604D01*
X32938Y15609D01*
X32934Y15613D01*
X32930Y15618D01*
X32925Y15622D01*
X32922Y15625D01*
X32918Y15627D01*
X32916Y15629D01*
X32914Y15631D01*
X32913Y15631D01*
X32912Y15632D01*
X32905Y15636D01*
X32897Y15640D01*
X32881Y15646D01*
X32864Y15651D01*
X32848Y15653D01*
X32841Y15654D01*
X32834Y15655D01*
X32828Y15656D01*
X32823D01*
X32819Y15657D01*
D02*
G37*
G36*
X33504Y15650D02*
X33207D01*
Y15272D01*
X33255D01*
Y15569D01*
X33453Y15272D01*
X33504D01*
Y15650D01*
D02*
G37*
G36*
X33114D02*
X33064D01*
Y15272D01*
X33114D01*
Y15650D01*
D02*
G37*
G36*
X33929Y15657D02*
X33749D01*
X33731Y15655D01*
X33714Y15653D01*
X33698Y15649D01*
X33691Y15647D01*
X33684Y15645D01*
X33678Y15643D01*
X33673Y15641D01*
X33668Y15639D01*
X33665Y15637D01*
X33661Y15636D01*
X33659Y15635D01*
X33658Y15634D01*
X33657D01*
X33642Y15624D01*
X33629Y15613D01*
X33618Y15601D01*
X33608Y15590D01*
X33601Y15580D01*
X33598Y15576D01*
X33596Y15572D01*
X33594Y15569D01*
X33593Y15567D01*
X33591Y15565D01*
Y15565D01*
X33587Y15556D01*
X33584Y15547D01*
X33578Y15530D01*
X33573Y15512D01*
X33571Y15497D01*
X33570Y15489D01*
X33569Y15483D01*
X33569Y15477D01*
Y15472D01*
X33568Y15468D01*
Y15266D01*
Y15462D01*
X33569Y15441D01*
X33571Y15422D01*
X33573Y15414D01*
X33575Y15405D01*
X33577Y15397D01*
X33579Y15390D01*
X33581Y15384D01*
X33583Y15378D01*
X33585Y15373D01*
X33587Y15368D01*
X33588Y15365D01*
X33589Y15363D01*
X33590Y15361D01*
Y15361D01*
X33599Y15345D01*
X33609Y15331D01*
X33620Y15319D01*
X33630Y15309D01*
X33640Y15301D01*
X33644Y15298D01*
X33647Y15295D01*
X33650Y15293D01*
X33653Y15292D01*
X33654Y15291D01*
X33654Y15291D01*
X33662Y15286D01*
X33671Y15283D01*
X33686Y15276D01*
X33703Y15272D01*
X33717Y15269D01*
X33724Y15268D01*
X33730Y15267D01*
X33735Y15266D01*
X33740D01*
X33744Y15266D01*
X33749D01*
X33763Y15266D01*
X33777Y15268D01*
X33790Y15271D01*
X33803Y15274D01*
X33814Y15278D01*
X33825Y15283D01*
X33835Y15287D01*
X33844Y15292D01*
X33852Y15297D01*
X33859Y15302D01*
X33865Y15307D01*
X33870Y15311D01*
X33874Y15314D01*
X33877Y15317D01*
X33879Y15319D01*
X33879Y15319D01*
X33888Y15330D01*
X33896Y15340D01*
X33903Y15352D01*
X33908Y15364D01*
X33913Y15377D01*
X33917Y15389D01*
X33921Y15401D01*
X33923Y15412D01*
X33925Y15423D01*
X33927Y15434D01*
X33928Y15443D01*
X33929Y15451D01*
Y15457D01*
X33929Y15462D01*
Y15467D01*
X33928Y15485D01*
X33926Y15502D01*
X33923Y15518D01*
X33921Y15526D01*
X33919Y15533D01*
X33917Y15539D01*
X33915Y15544D01*
X33913Y15549D01*
X33911Y15553D01*
X33910Y15557D01*
X33909Y15559D01*
X33908Y15560D01*
Y15561D01*
X33899Y15577D01*
X33889Y15590D01*
X33878Y15603D01*
X33868Y15612D01*
X33858Y15621D01*
X33855Y15624D01*
X33851Y15626D01*
X33848Y15628D01*
X33846Y15630D01*
X33845Y15630D01*
X33844Y15631D01*
X33836Y15635D01*
X33828Y15639D01*
X33812Y15646D01*
X33796Y15650D01*
X33781Y15653D01*
X33774Y15654D01*
X33768Y15655D01*
X33762Y15656D01*
X33757D01*
X33754Y15657D01*
X33929D01*
D02*
G37*
G36*
X35253Y14907D02*
X35005D01*
X35140D01*
X35125Y14905D01*
X35111Y14903D01*
X35098Y14899D01*
X35088Y14895D01*
X35084Y14893D01*
X35079Y14891D01*
X35076Y14889D01*
X35073Y14887D01*
X35071Y14886D01*
X35069Y14885D01*
X35068Y14884D01*
X35067D01*
X35056Y14875D01*
X35047Y14865D01*
X35039Y14854D01*
X35032Y14843D01*
X35027Y14834D01*
X35025Y14830D01*
X35023Y14826D01*
X35022Y14823D01*
X35021Y14821D01*
X35020Y14820D01*
Y14819D01*
X35018Y14811D01*
X35015Y14802D01*
X35011Y14783D01*
X35008Y14763D01*
X35007Y14745D01*
X35006Y14737D01*
X35005Y14729D01*
Y14721D01*
X35005Y14715D01*
D01*
Y14691D01*
X35005Y14679D01*
X35006Y14668D01*
X35007Y14658D01*
X35008Y14648D01*
X35009Y14640D01*
X35011Y14631D01*
X35013Y14624D01*
X35014Y14618D01*
X35015Y14613D01*
X35017Y14608D01*
X35018Y14604D01*
X35019Y14601D01*
X35020Y14599D01*
X35021Y14598D01*
Y14598D01*
X35027Y14584D01*
X35035Y14573D01*
X35043Y14563D01*
X35050Y14555D01*
X35057Y14549D01*
X35062Y14545D01*
X35065Y14543D01*
X35066Y14542D01*
X35067Y14541D01*
X35067D01*
X35079Y14534D01*
X35090Y14529D01*
X35102Y14525D01*
X35112Y14523D01*
X35121Y14522D01*
X35125Y14521D01*
X35128D01*
X35131Y14521D01*
X35005D01*
X35253D01*
X35134D01*
X35144Y14521D01*
X35152Y14522D01*
X35161Y14524D01*
X35169Y14526D01*
X35184Y14532D01*
X35190Y14535D01*
X35196Y14538D01*
X35201Y14542D01*
X35205Y14545D01*
X35210Y14548D01*
X35213Y14551D01*
X35216Y14553D01*
X35217Y14554D01*
X35219Y14555D01*
X35219Y14556D01*
X35225Y14563D01*
X35230Y14570D01*
X35235Y14577D01*
X35239Y14585D01*
X35242Y14593D01*
X35245Y14601D01*
X35249Y14615D01*
X35250Y14622D01*
X35251Y14628D01*
X35252Y14634D01*
X35252Y14639D01*
X35253Y14643D01*
Y14648D01*
X35252Y14659D01*
X35251Y14668D01*
X35250Y14677D01*
X35248Y14686D01*
X35245Y14694D01*
X35243Y14701D01*
X35240Y14708D01*
X35237Y14714D01*
X35234Y14719D01*
X35231Y14724D01*
X35228Y14728D01*
X35226Y14732D01*
X35223Y14735D01*
X35222Y14736D01*
X35221Y14737D01*
X35221Y14738D01*
X35215Y14744D01*
X35208Y14749D01*
X35202Y14754D01*
X35195Y14757D01*
X35188Y14761D01*
X35181Y14763D01*
X35169Y14767D01*
X35163Y14769D01*
X35158Y14770D01*
X35154Y14771D01*
X35149Y14771D01*
X35146Y14772D01*
X35142D01*
X35131Y14771D01*
X35121Y14770D01*
X35113Y14767D01*
X35104Y14765D01*
X35098Y14762D01*
X35094Y14760D01*
X35090Y14759D01*
X35089Y14758D01*
X35080Y14753D01*
X35073Y14747D01*
X35066Y14741D01*
X35061Y14735D01*
X35057Y14730D01*
X35054Y14726D01*
X35051Y14723D01*
X35051Y14722D01*
Y14726D01*
Y14729D01*
Y14731D01*
Y14731D01*
X35051Y14742D01*
X35052Y14753D01*
X35053Y14762D01*
X35054Y14771D01*
X35056Y14778D01*
X35057Y14783D01*
X35057Y14785D01*
Y14787D01*
X35058Y14788D01*
Y14788D01*
X35061Y14798D01*
X35064Y14807D01*
X35066Y14814D01*
X35069Y14821D01*
X35071Y14826D01*
X35073Y14830D01*
X35074Y14832D01*
X35075Y14833D01*
X35079Y14839D01*
X35084Y14844D01*
X35088Y14848D01*
X35092Y14852D01*
X35096Y14855D01*
X35099Y14857D01*
X35101Y14858D01*
X35102Y14859D01*
X35108Y14862D01*
X35114Y14865D01*
X35120Y14866D01*
X35126Y14867D01*
X35131Y14868D01*
X35135Y14868D01*
X35139D01*
X35148Y14868D01*
X35156Y14866D01*
X35163Y14864D01*
X35169Y14861D01*
X35173Y14859D01*
X35177Y14857D01*
X35179Y14855D01*
X35180Y14855D01*
X35185Y14849D01*
X35190Y14842D01*
X35193Y14834D01*
X35196Y14826D01*
X35198Y14820D01*
X35200Y14814D01*
X35201Y14812D01*
Y14810D01*
X35201Y14809D01*
Y14809D01*
X35246Y14813D01*
X35243Y14828D01*
X35238Y14842D01*
X35233Y14854D01*
X35227Y14864D01*
X35222Y14872D01*
X35219Y14875D01*
X35217Y14878D01*
X35215Y14879D01*
X35214Y14881D01*
X35213Y14881D01*
X35213Y14882D01*
X35207Y14886D01*
X35201Y14890D01*
X35189Y14896D01*
X35177Y14901D01*
X35166Y14903D01*
X35155Y14905D01*
X35151Y14906D01*
X35147D01*
X35144Y14907D01*
X35253D01*
D02*
G37*
G36*
X35429D02*
X35423D01*
X35409Y14905D01*
X35395Y14903D01*
X35383Y14899D01*
X35374Y14896D01*
X35365Y14892D01*
X35363Y14890D01*
X35360Y14888D01*
X35358Y14887D01*
X35356Y14886D01*
X35356Y14885D01*
X35355D01*
X35345Y14875D01*
X35337Y14866D01*
X35330Y14855D01*
X35324Y14845D01*
X35320Y14836D01*
X35318Y14832D01*
X35317Y14828D01*
X35316Y14825D01*
X35315Y14823D01*
X35314Y14822D01*
Y14821D01*
X35311Y14813D01*
X35309Y14805D01*
X35306Y14788D01*
X35303Y14770D01*
X35302Y14752D01*
X35301Y14744D01*
X35300Y14737D01*
Y14731D01*
X35300Y14725D01*
D01*
Y14703D01*
X35300Y14694D01*
Y14685D01*
X35301Y14676D01*
X35302Y14669D01*
X35303Y14661D01*
X35303Y14654D01*
X35304Y14648D01*
X35305Y14643D01*
X35306Y14638D01*
X35306Y14634D01*
X35307Y14631D01*
X35308Y14628D01*
X35308Y14626D01*
X35309Y14625D01*
Y14625D01*
X35312Y14613D01*
X35316Y14602D01*
X35320Y14593D01*
X35323Y14584D01*
X35327Y14577D01*
X35329Y14572D01*
X35332Y14570D01*
X35332Y14569D01*
X35338Y14560D01*
X35344Y14553D01*
X35351Y14547D01*
X35357Y14542D01*
X35362Y14538D01*
X35367Y14535D01*
X35369Y14534D01*
X35370Y14533D01*
X35370D01*
X35379Y14529D01*
X35388Y14526D01*
X35397Y14524D01*
X35405Y14522D01*
X35412Y14521D01*
X35418Y14521D01*
X35300D01*
X35423D01*
X35438Y14522D01*
X35452Y14524D01*
X35463Y14528D01*
X35473Y14531D01*
X35481Y14536D01*
X35484Y14537D01*
X35487Y14540D01*
X35489Y14541D01*
X35491Y14542D01*
X35492Y14543D01*
X35492D01*
X35502Y14552D01*
X35510Y14562D01*
X35517Y14572D01*
X35523Y14582D01*
X35527Y14592D01*
X35529Y14595D01*
X35530Y14599D01*
X35531Y14602D01*
X35533Y14604D01*
X35533Y14605D01*
Y14606D01*
X35535Y14614D01*
X35537Y14622D01*
X35541Y14640D01*
X35543Y14658D01*
X35545Y14675D01*
X35546Y14683D01*
X35546Y14690D01*
Y14697D01*
X35547Y14703D01*
Y14714D01*
X35546Y14733D01*
X35545Y14751D01*
X35543Y14767D01*
X35541Y14783D01*
X35538Y14797D01*
X35535Y14809D01*
X35531Y14821D01*
X35528Y14831D01*
X35525Y14839D01*
X35521Y14847D01*
X35518Y14854D01*
X35516Y14858D01*
X35513Y14863D01*
X35511Y14866D01*
X35510Y14867D01*
X35510Y14868D01*
X35504Y14874D01*
X35497Y14880D01*
X35490Y14886D01*
X35483Y14890D01*
X35476Y14894D01*
X35469Y14897D01*
X35462Y14899D01*
X35455Y14902D01*
X35448Y14903D01*
X35442Y14904D01*
X35437Y14905D01*
X35433Y14906D01*
X35429Y14907D01*
D02*
G37*
G36*
X35843D02*
Y14724D01*
X35842Y14741D01*
X35841Y14757D01*
X35839Y14773D01*
X35837Y14787D01*
X35834Y14800D01*
X35831Y14811D01*
X35828Y14821D01*
X35824Y14831D01*
X35821Y14838D01*
X35818Y14845D01*
X35815Y14851D01*
X35812Y14856D01*
X35809Y14860D01*
X35808Y14862D01*
X35807Y14863D01*
X35806Y14864D01*
X35799Y14872D01*
X35791Y14878D01*
X35784Y14884D01*
X35776Y14889D01*
X35768Y14893D01*
X35760Y14896D01*
X35753Y14899D01*
X35745Y14901D01*
X35738Y14903D01*
X35732Y14904D01*
X35726Y14905D01*
X35721Y14906D01*
X35717D01*
X35714Y14907D01*
X35843D01*
X35712D01*
X35699Y14906D01*
X35688Y14904D01*
X35677Y14902D01*
X35668Y14898D01*
X35661Y14896D01*
X35655Y14893D01*
X35653Y14892D01*
X35652Y14891D01*
X35651Y14891D01*
X35650D01*
X35641Y14884D01*
X35632Y14877D01*
X35625Y14869D01*
X35619Y14861D01*
X35614Y14854D01*
X35611Y14849D01*
X35610Y14846D01*
X35609Y14845D01*
X35608Y14844D01*
Y14844D01*
X35603Y14832D01*
X35599Y14820D01*
X35596Y14809D01*
X35595Y14799D01*
X35593Y14790D01*
Y14787D01*
X35593Y14784D01*
Y14786D01*
Y14521D01*
Y14778D01*
X35593Y14768D01*
X35594Y14759D01*
X35596Y14749D01*
X35597Y14741D01*
X35600Y14733D01*
X35603Y14726D01*
X35606Y14719D01*
X35609Y14713D01*
X35612Y14708D01*
X35615Y14703D01*
X35618Y14699D01*
X35620Y14695D01*
X35622Y14693D01*
X35624Y14691D01*
X35625Y14690D01*
X35625Y14689D01*
X35631Y14683D01*
X35638Y14678D01*
X35645Y14673D01*
X35652Y14670D01*
X35658Y14666D01*
X35665Y14663D01*
X35677Y14659D01*
X35683Y14658D01*
X35688Y14656D01*
X35692Y14656D01*
X35697Y14655D01*
X35700Y14655D01*
X35705D01*
X35714Y14655D01*
X35724Y14657D01*
X35732Y14659D01*
X35740Y14661D01*
X35747Y14664D01*
X35751Y14665D01*
X35755Y14667D01*
X35755Y14667D01*
X35756D01*
X35765Y14673D01*
X35772Y14679D01*
X35779Y14685D01*
X35785Y14691D01*
X35790Y14697D01*
X35793Y14701D01*
X35796Y14705D01*
X35796Y14705D01*
Y14695D01*
X35796Y14685D01*
X35795Y14677D01*
X35794Y14668D01*
X35793Y14660D01*
X35792Y14653D01*
X35791Y14647D01*
X35790Y14641D01*
X35789Y14635D01*
X35787Y14631D01*
X35786Y14627D01*
X35786Y14624D01*
X35785Y14622D01*
X35784Y14620D01*
X35784Y14619D01*
Y14618D01*
X35778Y14607D01*
X35773Y14598D01*
X35767Y14590D01*
X35761Y14583D01*
X35756Y14578D01*
X35753Y14574D01*
X35750Y14572D01*
X35749Y14571D01*
X35742Y14567D01*
X35736Y14564D01*
X35729Y14562D01*
X35723Y14560D01*
X35718Y14559D01*
X35713Y14559D01*
X35709D01*
X35700Y14560D01*
X35690Y14562D01*
X35683Y14565D01*
X35676Y14569D01*
X35670Y14572D01*
X35666Y14576D01*
X35664Y14578D01*
X35663Y14579D01*
X35659Y14584D01*
X35655Y14590D01*
X35652Y14596D01*
X35650Y14603D01*
X35648Y14609D01*
X35646Y14614D01*
X35646Y14617D01*
X35645Y14618D01*
Y14618D01*
X35599Y14614D01*
X35602Y14599D01*
X35607Y14585D01*
X35612Y14573D01*
X35618Y14564D01*
X35624Y14556D01*
X35626Y14553D01*
X35629Y14550D01*
X35631Y14548D01*
X35632Y14547D01*
X35633Y14546D01*
X35634Y14546D01*
X35639Y14541D01*
X35645Y14537D01*
X35657Y14531D01*
X35669Y14527D01*
X35680Y14524D01*
X35691Y14522D01*
X35695Y14521D01*
X35699D01*
X35702Y14521D01*
X35707D01*
X35718Y14521D01*
X35728Y14522D01*
X35738Y14524D01*
X35747Y14527D01*
X35755Y14531D01*
X35763Y14534D01*
X35771Y14539D01*
X35777Y14542D01*
X35783Y14546D01*
X35788Y14551D01*
X35792Y14554D01*
X35796Y14557D01*
X35798Y14560D01*
X35801Y14563D01*
X35802Y14564D01*
X35802Y14564D01*
X35809Y14574D01*
X35815Y14585D01*
X35821Y14598D01*
X35826Y14610D01*
X35830Y14623D01*
X35833Y14636D01*
X35836Y14650D01*
X35838Y14662D01*
X35839Y14675D01*
X35840Y14687D01*
X35842Y14697D01*
X35842Y14706D01*
Y14713D01*
X35843Y14719D01*
Y14907D01*
D02*
G37*
G36*
X34938Y14900D02*
X34888D01*
Y14722D01*
X34693D01*
Y14900D01*
X34643D01*
Y14522D01*
X34693D01*
Y14677D01*
X34888D01*
Y14522D01*
X34938D01*
Y14900D01*
D02*
G37*
G36*
X37200D02*
X37064D01*
X37051Y14899D01*
X37040Y14899D01*
X37030Y14898D01*
X37021Y14897D01*
X37013Y14896D01*
X37008Y14895D01*
X37006Y14895D01*
X37005Y14894D01*
X37003D01*
X36994Y14891D01*
X36985Y14888D01*
X36977Y14885D01*
X36971Y14882D01*
X36965Y14879D01*
X36961Y14877D01*
X36959Y14875D01*
X36958Y14875D01*
X36951Y14870D01*
X36945Y14864D01*
X36939Y14858D01*
X36934Y14853D01*
X36930Y14848D01*
X36926Y14844D01*
X36924Y14842D01*
X36924Y14840D01*
X36918Y14832D01*
X36913Y14822D01*
X36908Y14814D01*
X36905Y14805D01*
X36902Y14797D01*
X36900Y14791D01*
X36899Y14789D01*
X36899Y14788D01*
X36898Y14786D01*
Y14786D01*
X36895Y14773D01*
X36892Y14760D01*
X36890Y14747D01*
X36889Y14735D01*
X36888Y14725D01*
Y14720D01*
X36888Y14717D01*
Y14717D01*
Y14709D01*
X36888Y14691D01*
X36890Y14674D01*
X36893Y14659D01*
X36894Y14652D01*
X36895Y14646D01*
X36897Y14640D01*
X36898Y14635D01*
X36899Y14630D01*
X36901Y14626D01*
X36901Y14623D01*
X36902Y14621D01*
X36903Y14620D01*
Y14619D01*
X36909Y14605D01*
X36916Y14593D01*
X36924Y14582D01*
X36931Y14572D01*
X36937Y14565D01*
X36943Y14559D01*
X36945Y14558D01*
X36947Y14556D01*
X36947Y14555D01*
X36948Y14555D01*
X36956Y14548D01*
X36966Y14542D01*
X36975Y14537D01*
X36984Y14534D01*
X36991Y14531D01*
X36997Y14529D01*
X37000Y14528D01*
X37001D01*
X37002Y14528D01*
X37003D01*
X37012Y14526D01*
X37023Y14524D01*
X37034Y14523D01*
X37045Y14523D01*
X37055Y14522D01*
X37200D01*
Y14900D01*
D02*
G37*
G36*
X36099D02*
Y14660D01*
X36091Y14657D01*
X36082Y14653D01*
X36074Y14649D01*
X36067Y14646D01*
X36060Y14642D01*
X36054Y14640D01*
X36051Y14637D01*
X36051Y14637D01*
X36050D01*
X36040Y14631D01*
X36032Y14625D01*
X36024Y14619D01*
X36018Y14614D01*
X36012Y14611D01*
X36009Y14607D01*
X36006Y14605D01*
X36006Y14605D01*
Y14900D01*
X36099D01*
X35959D01*
Y14521D01*
X35990D01*
X35995Y14530D01*
X36001Y14539D01*
X36008Y14547D01*
X36015Y14555D01*
X36021Y14561D01*
X36026Y14567D01*
X36028Y14569D01*
X36030Y14570D01*
X36030Y14571D01*
X36031Y14571D01*
X36042Y14581D01*
X36054Y14589D01*
X36065Y14597D01*
X36076Y14603D01*
X36085Y14608D01*
X36089Y14611D01*
X36092Y14612D01*
X36095Y14614D01*
X36097Y14614D01*
X36098Y14616D01*
X36099D01*
Y14900D01*
D02*
G37*
G36*
X36436D02*
X36385D01*
Y14729D01*
X36208D01*
Y14684D01*
X36385D01*
Y14567D01*
X36180D01*
Y14900D01*
X36384D01*
X36180D01*
Y14522D01*
X36436D01*
Y14900D01*
D02*
G37*
G36*
X36818D02*
X36486D01*
D01*
X36551Y14797D01*
X36559Y14786D01*
X36566Y14777D01*
X36573Y14768D01*
X36579Y14761D01*
X36585Y14755D01*
X36589Y14751D01*
X36592Y14748D01*
X36593Y14747D01*
X36597Y14744D01*
X36602Y14740D01*
X36612Y14734D01*
X36616Y14732D01*
X36620Y14730D01*
X36622Y14729D01*
X36623Y14728D01*
X36613Y14726D01*
X36604Y14725D01*
X36596Y14722D01*
X36587Y14720D01*
X36580Y14717D01*
X36574Y14714D01*
X36568Y14711D01*
X36562Y14708D01*
X36558Y14705D01*
X36554Y14702D01*
X36550Y14700D01*
X36548Y14698D01*
X36545Y14696D01*
X36544Y14695D01*
X36543Y14694D01*
X36543Y14694D01*
X36538Y14688D01*
X36534Y14683D01*
X36527Y14671D01*
X36523Y14660D01*
X36520Y14649D01*
X36518Y14640D01*
X36517Y14636D01*
Y14632D01*
X36516Y14629D01*
Y14627D01*
Y14626D01*
Y14625D01*
X36517Y14614D01*
X36519Y14604D01*
X36521Y14594D01*
X36524Y14585D01*
X36527Y14578D01*
X36530Y14573D01*
X36532Y14570D01*
X36532Y14569D01*
Y14569D01*
X36539Y14560D01*
X36545Y14552D01*
X36552Y14546D01*
X36559Y14541D01*
X36565Y14537D01*
X36570Y14535D01*
X36573Y14533D01*
X36574Y14533D01*
X36574D01*
X36579Y14531D01*
X36585Y14529D01*
X36597Y14527D01*
X36610Y14525D01*
X36622Y14523D01*
X36634Y14523D01*
X36639D01*
X36643Y14522D01*
X36818D01*
Y14900D01*
D02*
G37*
%LPD*%
G36*
X34244Y15314D02*
X34125D01*
X34111Y15315D01*
X34098Y15317D01*
X34087Y15320D01*
X34079Y15323D01*
X34072Y15326D01*
X34068Y15329D01*
X34065Y15331D01*
X34064Y15332D01*
X34057Y15339D01*
X34052Y15346D01*
X34049Y15354D01*
X34046Y15360D01*
X34045Y15367D01*
X34045Y15372D01*
X34044Y15375D01*
Y15375D01*
Y15376D01*
X34045Y15382D01*
X34046Y15389D01*
X34047Y15394D01*
X34049Y15399D01*
X34051Y15404D01*
X34053Y15407D01*
X34054Y15409D01*
X34054Y15410D01*
X34058Y15415D01*
X34063Y15420D01*
X34068Y15424D01*
X34073Y15427D01*
X34077Y15429D01*
X34081Y15431D01*
X34083Y15432D01*
X34084Y15433D01*
X34092Y15435D01*
X34100Y15437D01*
X34109Y15438D01*
X34118Y15438D01*
X34125Y15439D01*
X34132Y15439D01*
X34244D01*
Y15314D01*
D02*
G37*
G36*
X37150Y15317D02*
X37062D01*
X37055Y15317D01*
X37048D01*
X37042Y15318D01*
X37031Y15320D01*
X37022Y15321D01*
X37015Y15322D01*
X37010Y15324D01*
X37007Y15325D01*
X37006Y15325D01*
X36996Y15330D01*
X36987Y15336D01*
X36979Y15343D01*
X36972Y15350D01*
X36966Y15357D01*
X36962Y15362D01*
X36961Y15364D01*
X36960Y15366D01*
X36959Y15367D01*
Y15368D01*
X36955Y15374D01*
X36952Y15381D01*
X36947Y15395D01*
X36944Y15410D01*
X36941Y15425D01*
X36941Y15432D01*
X36940Y15438D01*
X36940Y15444D01*
Y15449D01*
X36939Y15453D01*
Y15456D01*
Y15458D01*
Y15458D01*
X36940Y15474D01*
X36941Y15488D01*
X36942Y15500D01*
X36944Y15511D01*
X36945Y15516D01*
X36946Y15520D01*
X36947Y15523D01*
X36948Y15526D01*
X36948Y15528D01*
X36949Y15530D01*
X36949Y15531D01*
Y15532D01*
X36953Y15542D01*
X36958Y15551D01*
X36962Y15559D01*
X36967Y15566D01*
X36971Y15572D01*
X36974Y15576D01*
X36976Y15578D01*
X36977Y15579D01*
X36982Y15583D01*
X36988Y15587D01*
X36993Y15590D01*
X36999Y15594D01*
X37003Y15596D01*
X37007Y15598D01*
X37010Y15598D01*
X37011Y15599D01*
X37019Y15601D01*
X37029Y15603D01*
X37039Y15604D01*
X37048Y15604D01*
X37056Y15605D01*
X37060Y15605D01*
X37150D01*
Y15317D01*
D02*
G37*
G36*
X36673D02*
X36548D01*
Y15650D01*
X36673D01*
Y15317D01*
D02*
G37*
G36*
X36448Y15519D02*
X36386Y15459D01*
X36252Y15650D01*
X36448D01*
Y15519D01*
D02*
G37*
G36*
X33456Y15354D02*
X33258Y15650D01*
X33456D01*
Y15354D01*
D02*
G37*
G36*
X33760Y15613D02*
X33769Y15612D01*
X33778Y15610D01*
X33787Y15608D01*
X33795Y15605D01*
X33803Y15601D01*
X33810Y15598D01*
X33816Y15594D01*
X33822Y15590D01*
X33827Y15587D01*
X33831Y15584D01*
X33835Y15581D01*
X33838Y15578D01*
X33840Y15576D01*
X33841Y15575D01*
X33842Y15575D01*
X33848Y15567D01*
X33854Y15559D01*
X33858Y15550D01*
X33863Y15541D01*
X33866Y15532D01*
X33869Y15523D01*
X33874Y15506D01*
X33875Y15498D01*
X33876Y15491D01*
X33877Y15484D01*
X33878Y15479D01*
X33878Y15474D01*
Y15470D01*
Y15468D01*
Y15467D01*
X33878Y15452D01*
X33877Y15438D01*
X33875Y15424D01*
X33872Y15412D01*
X33869Y15401D01*
X33866Y15391D01*
X33862Y15382D01*
X33859Y15374D01*
X33855Y15367D01*
X33852Y15361D01*
X33849Y15356D01*
X33846Y15352D01*
X33843Y15349D01*
X33842Y15347D01*
X33840Y15346D01*
X33840Y15345D01*
X33833Y15339D01*
X33825Y15333D01*
X33818Y15328D01*
X33809Y15324D01*
X33802Y15321D01*
X33794Y15317D01*
X33780Y15313D01*
X33773Y15312D01*
X33767Y15311D01*
X33762Y15310D01*
X33757Y15309D01*
X33754Y15309D01*
X33749D01*
X33735Y15309D01*
X33722Y15311D01*
X33711Y15315D01*
X33701Y15318D01*
X33693Y15322D01*
X33689Y15323D01*
X33686Y15325D01*
X33684Y15326D01*
X33682Y15327D01*
X33682Y15328D01*
X33681D01*
X33671Y15336D01*
X33661Y15344D01*
X33653Y15353D01*
X33647Y15362D01*
X33642Y15369D01*
X33638Y15376D01*
X33637Y15378D01*
X33636Y15380D01*
X33635Y15381D01*
Y15381D01*
X33630Y15394D01*
X33626Y15409D01*
X33623Y15422D01*
X33622Y15434D01*
X33620Y15440D01*
X33620Y15445D01*
Y15450D01*
X33619Y15454D01*
Y15457D01*
Y15459D01*
Y15461D01*
Y15462D01*
X33620Y15475D01*
X33621Y15487D01*
X33623Y15499D01*
X33625Y15510D01*
X33628Y15520D01*
X33631Y15529D01*
X33634Y15538D01*
X33637Y15546D01*
X33641Y15552D01*
X33644Y15558D01*
X33647Y15563D01*
X33650Y15567D01*
X33653Y15570D01*
X33654Y15573D01*
X33655Y15574D01*
X33656Y15575D01*
X33663Y15582D01*
X33671Y15588D01*
X33678Y15593D01*
X33686Y15598D01*
X33694Y15601D01*
X33702Y15604D01*
X33709Y15607D01*
X33717Y15609D01*
X33723Y15611D01*
X33730Y15612D01*
X33735Y15613D01*
X33740Y15613D01*
X33744D01*
X33747Y15614D01*
X33749D01*
X33760Y15613D01*
D02*
G37*
G36*
X35142Y14730D02*
X35152Y14727D01*
X35161Y14724D01*
X35169Y14719D01*
X35175Y14715D01*
X35180Y14712D01*
X35183Y14709D01*
X35184Y14708D01*
X35191Y14700D01*
X35197Y14690D01*
X35200Y14680D01*
X35203Y14671D01*
X35204Y14662D01*
X35205Y14659D01*
Y14656D01*
X35205Y14653D01*
Y14652D01*
Y14650D01*
Y14650D01*
X35204Y14636D01*
X35202Y14623D01*
X35198Y14611D01*
X35194Y14602D01*
X35190Y14594D01*
X35186Y14589D01*
X35185Y14587D01*
X35184Y14585D01*
X35183Y14585D01*
Y14584D01*
X35179Y14580D01*
X35174Y14576D01*
X35165Y14570D01*
X35156Y14565D01*
X35147Y14562D01*
X35140Y14560D01*
X35134Y14559D01*
X35132Y14559D01*
X35123D01*
X35118Y14560D01*
X35108Y14563D01*
X35099Y14566D01*
X35091Y14570D01*
X35085Y14575D01*
X35081Y14578D01*
X35078Y14581D01*
X35077Y14582D01*
Y14582D01*
X35070Y14592D01*
X35065Y14602D01*
X35061Y14613D01*
X35059Y14623D01*
X35057Y14632D01*
X35056Y14636D01*
Y14640D01*
X35056Y14642D01*
Y14644D01*
Y14646D01*
Y14646D01*
X35057Y14660D01*
X35059Y14673D01*
X35062Y14683D01*
X35066Y14692D01*
X35071Y14699D01*
X35074Y14704D01*
X35076Y14707D01*
X35077Y14708D01*
X35085Y14716D01*
X35094Y14721D01*
X35103Y14725D01*
X35112Y14728D01*
X35119Y14730D01*
X35125Y14730D01*
X35127Y14731D01*
X35130D01*
X35142Y14730D01*
D02*
G37*
G36*
X35429Y14868D02*
X35435Y14867D01*
X35445Y14863D01*
X35454Y14858D01*
X35463Y14853D01*
X35469Y14848D01*
X35474Y14843D01*
X35476Y14839D01*
X35477Y14838D01*
Y14838D01*
X35481Y14831D01*
X35484Y14824D01*
X35488Y14815D01*
X35490Y14806D01*
X35492Y14796D01*
X35494Y14785D01*
X35496Y14764D01*
X35498Y14754D01*
X35498Y14745D01*
X35499Y14736D01*
Y14729D01*
X35499Y14723D01*
Y14718D01*
Y14715D01*
Y14714D01*
X35499Y14697D01*
X35498Y14682D01*
X35497Y14667D01*
X35495Y14654D01*
X35494Y14643D01*
X35492Y14632D01*
X35489Y14623D01*
X35487Y14615D01*
X35485Y14608D01*
X35483Y14602D01*
X35481Y14597D01*
X35480Y14593D01*
X35478Y14590D01*
X35477Y14588D01*
X35476Y14587D01*
Y14586D01*
X35472Y14581D01*
X35468Y14577D01*
X35464Y14573D01*
X35459Y14570D01*
X35451Y14565D01*
X35442Y14562D01*
X35435Y14560D01*
X35429Y14559D01*
X35427Y14559D01*
X35424D01*
X35418Y14559D01*
X35412Y14560D01*
X35406Y14561D01*
X35401Y14564D01*
X35392Y14569D01*
X35384Y14574D01*
X35378Y14580D01*
X35373Y14585D01*
X35371Y14587D01*
X35370Y14589D01*
X35369Y14589D01*
Y14590D01*
X35365Y14596D01*
X35362Y14604D01*
X35359Y14613D01*
X35357Y14622D01*
X35355Y14632D01*
X35353Y14642D01*
X35350Y14663D01*
X35349Y14673D01*
X35349Y14683D01*
X35348Y14691D01*
Y14699D01*
X35347Y14705D01*
Y14710D01*
Y14713D01*
Y14713D01*
Y14714D01*
Y14731D01*
X35349Y14746D01*
X35350Y14760D01*
X35351Y14773D01*
X35352Y14784D01*
X35355Y14794D01*
X35357Y14803D01*
X35358Y14811D01*
X35361Y14818D01*
X35363Y14823D01*
X35364Y14828D01*
X35367Y14832D01*
X35368Y14834D01*
X35369Y14836D01*
X35370Y14837D01*
Y14838D01*
X35374Y14843D01*
X35379Y14848D01*
X35383Y14852D01*
X35387Y14855D01*
X35397Y14861D01*
X35405Y14865D01*
X35412Y14867D01*
X35418Y14868D01*
X35420Y14868D01*
X35423D01*
X35429Y14868D01*
D02*
G37*
G36*
X35720D02*
X35727Y14867D01*
X35733Y14865D01*
X35739Y14862D01*
X35744Y14861D01*
X35748Y14858D01*
X35750Y14857D01*
X35751Y14857D01*
X35757Y14852D01*
X35763Y14847D01*
X35768Y14841D01*
X35772Y14836D01*
X35775Y14831D01*
X35777Y14827D01*
X35779Y14825D01*
X35779Y14824D01*
X35783Y14815D01*
X35785Y14807D01*
X35787Y14800D01*
X35788Y14792D01*
X35789Y14786D01*
X35789Y14782D01*
Y14779D01*
Y14778D01*
X35788Y14765D01*
X35786Y14753D01*
X35782Y14743D01*
X35778Y14735D01*
X35774Y14727D01*
X35771Y14723D01*
X35768Y14720D01*
X35767Y14719D01*
X35759Y14711D01*
X35750Y14706D01*
X35741Y14701D01*
X35732Y14699D01*
X35725Y14697D01*
X35719Y14696D01*
X35717Y14696D01*
X35714D01*
X35702Y14697D01*
X35692Y14700D01*
X35683Y14703D01*
X35676Y14707D01*
X35670Y14712D01*
X35665Y14715D01*
X35662Y14718D01*
X35661Y14719D01*
X35654Y14728D01*
X35649Y14738D01*
X35645Y14748D01*
X35643Y14758D01*
X35641Y14767D01*
X35641Y14771D01*
Y14774D01*
X35640Y14777D01*
Y14779D01*
Y14780D01*
Y14780D01*
X35641Y14795D01*
X35643Y14808D01*
X35647Y14819D01*
X35650Y14828D01*
X35655Y14835D01*
X35658Y14840D01*
X35660Y14844D01*
X35661Y14844D01*
Y14845D01*
X35665Y14849D01*
X35670Y14852D01*
X35678Y14858D01*
X35687Y14862D01*
X35695Y14866D01*
X35702Y14867D01*
X35707Y14868D01*
X35709Y14868D01*
X35712D01*
X35720Y14868D01*
D02*
G37*
G36*
X37150Y14567D02*
X37062D01*
X37055Y14567D01*
X37048D01*
X37042Y14568D01*
X37031Y14570D01*
X37022Y14571D01*
X37015Y14572D01*
X37010Y14574D01*
X37007Y14575D01*
X37006Y14575D01*
X36996Y14580D01*
X36987Y14586D01*
X36979Y14593D01*
X36972Y14600D01*
X36966Y14607D01*
X36962Y14612D01*
X36961Y14614D01*
X36960Y14616D01*
X36959Y14617D01*
Y14618D01*
X36955Y14624D01*
X36952Y14631D01*
X36947Y14645D01*
X36944Y14660D01*
X36941Y14675D01*
X36941Y14682D01*
X36940Y14688D01*
X36940Y14694D01*
Y14699D01*
X36939Y14703D01*
Y14706D01*
Y14708D01*
Y14708D01*
X36940Y14724D01*
X36941Y14738D01*
X36942Y14750D01*
X36944Y14761D01*
X36945Y14766D01*
X36946Y14770D01*
X36947Y14773D01*
X36948Y14776D01*
X36948Y14778D01*
X36949Y14780D01*
X36949Y14781D01*
Y14782D01*
X36953Y14792D01*
X36958Y14801D01*
X36962Y14809D01*
X36967Y14816D01*
X36971Y14822D01*
X36974Y14826D01*
X36976Y14828D01*
X36977Y14829D01*
X36982Y14833D01*
X36988Y14837D01*
X36993Y14840D01*
X36999Y14844D01*
X37003Y14846D01*
X37007Y14848D01*
X37010Y14848D01*
X37011Y14849D01*
X37019Y14851D01*
X37029Y14852D01*
X37039Y14854D01*
X37048Y14854D01*
X37056Y14855D01*
X37060Y14855D01*
X37150D01*
Y14567D01*
D02*
G37*
G36*
X36768Y14732D02*
X36704D01*
X36698Y14733D01*
X36693D01*
X36689Y14733D01*
X36687Y14734D01*
X36685D01*
X36683Y14735D01*
X36683D01*
X36674Y14737D01*
X36670Y14739D01*
X36667Y14741D01*
X36664Y14742D01*
X36662Y14743D01*
X36661Y14744D01*
X36660Y14744D01*
X36656Y14748D01*
X36651Y14751D01*
X36643Y14760D01*
X36639Y14763D01*
X36637Y14767D01*
X36635Y14769D01*
X36634Y14770D01*
X36629Y14777D01*
X36623Y14785D01*
X36617Y14794D01*
X36611Y14802D01*
X36606Y14810D01*
X36602Y14816D01*
X36600Y14818D01*
X36599Y14820D01*
X36598Y14821D01*
Y14821D01*
X36549Y14900D01*
X36768D01*
Y14732D01*
D02*
G37*
G36*
Y14564D02*
X36649D01*
X36634Y14565D01*
X36622Y14567D01*
X36611Y14570D01*
X36603Y14573D01*
X36596Y14576D01*
X36591Y14579D01*
X36588Y14581D01*
X36587Y14582D01*
X36581Y14589D01*
X36576Y14596D01*
X36573Y14604D01*
X36570Y14610D01*
X36569Y14617D01*
X36568Y14622D01*
X36568Y14625D01*
Y14625D01*
Y14626D01*
X36568Y14632D01*
X36569Y14639D01*
X36571Y14644D01*
X36573Y14649D01*
X36575Y14654D01*
X36576Y14657D01*
X36578Y14659D01*
X36578Y14660D01*
X36582Y14665D01*
X36587Y14670D01*
X36592Y14674D01*
X36597Y14677D01*
X36601Y14679D01*
X36604Y14681D01*
X36607Y14682D01*
X36608Y14683D01*
X36615Y14685D01*
X36624Y14687D01*
X36633Y14688D01*
X36641Y14688D01*
X36649Y14689D01*
X36656Y14689D01*
X36768D01*
Y14564D01*
D02*
G37*
D10*
X26696Y11686D02*
G03*
X26696Y11686I-729J0D01*
G01*
D11*
X22661Y10783D02*
X24925D01*
X24256D02*
Y11147D01*
X24650D01*
Y10783D02*
Y11147D01*
Y17269D02*
Y17633D01*
X22661D02*
X24925D01*
X22661Y10783D02*
Y17633D01*
X24925Y10783D02*
Y17633D01*
X24256Y17269D02*
X24650D01*
X24256D02*
Y17633D01*
X22661Y16176D02*
X24925D01*
X23250Y20544D02*
X25050D01*
X23250Y18344D02*
X25050D01*
X22750Y19044D02*
Y19844D01*
X25550Y19044D02*
Y19844D01*
X24850Y19654D02*
Y19944D01*
X23450D02*
X24850D01*
X23450Y19654D02*
Y19944D01*
X23850Y19044D02*
X24440D01*
X24150Y19244D02*
Y19504D01*
Y19684D02*
Y19944D01*
X34600Y20544D02*
X36400D01*
X34600Y18344D02*
X36400D01*
X34100Y19044D02*
Y19844D01*
X36900Y19044D02*
Y19844D01*
X36200Y19654D02*
Y19944D01*
X34800D02*
X36200D01*
X34800Y19654D02*
Y19944D01*
X35200Y19044D02*
X35790D01*
X35500Y19244D02*
Y19504D01*
Y19684D02*
Y19944D01*
X21700Y11350D02*
Y10850D01*
X21800Y10750D01*
X22000D01*
X22100Y10850D01*
Y11350D01*
X22300Y10750D02*
X22500D01*
X22400D01*
Y11350D01*
X22300Y11250D01*
X26250Y18600D02*
X26650D01*
Y18500D01*
X26250Y18100D01*
Y18000D01*
X26650D01*
X26850Y18600D02*
X27250D01*
X27050D01*
Y18000D01*
X27450Y18600D02*
X27850Y18000D01*
Y18600D02*
X27450Y18000D01*
X28050D02*
X28250D01*
X28150D01*
Y18600D01*
X28050Y18500D01*
X30000Y18600D02*
X30400D01*
Y18500D01*
X30000Y18100D01*
Y18000D01*
X30400D01*
X30600D02*
Y18600D01*
X30900D01*
X31000Y18500D01*
Y18300D01*
X30900Y18200D01*
X30600D01*
X30800D02*
X31000Y18000D01*
X31200Y18600D02*
X31600Y18000D01*
Y18600D02*
X31200Y18000D01*
X31800D02*
X32000D01*
X31900D01*
Y18600D01*
X31800Y18500D01*
X33845Y21639D02*
X34245D01*
Y21539D01*
X33845Y21139D01*
Y21039D01*
X34245D01*
X34445D02*
Y21639D01*
X34745D01*
X34845Y21539D01*
Y21339D01*
X34745Y21239D01*
X34445D01*
X34645D02*
X34845Y21039D01*
X35345D02*
X35145D01*
X35045Y21139D01*
Y21339D01*
X35145Y21439D01*
X35345D01*
X35444Y21339D01*
Y21239D01*
X35045D01*
X35644Y21039D02*
X35844D01*
X35744D01*
Y21639D01*
X35644Y21539D01*
X22495Y21839D02*
X22895D01*
Y21739D01*
X22495Y21339D01*
Y21239D01*
X22895D01*
X23095D02*
Y21839D01*
Y21439D02*
X23395Y21639D01*
X23095Y21439D02*
X23395Y21239D01*
X23995D02*
X23795D01*
X23695Y21339D01*
Y21539D01*
X23795Y21639D01*
X23995D01*
X24094Y21539D01*
Y21439D01*
X23695D01*
X24294Y21639D02*
Y21339D01*
X24394Y21239D01*
X24694D01*
Y21139D01*
X24594Y21039D01*
X24494D01*
X24694Y21239D02*
Y21639D01*
X24894Y21239D02*
X25094D01*
X24994D01*
Y21839D01*
X24894Y21739D01*
X28350Y18000D02*
Y18600D01*
X28650D01*
X28750Y18500D01*
Y18300D01*
X28650Y18200D01*
X28350D01*
X28550D02*
X28750Y18000D01*
X29350D02*
X28950D01*
X29350Y18400D01*
Y18500D01*
X29250Y18600D01*
X29050D01*
X28950Y18500D01*
X32150Y18000D02*
Y18600D01*
X32450D01*
X32550Y18500D01*
Y18300D01*
X32450Y18200D01*
X32150D01*
X32350D02*
X32550Y18000D01*
X32750D02*
X32950D01*
X32850D01*
Y18600D01*
X32750Y18500D01*
X25300Y16250D02*
Y16850D01*
X25600D01*
X25700Y16750D01*
Y16550D01*
X25600Y16450D01*
X25300D01*
X25900Y16250D02*
X26100D01*
X26000D01*
Y16850D01*
X25900Y16750D01*
X19050Y10525D02*
Y21800D01*
X19700Y22450D02*
X38808Y22450D01*
X19725Y9850D02*
X38825Y9850D01*
X39500Y10525D02*
Y21750D01*
X38808Y22450D02*
X38825Y22433D01*
Y22425D02*
X39500Y21750D01*
X38825Y9875D02*
X39475Y10525D01*
X19075D02*
X19725Y9875D01*
X19050Y21800D02*
X19700Y22450D01*
X19900D01*
X19700D02*
X19750D01*
D12*
X31331Y17100D02*
X32463D01*
X27335D02*
X31331D01*
X27365Y10800D02*
X31479D01*
X25219Y14265D02*
Y16982D01*
X26361Y14265D02*
Y16982D01*
X25219D02*
X26361D01*
X25101Y10800D02*
Y17100D01*
X36420Y10800D02*
X37699D01*
Y17100D01*
X25258Y14226D02*
X26361D01*
X25101Y10800D02*
X27365D01*
X31498D02*
X34412D01*
X32463Y17100D02*
X37699D01*
X25101D02*
X27365D01*
X34412Y10800D02*
X36420D01*
D13*
X26300Y17900D02*
X27000D01*
X26300Y17200D02*
Y17900D01*
Y17200D02*
X27000D01*
X27400Y17900D02*
X28250D01*
Y17200D02*
Y17900D01*
X27400Y17200D02*
X28250D01*
X28100D02*
Y17900D01*
X28340Y17190D02*
Y17910D01*
X29960D01*
Y17190D02*
Y17910D01*
X28340Y17190D02*
X29960D01*
X30050Y17900D02*
X30750D01*
X30050Y17200D02*
Y17900D01*
Y17200D02*
X30750D01*
X31150Y17900D02*
X32000D01*
Y17200D02*
Y17900D01*
X31150Y17200D02*
X32000D01*
X31850D02*
Y17900D01*
X32090Y17190D02*
Y17910D01*
X33710D01*
Y17190D02*
Y17910D01*
X32090Y17190D02*
X33710D01*
M02*
