M48
;Layer_Color=9474304
;FILE_FORMAT=2:4
INCH,LZ
;TYPE=PLATED
T1F00S00C0.0280
T2F00S00C0.0394
;TYPE=NON_PLATED
T3F00S00C0.1181
%
T01
X027279Y015329
X0314Y0139
X0318Y0169
T02
X024Y011747
Y012731
Y013716
Y0147
X027928Y01145
X028928
X029928
X030928
X034161Y018558
Y02033
X036839
Y018558
X030928Y01645
X029928
X028928
X027928
X024Y016668
Y015684
X022811Y018558
Y02033
X025489
Y018558
T03
X0204Y01095
X0384
Y0212
X0204
M30
