M48
;Layer_Color=9474304
;FILE_FORMAT=2:4
INCH,LZ
;TYPE=PLATED
T1F00S00C0.0280
T2F00S00C0.0354
T3F00S00C0.0394
T4F00S00C0.0591
T5F00S00C0.0630
T6F00S00C0.0709
T7F00S00C0.1181
;TYPE=NON_PLATED
T8F00S00C0.1575
%
T01
X0208Y01155
X0268Y01505
X02925Y0136
X04745Y01385
X04835Y0156
X05205Y0146
X05705Y0138
X05605Y0229
X0502Y02125
Y0202
X04745Y01565
Y029875
X04835Y0299
X03885Y0285
X0356Y0281
X034Y0287
X0327Y029213
X03Y02875
X0302Y0281
X02965Y02935
X0277Y02485
X02545Y0248
X02925Y01585
X02765Y0315
X02675Y0317
X02545Y03165
X02155Y0349
X01995Y03485
X0207Y04295
X02675Y041
X03475Y0432
X03965Y04565
X0421Y0457
X0421Y0445
X041Y04195
X0376Y03255
X04855Y03495
X05Y0375
X05435Y04155
X05705Y04525
T02
X02665Y04665
X02965
X048666Y04
X050634
X05305Y041366
Y04235
T03
X053383Y017981
Y018966
Y01995
Y020934
Y021918
Y022903
Y025947
Y026932
Y027916
Y0289
Y029884
Y030868
X044595Y030667
X043595
X042595
X041595
X040595
X039595
X03765Y03095
X03665
X03565
X03465
X03365
X033955Y027033
X032955
X034955
X035955
X036955
X037955
X0399Y02675
X0409
X0419
X0429
X0439
X045727Y02338
Y02238
Y02138
X03175
Y02238
Y02338
X02305Y025731
Y026716
Y0277
Y028684
Y029669
Y030653
X02315Y033916
Y0349
Y035884
Y036869
Y037853
Y038837
X031823Y03632
Y03532
Y03432
X0458
Y03532
Y03632
X0537Y036734
Y037719
Y038703
Y03575
Y034766
Y033781
X04905Y044866
Y04585
T04
X0485Y037639
Y0426
T05
X0313Y040128
T06
X0313Y0419
T07
X0245Y012725
X0533
X0245Y044875
X0533
T08
X031491Y012514
X045987
X045987Y02701
X046059Y03069
X031563
X031491Y02701
X031563Y045186
X046059
M30
