G04*
G04 #@! TF.GenerationSoftware,Altium Limited,Altium Designer,20.0.10 (225)*
G04*
G04 Layer_Color=32896*
%FSLAX24Y24*%
%MOIN*%
G70*
G01*
G75*
%ADD10C,0.0100*%
%ADD11C,0.0050*%
%ADD64C,0.0197*%
D10*
X47752Y41470D02*
X49248D01*
X47752Y41370D02*
X49248D01*
X47752Y38427D02*
X49248D01*
X47752Y41813D02*
X49248D01*
Y38427D02*
Y41813D01*
X47752Y41270D02*
X49248D01*
X47752Y38427D02*
Y41813D01*
X37500Y42223D02*
Y43109D01*
X41800D01*
Y42223D02*
Y43109D01*
X29600Y44000D02*
X30800D01*
Y43600D02*
Y44000D01*
Y43600D02*
X33200D01*
Y43100D02*
Y43600D01*
X29600Y43100D02*
Y44000D01*
X33200Y40700D02*
Y42000D01*
Y38100D02*
Y39600D01*
X29500Y38100D02*
X33200D01*
X29500D02*
Y39600D01*
Y40700D02*
Y42000D01*
X41750Y46070D02*
Y45570D01*
X41650Y45470D01*
X41450D01*
X41350Y45570D01*
Y46070D01*
X41150Y45470D02*
X40950D01*
X41050D01*
Y46070D01*
X41150Y45970D01*
X29400Y44350D02*
Y44950D01*
X29100D01*
X29000Y44850D01*
Y44650D01*
X29100Y44550D01*
X29400D01*
X28800Y44350D02*
X28600D01*
X28700D01*
Y44950D01*
X28800Y44850D01*
X48400Y36310D02*
Y36910D01*
X48700D01*
X48800Y36810D01*
Y36410D01*
X48700Y36310D01*
X48400D01*
X49000Y36910D02*
X49200D01*
X49100D01*
Y36310D01*
X49000Y36410D01*
X37490Y33740D02*
X37590Y33840D01*
X37790D01*
X37890Y33740D01*
Y33340D01*
X37790Y33240D01*
X37590D01*
X37490Y33340D01*
X36890Y33840D02*
X37290D01*
Y33540D01*
X37090Y33640D01*
X36990D01*
X36890Y33540D01*
Y33340D01*
X36990Y33240D01*
X37190D01*
X37290Y33340D01*
X39500Y27500D02*
X39400Y27400D01*
X39200D01*
X39100Y27500D01*
Y27900D01*
X39200Y28000D01*
X39400D01*
X39500Y27900D01*
X40000Y28000D02*
Y27400D01*
X39700Y27700D01*
X40100D01*
X44250Y29000D02*
X44350Y29100D01*
X44550D01*
X44650Y29000D01*
Y28600D01*
X44550Y28500D01*
X44350D01*
X44250Y28600D01*
X43650Y28500D02*
X44050D01*
X43650Y28900D01*
Y29000D01*
X43750Y29100D01*
X43950D01*
X44050Y29000D01*
X32810Y33430D02*
X32910Y33530D01*
X33110D01*
X33210Y33430D01*
Y33030D01*
X33110Y32930D01*
X32910D01*
X32810Y33030D01*
X32610Y32930D02*
X32410D01*
X32510D01*
Y33530D01*
X32610Y33430D01*
X58276Y8824D02*
Y47800D01*
X19300Y8824D02*
X58276D01*
X19300D02*
Y47800D01*
X58276D01*
D11*
X38490Y28860D02*
X40110D01*
Y28140D02*
Y28860D01*
X38490Y28140D02*
X40110D01*
X38490D02*
Y28860D01*
X43590Y28410D02*
X45210D01*
Y27690D02*
Y28410D01*
X43590Y27690D02*
X45210D01*
X43590D02*
Y28410D01*
X32340Y31890D02*
X33960D01*
X32340D02*
Y32610D01*
X33960D01*
Y31890D02*
Y32610D01*
X36340Y32190D02*
X37960D01*
X36340D02*
Y32910D01*
X37960D01*
Y32190D02*
Y32910D01*
D64*
X37829Y44650D02*
G03*
X37829Y44650I-79J0D01*
G01*
M02*
