G04*
G04 #@! TF.GenerationSoftware,Altium Limited,Altium Designer,20.0.10 (225)*
G04*
G04 Layer_Physical_Order=1*
G04 Layer_Color=255*
%FSLAX24Y24*%
%MOIN*%
G70*
G01*
G75*
%ADD10C,0.0100*%
%ADD17R,0.0600X0.0500*%
G04:AMPARAMS|DCode=18|XSize=60mil|YSize=50mil|CornerRadius=0mil|HoleSize=0mil|Usage=FLASHONLY|Rotation=0.000|XOffset=0mil|YOffset=0mil|HoleType=Round|Shape=Octagon|*
%AMOCTAGOND18*
4,1,8,0.0300,-0.0125,0.0300,0.0125,0.0175,0.0250,-0.0175,0.0250,-0.0300,0.0125,-0.0300,-0.0125,-0.0175,-0.0250,0.0175,-0.0250,0.0300,-0.0125,0.0*
%
%ADD18OCTAGOND18*%

%ADD19R,0.0500X0.0500*%
%ADD20R,0.0500X0.0500*%
%ADD21R,0.2165X0.0315*%
%ADD22R,0.1181X0.0591*%
%ADD41C,0.0600*%
%ADD42C,0.0300*%
%ADD43C,0.0200*%
%ADD44C,0.0400*%
%ADD45R,0.0984X0.0709*%
%ADD46O,0.0984X0.0709*%
%ADD47C,0.0709*%
%ADD48C,0.0591*%
%ADD49C,0.0787*%
%ADD50R,0.0669X0.0669*%
%ADD51C,0.0669*%
%ADD52R,0.0709X0.0709*%
%ADD53C,0.1772*%
%ADD54C,0.2000*%
%ADD55C,0.0500*%
%ADD56C,0.0630*%
D10*
X58276Y8824D02*
Y47800D01*
X19300Y8824D02*
X58276D01*
X19300D02*
Y47800D01*
X58276D01*
D17*
X33750Y47100D02*
D03*
D18*
X34750D02*
D03*
D19*
X32539D02*
D03*
X31639D02*
D03*
D20*
X49400Y21150D02*
D03*
Y20250D02*
D03*
D21*
X21750Y13887D02*
D03*
Y13100D02*
D03*
Y10738D02*
D03*
Y11525D02*
D03*
Y12313D02*
D03*
Y14675D02*
D03*
X21600Y45287D02*
D03*
Y44500D02*
D03*
Y42138D02*
D03*
Y42925D02*
D03*
Y43713D02*
D03*
Y46075D02*
D03*
X56100Y42888D02*
D03*
Y43675D02*
D03*
Y46037D02*
D03*
Y45250D02*
D03*
Y44463D02*
D03*
Y42100D02*
D03*
Y11425D02*
D03*
Y12213D02*
D03*
Y14575D02*
D03*
Y13787D02*
D03*
Y13000D02*
D03*
Y10638D02*
D03*
D22*
X20850Y15881D02*
D03*
X20869Y9531D02*
D03*
X20700Y47281D02*
D03*
X20719Y40931D02*
D03*
X57000Y40894D02*
D03*
X56981Y47244D02*
D03*
X57000Y9431D02*
D03*
X56981Y15781D02*
D03*
D41*
X51150Y37500D02*
X53050Y39400D01*
X50400Y36700D02*
X51175Y37475D01*
X48720Y39930D02*
Y39946D01*
X48666Y40000D02*
X48720Y39946D01*
Y39930D02*
X51225Y37425D01*
X53050Y39400D02*
Y41366D01*
X48317Y36700D02*
X50400D01*
X38841Y34450D02*
X38841D01*
X42091Y37700D02*
X47317D01*
X38841Y34450D02*
X42091Y37700D01*
X47317D02*
X48317Y36700D01*
X38841Y28500D02*
Y34450D01*
Y27809D02*
Y28500D01*
X49067Y38433D02*
X50000Y37500D01*
X36083Y38433D02*
X49067D01*
X55957Y41958D02*
X56100Y42100D01*
X37650Y32550D02*
Y33899D01*
Y30950D02*
Y32550D01*
X55317Y41958D02*
X55957D01*
X54910Y41550D02*
X55317Y41958D01*
X54350Y41550D02*
X54910D01*
X41000Y41950D02*
X42100Y43050D01*
Y44500D01*
X42200Y45700D02*
X47892Y40008D01*
X42100Y45700D02*
X42200D01*
X47892Y40008D02*
X48658D01*
X38350Y46550D02*
X54300D01*
X35650Y43850D02*
X38350Y46550D01*
X54300D02*
X54800Y46050D01*
X56087D01*
X56100Y46037D01*
X51050Y17000D02*
Y25150D01*
X35250Y37600D02*
X36083Y38433D01*
X31823Y34320D02*
X31853D01*
X32098Y34566D01*
X32136D01*
X35170Y37600D01*
X35250D01*
X37650Y33899D02*
X38201Y34450D01*
X38841D01*
X34303Y38800D02*
X35299D01*
X35650Y39151D01*
Y43850D01*
X31823Y36320D02*
X34303Y38800D01*
X38841Y27809D02*
X39900Y26750D01*
X51050Y15100D02*
Y17000D01*
X51847Y25947D02*
X53383D01*
X51050Y25150D02*
X51847Y25947D01*
X53383D02*
Y26932D01*
Y27916D01*
Y28900D01*
Y29884D01*
Y30868D01*
D42*
X44595Y30667D02*
Y31545D01*
X42595Y31895D02*
X43326Y32626D01*
X44426Y32226D02*
X50076D01*
X44876Y31826D02*
X50376D01*
X44595Y31545D02*
X44876Y31826D01*
X43671Y31471D02*
X44426Y32226D01*
X50076D02*
X52616Y34766D01*
X43326Y32626D02*
X49276D01*
X52400Y35750D01*
X42250Y33050D02*
X48894D01*
X53562Y37719D01*
X41595Y32395D02*
X42250Y33050D01*
X48409Y33550D02*
X53562Y38703D01*
X40595Y32295D02*
X41850Y33550D01*
X48409D01*
X52332Y33781D02*
X53700D01*
X50376Y31826D02*
X52332Y33781D01*
X43595Y30667D02*
X43671Y30743D01*
Y31471D01*
X52616Y34766D02*
X53700D01*
X42595Y30667D02*
Y31895D01*
X52400Y35750D02*
X53700D01*
X39595Y30667D02*
X39600Y30672D01*
Y33900D01*
X46074Y36900D02*
X46600D01*
X46050Y36924D02*
X46074Y36900D01*
X42624Y36924D02*
X46050D01*
X39600Y33900D02*
X42624Y36924D01*
X46600Y36900D02*
X48550Y34950D01*
X41595Y30667D02*
Y32395D01*
X53562Y37719D02*
X53700D01*
X40595Y30667D02*
Y32295D01*
X53562Y38703D02*
X53700D01*
X51200Y15050D02*
Y15100D01*
X56433Y41566D02*
X57159D01*
X56100Y42888D02*
X56107Y42880D01*
X56159Y40465D02*
X56850Y39774D01*
X51200Y11276D02*
Y15050D01*
X56159Y41293D02*
X56433Y41566D01*
X56107Y42880D02*
X57033D01*
X57433Y41839D02*
Y42480D01*
X57033Y42880D02*
X57433Y42480D01*
X56159Y40465D02*
Y41293D01*
X57159Y41566D02*
X57433Y41839D01*
X23468Y29350D02*
X29650D01*
X23419Y29300D02*
X23468Y29350D01*
X23050Y30653D02*
X29797D01*
X30428Y29995D02*
Y30022D01*
X29797Y30653D02*
X30428Y30022D01*
Y29995D02*
X32904Y27519D01*
Y27085D02*
Y27519D01*
Y27085D02*
X32955Y27033D01*
X32700Y29200D02*
X33942Y27958D01*
X32700Y29200D02*
Y29213D01*
X33942Y27047D02*
Y27958D01*
X34000Y28700D02*
X34955Y27745D01*
Y27033D02*
Y27745D01*
X36889Y28100D02*
X37955Y27033D01*
X35600Y28100D02*
X36889D01*
X33942Y27047D02*
X33955Y27033D01*
X29934Y28684D02*
X30000Y28750D01*
X23050Y28684D02*
X29934D01*
X23255Y27700D02*
X23655Y28100D01*
X30200D01*
X55175Y11425D02*
X56100D01*
X55167Y11418D02*
X55175Y11425D01*
X55167Y11276D02*
Y11418D01*
X54992Y11100D02*
X55167Y11276D01*
X51376Y11100D02*
X54992D01*
X51200Y11276D02*
X51376Y11100D01*
X51200Y15100D02*
X51200Y15100D01*
Y16850D01*
X24457Y14450D02*
X50650D01*
X51044Y14844D01*
Y15044D01*
X51050Y15050D01*
X23895Y13887D02*
X24457Y14450D01*
X26838Y15088D02*
X26980D01*
X26991Y15100D01*
X26800Y15050D02*
X26838Y15088D01*
X26991Y15100D02*
X51050D01*
X26750Y41000D02*
Y44664D01*
X23982Y46125D02*
X25289D01*
X26750Y44664D01*
X30376Y25474D02*
X35396D01*
X30119Y25731D02*
X30376Y25474D01*
X30726Y25874D02*
X34796D01*
X35955Y27033D01*
X29884Y26716D02*
X30726Y25874D01*
X35396Y25474D02*
X36955Y27033D01*
X23050Y25731D02*
X30119D01*
X23050Y26716D02*
X29884D01*
X21750Y13887D02*
X23895D01*
X56000Y31500D02*
X56850Y32350D01*
Y39774D01*
X51050Y17000D02*
X51200Y16850D01*
X23145Y45287D02*
X23982Y46125D01*
X21600Y45287D02*
X23145D01*
X53350Y30902D02*
X53383Y30868D01*
X53350Y30902D02*
Y31300D01*
X53550Y31500D01*
X56000D01*
X23050Y29669D02*
X23419Y29300D01*
X35955Y27033D02*
X35955D01*
X23050Y27700D02*
X23255D01*
D43*
X30202Y47100D02*
X31639D01*
X29752Y46650D02*
X30202Y47100D01*
X29650Y46650D02*
X29752D01*
X21600Y34850D02*
X23100D01*
X21550Y34900D02*
X21600Y34850D01*
X56087Y12200D02*
X56100Y12213D01*
X54850Y12200D02*
X56087D01*
X54250Y11650D02*
X54300D01*
X54850Y12200D01*
X51600Y11817D02*
Y16732D01*
Y11817D02*
X51892Y11525D01*
X54125D01*
X54250Y11650D01*
X51800Y16932D02*
Y19250D01*
X51600Y16732D02*
X51800Y16932D01*
X52500Y19950D02*
X53383D01*
X51800Y19250D02*
X52500Y19950D01*
X50175Y20225D02*
X50200Y20200D01*
X56100Y13000D02*
X57250D01*
X57772Y13522D01*
X57767Y16164D02*
X57772Y16159D01*
X57767Y16164D02*
Y16583D01*
X53416Y20934D02*
X57767Y16583D01*
X57772Y13522D02*
Y16159D01*
X53383Y20934D02*
X53416D01*
X49400Y20250D02*
X49425Y20225D01*
X50019Y21150D02*
X50119Y21250D01*
X50200D01*
X32539Y47100D02*
X33689D01*
X19759Y12941D02*
Y30334D01*
X20186Y30760D01*
X19759Y12941D02*
X20367Y12333D01*
X20059Y13641D02*
X20600Y13100D01*
X20059Y13641D02*
Y30209D01*
X22911Y33061D01*
X21730Y12333D02*
X21750Y12313D01*
X20367Y12333D02*
X21730D01*
X20186Y30760D02*
Y30810D01*
X22737Y33361D01*
X20600Y13100D02*
X21750D01*
X22911Y33061D02*
X23642D01*
X22737Y33361D02*
X23517D01*
X23642Y33061D02*
X24142Y33562D01*
Y34270D01*
X23842Y33686D02*
Y34145D01*
X23517Y33361D02*
X23842Y33686D01*
X23839Y34149D02*
Y34667D01*
Y34149D02*
X23842Y34145D01*
X23288Y35884D02*
X23842Y35330D01*
X24139Y34439D02*
X24142Y34442D01*
Y36176D01*
X23842Y34670D02*
Y35330D01*
X24139Y34273D02*
Y34439D01*
X23839Y34667D02*
X23842Y34670D01*
X23150Y35884D02*
X23288D01*
X24139Y34273D02*
X24142Y34270D01*
X23631Y36687D02*
X24142Y36176D01*
X23425Y36869D02*
X23607Y36687D01*
X23150Y36869D02*
X23425D01*
X23607Y36687D02*
X23631D01*
X23100Y34850D02*
X23150Y34900D01*
X19612Y35188D02*
X19950Y34850D01*
X21600Y33916D02*
X23150D01*
X19912Y35603D02*
X21600Y33916D01*
X19612Y35188D02*
Y44383D01*
X19729Y44500D02*
X21600D01*
X19612Y44383D02*
X19729Y44500D01*
X20029Y43750D02*
X21563D01*
X19912Y43633D02*
X20029Y43750D01*
X19912Y35603D02*
Y43633D01*
X21563Y43750D02*
X21600Y43713D01*
X56050Y22900D02*
Y23200D01*
X57550Y24700D01*
X54219Y21918D02*
X57200Y24900D01*
X53383Y21918D02*
X54219D01*
X57550Y39851D02*
X58091Y40392D01*
X57550Y24700D02*
X57550Y39851D01*
X58091Y40392D02*
Y44155D01*
X57200Y24900D02*
X57200Y39925D01*
X57791Y40516D01*
Y43367D01*
X57483Y43675D02*
X57791Y43367D01*
X57783Y44463D02*
X58091Y44155D01*
X56100Y43675D02*
X57483D01*
X56100Y44463D02*
X57783D01*
D44*
X39900Y41950D02*
X41000D01*
X39650Y42200D02*
Y45650D01*
Y42200D02*
X39900Y41950D01*
X34750Y43200D02*
Y47100D01*
X47684Y10638D02*
X56100D01*
X47450Y10872D02*
X47684Y10638D01*
X49425Y20225D02*
X50175D01*
X52050Y14600D02*
X52063Y14587D01*
X56087D01*
X56100Y14575D01*
X50300Y44900D02*
X50634Y44566D01*
X49012Y44900D02*
X50300D01*
X50634Y40000D02*
Y44566D01*
X49984Y21185D02*
X50019Y21150D01*
X49435Y21185D02*
X49984D01*
X49400Y21150D02*
X49435Y21185D01*
X47450Y10872D02*
Y13850D01*
X48350Y15600D02*
Y29900D01*
X47450Y15650D02*
Y29875D01*
X21600Y46075D02*
X22925D01*
X23600Y46750D02*
X25300D01*
X22925Y46075D02*
X23600Y46750D01*
X27650Y31500D02*
Y44400D01*
X25300Y46750D02*
X27650Y44400D01*
X27700Y24850D02*
X35937D01*
X37407Y23380D02*
X45727D01*
X25477Y24800D02*
X26062Y24215D01*
X32835D01*
X35937Y24850D02*
X37407Y23380D01*
X25450Y24800D02*
X25477D01*
X32835Y24215D02*
X35670Y21380D01*
X45727D01*
X21600Y42138D02*
X24212D01*
X25450Y40900D01*
Y31650D02*
Y40900D01*
X21750Y14675D02*
X23625D01*
X31096Y22146D01*
Y22651D01*
X31750Y23305D02*
Y23380D01*
X31096Y22651D02*
X31750Y23305D01*
X21750Y10738D02*
X26388D01*
X29250Y13600D01*
Y15850D02*
Y18880D01*
X31750Y21380D01*
D45*
X23150Y38837D02*
D03*
X23050Y30653D02*
D03*
X53700Y33781D02*
D03*
X53383Y17981D02*
D03*
Y25947D02*
D03*
D46*
X23150Y37853D02*
D03*
Y36869D02*
D03*
Y35884D02*
D03*
Y33916D02*
D03*
Y34900D02*
D03*
X23050Y29669D02*
D03*
Y28684D02*
D03*
Y27700D02*
D03*
Y25731D02*
D03*
Y26716D02*
D03*
X53700Y37719D02*
D03*
Y38703D02*
D03*
Y36734D02*
D03*
Y35750D02*
D03*
Y34766D02*
D03*
X53383Y21918D02*
D03*
Y22903D02*
D03*
Y20934D02*
D03*
Y19950D02*
D03*
Y18966D02*
D03*
Y29884D02*
D03*
Y30868D02*
D03*
Y28900D02*
D03*
Y27916D02*
D03*
Y26932D02*
D03*
D47*
X53050Y42350D02*
D03*
Y41366D02*
D03*
X50634Y40000D02*
D03*
X45800Y34320D02*
D03*
X31823D02*
D03*
X45800Y35320D02*
D03*
X31823Y36320D02*
D03*
Y35320D02*
D03*
X45800Y36320D02*
D03*
X36650Y30950D02*
D03*
X33650D02*
D03*
X37650D02*
D03*
X34650D02*
D03*
X35650D02*
D03*
X44595Y30667D02*
D03*
X39595D02*
D03*
X40595D02*
D03*
X41595D02*
D03*
X42595D02*
D03*
X43595D02*
D03*
X31750Y23380D02*
D03*
X45727D02*
D03*
X31750Y22380D02*
D03*
X45727Y21380D02*
D03*
Y22380D02*
D03*
X31750Y21380D02*
D03*
X40900Y26750D02*
D03*
X43900D02*
D03*
X39900D02*
D03*
X42900D02*
D03*
X41900D02*
D03*
X32955Y27033D02*
D03*
X37955D02*
D03*
X36955D02*
D03*
X35955D02*
D03*
X34955D02*
D03*
X33955D02*
D03*
X31300Y41900D02*
D03*
D48*
X49050Y44866D02*
D03*
Y45850D02*
D03*
D49*
X48500Y37639D02*
D03*
Y42600D02*
D03*
D50*
X26650Y46650D02*
D03*
D51*
X29650D02*
D03*
D52*
X48666Y40000D02*
D03*
D53*
X31563Y45186D02*
D03*
X46059D02*
D03*
Y30690D02*
D03*
X31563D02*
D03*
X45987Y12514D02*
D03*
X31491D02*
D03*
Y27010D02*
D03*
X45987D02*
D03*
D54*
X53300Y12725D02*
D03*
X24500D02*
D03*
X53300Y44875D02*
D03*
X24500D02*
D03*
D55*
X48550Y34950D02*
D03*
X50000Y37500D02*
D03*
X54350Y41550D02*
D03*
X29650Y29350D02*
D03*
X39650Y45650D02*
D03*
X42100Y44500D02*
D03*
X34750Y43200D02*
D03*
X42100Y45700D02*
D03*
X21550Y34900D02*
D03*
X32700Y29213D02*
D03*
X35600Y28100D02*
D03*
X34000Y28700D02*
D03*
X30000Y28750D02*
D03*
X30200Y28100D02*
D03*
X50200Y20200D02*
D03*
X52050Y14600D02*
D03*
X57050Y45250D02*
D03*
Y13800D02*
D03*
X20800Y11550D02*
D03*
X20700Y42950D02*
D03*
X50200Y21250D02*
D03*
X38850Y28500D02*
D03*
X37600Y32550D02*
D03*
X41000Y41950D02*
D03*
X47450Y13850D02*
D03*
X48350Y15600D02*
D03*
X47450Y15650D02*
D03*
X48350Y29900D02*
D03*
X47450Y29875D02*
D03*
X27650Y31500D02*
D03*
X27700Y24850D02*
D03*
X26750Y31700D02*
D03*
X25450Y31650D02*
D03*
Y24800D02*
D03*
X29250Y13600D02*
D03*
Y15850D02*
D03*
X19950Y34850D02*
D03*
X56050Y22900D02*
D03*
X26800Y15050D02*
D03*
X26750Y41000D02*
D03*
D56*
X31300Y40128D02*
D03*
M02*
