G04*
G04 #@! TF.GenerationSoftware,Altium Limited,Altium Designer,20.0.10 (225)*
G04*
G04 Layer_Color=8421504*
%FSLAX24Y24*%
%MOIN*%
G70*
G01*
G75*
%ADD10C,0.0100*%
%ADD17R,0.0600X0.0500*%
G04:AMPARAMS|DCode=18|XSize=60mil|YSize=50mil|CornerRadius=0mil|HoleSize=0mil|Usage=FLASHONLY|Rotation=0.000|XOffset=0mil|YOffset=0mil|HoleType=Round|Shape=Octagon|*
%AMOCTAGOND18*
4,1,8,0.0300,-0.0125,0.0300,0.0125,0.0175,0.0250,-0.0175,0.0250,-0.0300,0.0125,-0.0300,-0.0125,-0.0175,-0.0250,0.0175,-0.0250,0.0300,-0.0125,0.0*
%
%ADD18OCTAGOND18*%

%ADD19R,0.0500X0.0500*%
%ADD20R,0.0500X0.0500*%
%ADD21R,0.2165X0.0315*%
%ADD22R,0.1181X0.0591*%
D10*
X58276Y8824D02*
Y47800D01*
X19300Y8824D02*
X58276D01*
X19300D02*
Y47800D01*
X58276D01*
D17*
X33750Y47100D02*
D03*
D18*
X34750D02*
D03*
D19*
X32539D02*
D03*
X31639D02*
D03*
D20*
X49400Y21150D02*
D03*
Y20250D02*
D03*
D21*
X21750Y13887D02*
D03*
Y13100D02*
D03*
Y10738D02*
D03*
Y11525D02*
D03*
Y12313D02*
D03*
Y14675D02*
D03*
X21600Y45287D02*
D03*
Y44500D02*
D03*
Y42138D02*
D03*
Y42925D02*
D03*
Y43713D02*
D03*
Y46075D02*
D03*
X56100Y42888D02*
D03*
Y43675D02*
D03*
Y46037D02*
D03*
Y45250D02*
D03*
Y44463D02*
D03*
Y42100D02*
D03*
Y11425D02*
D03*
Y12213D02*
D03*
Y14575D02*
D03*
Y13787D02*
D03*
Y13000D02*
D03*
Y10638D02*
D03*
D22*
X20850Y15881D02*
D03*
X20869Y9531D02*
D03*
X20700Y47281D02*
D03*
X20719Y40931D02*
D03*
X57000Y40894D02*
D03*
X56981Y47244D02*
D03*
X57000Y9431D02*
D03*
X56981Y15781D02*
D03*
M02*
