G04*
G04 #@! TF.GenerationSoftware,Altium Limited,Altium Designer,20.0.10 (225)*
G04*
G04 Layer_Color=32768*
%FSLAX24Y24*%
%MOIN*%
G70*
G01*
G75*
%ADD10C,0.0100*%
%ADD65C,0.0020*%
%ADD66C,0.0004*%
D10*
X58276Y8824D02*
Y47800D01*
X19300Y8824D02*
X58276D01*
X19300D02*
Y47800D01*
X58276D01*
D65*
X39438Y28500D02*
G03*
X39438Y28500I-138J0D01*
G01*
X44538Y28050D02*
G03*
X44538Y28050I-138J0D01*
G01*
X34388Y47100D02*
G03*
X34388Y47100I-138J0D01*
G01*
X32227D02*
G03*
X32227Y47100I-138J0D01*
G01*
X33288Y32250D02*
G03*
X33288Y32250I-138J0D01*
G01*
X37288Y32550D02*
G03*
X37288Y32550I-138J0D01*
G01*
X49538Y20700D02*
G03*
X49538Y20700I-138J0D01*
G01*
X39300Y28303D02*
Y28697D01*
X39103Y28500D02*
X39497D01*
X44400Y27853D02*
Y28247D01*
X44203Y28050D02*
X44597D01*
X34053Y47100D02*
X34447D01*
X34250Y46903D02*
Y47297D01*
X32089Y46903D02*
Y47297D01*
X31892Y47100D02*
X32286D01*
X33150Y32053D02*
Y32447D01*
X32953Y32250D02*
X33347D01*
X37150Y32353D02*
Y32747D01*
X36953Y32550D02*
X37347D01*
X49203Y20700D02*
X49597D01*
X49400Y20503D02*
Y20897D01*
D66*
X52950Y41858D02*
X53150D01*
X53050Y41808D02*
Y41908D01*
M02*
