G04*
G04 #@! TF.GenerationSoftware,Altium Limited,Altium Designer,20.0.10 (225)*
G04*
G04 Layer_Color=2752767*
%FSLAX24Y24*%
%MOIN*%
G70*
G01*
G75*
%ADD10C,0.0100*%
%ADD67C,0.0020*%
%ADD68C,0.0027*%
D10*
X58276Y8824D02*
Y47800D01*
X19300Y8824D02*
X58276D01*
X19300D02*
Y47800D01*
X58276D01*
D67*
X23070Y38757D02*
Y38917D01*
X23230D01*
Y38757D01*
X23070D01*
Y37773D02*
Y37933D01*
X23230D01*
Y37773D01*
X23070D01*
Y36788D02*
Y36948D01*
X23230D01*
Y36788D01*
X23070D01*
Y35804D02*
Y35964D01*
X23230D01*
Y35804D01*
X23070D01*
Y33836D02*
Y33996D01*
X23230D01*
Y33836D01*
X23070D01*
Y34820D02*
Y34980D01*
X23230D01*
Y34820D01*
X23070D01*
X22970Y30573D02*
Y30733D01*
X23130D01*
Y30573D01*
X22970D01*
Y29588D02*
Y29748D01*
X23130D01*
Y29588D01*
X22970D01*
Y28604D02*
Y28764D01*
X23130D01*
Y28604D01*
X22970D01*
Y27620D02*
Y27780D01*
X23130D01*
Y27620D01*
X22970D01*
Y25652D02*
Y25812D01*
X23130D01*
Y25652D01*
X22970D01*
Y26636D02*
Y26796D01*
X23130D01*
Y26636D01*
X22970D01*
X53620Y37638D02*
Y37799D01*
X53780D01*
Y37638D01*
X53620D01*
Y38623D02*
Y38783D01*
X53780D01*
Y38623D01*
X53620D01*
Y36654D02*
Y36814D01*
X53780D01*
Y36654D01*
X53620D01*
Y35670D02*
Y35830D01*
X53780D01*
Y35670D01*
X53620D01*
Y34686D02*
Y34846D01*
X53780D01*
Y34686D01*
X53620D01*
Y33702D02*
Y33861D01*
X53780D01*
Y33702D01*
X53620D01*
X48970Y44786D02*
Y44946D01*
X49130D01*
Y44786D01*
X48970D01*
Y45770D02*
Y45930D01*
X49130D01*
Y45770D01*
X48970D01*
X48500Y37559D02*
X48420Y37719D01*
X48580D01*
X48500Y37559D01*
Y42520D02*
X48420Y42680D01*
X48580D01*
X48500Y42520D01*
X53303Y21839D02*
Y21999D01*
X53463D01*
Y21839D01*
X53303D01*
Y22823D02*
Y22983D01*
X53463D01*
Y22823D01*
X53303D01*
Y20854D02*
Y21014D01*
X53463D01*
Y20854D01*
X53303D01*
Y19870D02*
Y20030D01*
X53463D01*
Y19870D01*
X53303D01*
Y18886D02*
Y19046D01*
X53463D01*
Y18886D01*
X53303D01*
Y17902D02*
Y18061D01*
X53463D01*
Y17902D01*
X53303D01*
Y29804D02*
Y29964D01*
X53463D01*
Y29804D01*
X53303D01*
Y30789D02*
Y30949D01*
X53463D01*
Y30789D01*
X53303D01*
Y28820D02*
Y28980D01*
X53463D01*
Y28820D01*
X53303D01*
Y27836D02*
Y27996D01*
X53463D01*
Y27836D01*
X53303D01*
Y26851D02*
Y27011D01*
X53463D01*
Y26851D01*
X53303D01*
Y25867D02*
Y26027D01*
X53463D01*
Y25867D01*
X53303D01*
X45720Y34240D02*
Y34400D01*
X45880D01*
Y34240D01*
X45720D01*
X31743D02*
Y34400D01*
X31903D01*
Y34240D01*
X31743D01*
X45720Y35240D02*
Y35400D01*
X45880D01*
Y35240D01*
X45720D01*
X31743Y36240D02*
Y36400D01*
X31903D01*
Y36240D01*
X31743D01*
Y35240D02*
Y35400D01*
X31903D01*
Y35240D01*
X31743D01*
X45720Y36240D02*
Y36400D01*
X45880D01*
Y36240D01*
X45720D01*
X36570Y30870D02*
Y31030D01*
X36730D01*
Y30870D01*
X36570D01*
X33570D02*
Y31030D01*
X33730D01*
Y30870D01*
X33570D01*
X37570D02*
Y31030D01*
X37730D01*
Y30870D01*
X37570D01*
X34570D02*
Y31030D01*
X34730D01*
Y30870D01*
X34570D01*
X35570D02*
Y31030D01*
X35730D01*
Y30870D01*
X35570D01*
X44515Y30587D02*
Y30747D01*
X44675D01*
Y30587D01*
X44515D01*
X39515D02*
Y30747D01*
X39675D01*
Y30587D01*
X39515D01*
X40515D02*
Y30747D01*
X40675D01*
Y30587D01*
X40515D01*
X41515D02*
Y30747D01*
X41675D01*
Y30587D01*
X41515D01*
X42515D02*
Y30747D01*
X42675D01*
Y30587D01*
X42515D01*
X43515D02*
Y30747D01*
X43675D01*
Y30587D01*
X43515D01*
X31563Y45106D02*
X31603Y45146D01*
X31643D01*
X31603Y45186D01*
X31643Y45226D01*
X31603D01*
X31563Y45266D01*
X31523Y45226D01*
X31483D01*
X31523Y45186D01*
X31483Y45146D01*
X31523D01*
X31563Y45106D01*
X46059D02*
X46099Y45146D01*
X46139D01*
X46099Y45186D01*
X46139Y45226D01*
X46099D01*
X46059Y45266D01*
X46019Y45226D01*
X45979D01*
X46019Y45186D01*
X45979Y45146D01*
X46019D01*
X46059Y45106D01*
Y30610D02*
X46099Y30650D01*
X46139D01*
X46099Y30690D01*
X46139Y30730D01*
X46099D01*
X46059Y30770D01*
X46019Y30730D01*
X45979D01*
X46019Y30690D01*
X45979Y30650D01*
X46019D01*
X46059Y30610D01*
X31563D02*
X31603Y30650D01*
X31643D01*
X31603Y30690D01*
X31643Y30730D01*
X31603D01*
X31563Y30770D01*
X31523Y30730D01*
X31483D01*
X31523Y30690D01*
X31483Y30650D01*
X31523D01*
X31563Y30610D01*
X53220Y12645D02*
X53260Y12725D01*
X53220Y12805D01*
X53300Y12765D01*
X53380Y12805D01*
X53340Y12725D01*
X53380Y12645D01*
X53300Y12685D01*
X53220Y12645D01*
X24420D02*
X24460Y12725D01*
X24420Y12805D01*
X24500Y12765D01*
X24580Y12805D01*
X24540Y12725D01*
X24580Y12645D01*
X24500Y12685D01*
X24420Y12645D01*
X53220Y44795D02*
X53260Y44875D01*
X53220Y44955D01*
X53300Y44915D01*
X53380Y44955D01*
X53340Y44875D01*
X53380Y44795D01*
X53300Y44835D01*
X53220Y44795D01*
X24420D02*
X24460Y44875D01*
X24420Y44955D01*
X24500Y44915D01*
X24580Y44955D01*
X24540Y44875D01*
X24580Y44795D01*
X24500Y44835D01*
X24420Y44795D01*
X31670Y23300D02*
Y23460D01*
X31830D01*
Y23300D01*
X31670D01*
X45647D02*
Y23460D01*
X45807D01*
Y23300D01*
X45647D01*
X31670Y22300D02*
Y22460D01*
X31830D01*
Y22300D01*
X31670D01*
X45647Y21300D02*
Y21460D01*
X45807D01*
Y21300D01*
X45647D01*
Y22300D02*
Y22460D01*
X45807D01*
Y22300D01*
X45647D01*
X31670Y21300D02*
Y21460D01*
X31830D01*
Y21300D01*
X31670D01*
X40820Y26670D02*
Y26830D01*
X40980D01*
Y26670D01*
X40820D01*
X43820D02*
Y26830D01*
X43980D01*
Y26670D01*
X43820D01*
X39820D02*
Y26830D01*
X39980D01*
Y26670D01*
X39820D01*
X42820D02*
Y26830D01*
X42980D01*
Y26670D01*
X42820D01*
X41820D02*
Y26830D01*
X41980D01*
Y26670D01*
X41820D01*
X32875Y26953D02*
Y27113D01*
X33035D01*
Y26953D01*
X32875D01*
X37875D02*
Y27113D01*
X38035D01*
Y26953D01*
X37875D01*
X36875D02*
Y27113D01*
X37035D01*
Y26953D01*
X36875D01*
X35875D02*
Y27113D01*
X36035D01*
Y26953D01*
X35875D01*
X34875D02*
Y27113D01*
X35035D01*
Y26953D01*
X34875D01*
X33875D02*
Y27113D01*
X34035D01*
Y26953D01*
X33875D01*
X45987Y12434D02*
X46027Y12474D01*
X46067D01*
X46027Y12514D01*
X46067Y12554D01*
X46027D01*
X45987Y12594D01*
X45947Y12554D01*
X45907D01*
X45947Y12514D01*
X45907Y12474D01*
X45947D01*
X45987Y12434D01*
X31491D02*
X31531Y12474D01*
X31571D01*
X31531Y12514D01*
X31571Y12554D01*
X31531D01*
X31491Y12594D01*
X31451Y12554D01*
X31411D01*
X31451Y12514D01*
X31411Y12474D01*
X31451D01*
X31491Y12434D01*
Y26930D02*
X31531Y26970D01*
X31571D01*
X31531Y27010D01*
X31571Y27050D01*
X31531D01*
X31491Y27090D01*
X31451Y27050D01*
X31411D01*
X31451Y27010D01*
X31411Y26970D01*
X31451D01*
X31491Y26930D01*
X45987D02*
X46027Y26970D01*
X46067D01*
X46027Y27010D01*
X46067Y27050D01*
X46027D01*
X45987Y27090D01*
X45947Y27050D01*
X45907D01*
X45947Y27010D01*
X45907Y26970D01*
X45947D01*
X45987Y26930D01*
X48510Y34910D02*
Y34870D01*
X48590D01*
Y34910D01*
X48630D01*
Y34990D01*
X48590D01*
Y35030D01*
X48510D01*
Y34990D01*
X48470D01*
Y34910D01*
X48510D01*
X49960Y37460D02*
Y37420D01*
X50040D01*
Y37460D01*
X50080D01*
Y37540D01*
X50040D01*
Y37580D01*
X49960D01*
Y37540D01*
X49920D01*
Y37460D01*
X49960D01*
X54310Y41510D02*
Y41470D01*
X54390D01*
Y41510D01*
X54430D01*
Y41590D01*
X54390D01*
Y41630D01*
X54310D01*
Y41590D01*
X54270D01*
Y41510D01*
X54310D01*
X29610Y29310D02*
Y29270D01*
X29690D01*
Y29310D01*
X29730D01*
Y29390D01*
X29690D01*
Y29430D01*
X29610D01*
Y29390D01*
X29570D01*
Y29310D01*
X29610D01*
X39610Y45610D02*
Y45570D01*
X39690D01*
Y45610D01*
X39730D01*
Y45690D01*
X39690D01*
Y45730D01*
X39610D01*
Y45690D01*
X39570D01*
Y45610D01*
X39610D01*
X42060Y44460D02*
Y44420D01*
X42140D01*
Y44460D01*
X42180D01*
Y44540D01*
X42140D01*
Y44580D01*
X42060D01*
Y44540D01*
X42020D01*
Y44460D01*
X42060D01*
X34710Y43160D02*
Y43120D01*
X34790D01*
Y43160D01*
X34830D01*
Y43240D01*
X34790D01*
Y43280D01*
X34710D01*
Y43240D01*
X34670D01*
Y43160D01*
X34710D01*
X42060Y45660D02*
Y45620D01*
X42140D01*
Y45660D01*
X42180D01*
Y45740D01*
X42140D01*
Y45780D01*
X42060D01*
Y45740D01*
X42020D01*
Y45660D01*
X42060D01*
X21510Y34860D02*
Y34820D01*
X21590D01*
Y34860D01*
X21630D01*
Y34940D01*
X21590D01*
Y34980D01*
X21510D01*
Y34940D01*
X21470D01*
Y34860D01*
X21510D01*
X32660Y29172D02*
Y29132D01*
X32740D01*
Y29172D01*
X32780D01*
Y29253D01*
X32740D01*
Y29293D01*
X32660D01*
Y29253D01*
X32620D01*
Y29172D01*
X32660D01*
X35560Y28060D02*
Y28020D01*
X35640D01*
Y28060D01*
X35680D01*
Y28140D01*
X35640D01*
Y28180D01*
X35560D01*
Y28140D01*
X35520D01*
Y28060D01*
X35560D01*
X33960Y28660D02*
Y28620D01*
X34040D01*
Y28660D01*
X34080D01*
Y28740D01*
X34040D01*
Y28780D01*
X33960D01*
Y28740D01*
X33920D01*
Y28660D01*
X33960D01*
X29960Y28710D02*
Y28670D01*
X30040D01*
Y28710D01*
X30080D01*
Y28790D01*
X30040D01*
Y28830D01*
X29960D01*
Y28790D01*
X29920D01*
Y28710D01*
X29960D01*
X30160Y28060D02*
Y28020D01*
X30240D01*
Y28060D01*
X30280D01*
Y28140D01*
X30240D01*
Y28180D01*
X30160D01*
Y28140D01*
X30120D01*
Y28060D01*
X30160D01*
X50160Y20160D02*
Y20120D01*
X50240D01*
Y20160D01*
X50280D01*
Y20240D01*
X50240D01*
Y20280D01*
X50160D01*
Y20240D01*
X50120D01*
Y20160D01*
X50160D01*
X52010Y14560D02*
Y14520D01*
X52090D01*
Y14560D01*
X52130D01*
Y14640D01*
X52090D01*
Y14680D01*
X52010D01*
Y14640D01*
X51970D01*
Y14560D01*
X52010D01*
X57010Y45210D02*
Y45170D01*
X57090D01*
Y45210D01*
X57130D01*
Y45290D01*
X57090D01*
Y45330D01*
X57010D01*
Y45290D01*
X56970D01*
Y45210D01*
X57010D01*
Y13760D02*
Y13720D01*
X57090D01*
Y13760D01*
X57130D01*
Y13840D01*
X57090D01*
Y13880D01*
X57010D01*
Y13840D01*
X56970D01*
Y13760D01*
X57010D01*
X20760Y11510D02*
Y11470D01*
X20840D01*
Y11510D01*
X20880D01*
Y11590D01*
X20840D01*
Y11630D01*
X20760D01*
Y11590D01*
X20720D01*
Y11510D01*
X20760D01*
X20660Y42910D02*
Y42870D01*
X20740D01*
Y42910D01*
X20780D01*
Y42990D01*
X20740D01*
Y43030D01*
X20660D01*
Y42990D01*
X20620D01*
Y42910D01*
X20660D01*
X50160Y21210D02*
Y21170D01*
X50240D01*
Y21210D01*
X50280D01*
Y21290D01*
X50240D01*
Y21330D01*
X50160D01*
Y21290D01*
X50120D01*
Y21210D01*
X50160D01*
X38810Y28460D02*
Y28420D01*
X38890D01*
Y28460D01*
X38930D01*
Y28540D01*
X38890D01*
Y28580D01*
X38810D01*
Y28540D01*
X38770D01*
Y28460D01*
X38810D01*
X37560Y32510D02*
Y32470D01*
X37640D01*
Y32510D01*
X37680D01*
Y32590D01*
X37640D01*
Y32630D01*
X37560D01*
Y32590D01*
X37520D01*
Y32510D01*
X37560D01*
X40960Y41910D02*
Y41870D01*
X41040D01*
Y41910D01*
X41080D01*
Y41990D01*
X41040D01*
Y42030D01*
X40960D01*
Y41990D01*
X40920D01*
Y41910D01*
X40960D01*
X47410Y13810D02*
Y13770D01*
X47490D01*
Y13810D01*
X47530D01*
Y13890D01*
X47490D01*
Y13930D01*
X47410D01*
Y13890D01*
X47370D01*
Y13810D01*
X47410D01*
X48310Y15560D02*
Y15520D01*
X48390D01*
Y15560D01*
X48430D01*
Y15640D01*
X48390D01*
Y15680D01*
X48310D01*
Y15640D01*
X48270D01*
Y15560D01*
X48310D01*
X47410Y15610D02*
Y15570D01*
X47490D01*
Y15610D01*
X47530D01*
Y15690D01*
X47490D01*
Y15730D01*
X47410D01*
Y15690D01*
X47370D01*
Y15610D01*
X47410D01*
X48310Y29860D02*
Y29820D01*
X48390D01*
Y29860D01*
X48430D01*
Y29940D01*
X48390D01*
Y29980D01*
X48310D01*
Y29940D01*
X48270D01*
Y29860D01*
X48310D01*
X47410Y29835D02*
Y29795D01*
X47490D01*
Y29835D01*
X47530D01*
Y29915D01*
X47490D01*
Y29955D01*
X47410D01*
Y29915D01*
X47370D01*
Y29835D01*
X47410D01*
X27610Y31460D02*
Y31420D01*
X27690D01*
Y31460D01*
X27730D01*
Y31540D01*
X27690D01*
Y31580D01*
X27610D01*
Y31540D01*
X27570D01*
Y31460D01*
X27610D01*
X27660Y24810D02*
Y24770D01*
X27740D01*
Y24810D01*
X27780D01*
Y24890D01*
X27740D01*
Y24930D01*
X27660D01*
Y24890D01*
X27620D01*
Y24810D01*
X27660D01*
X26710Y31660D02*
Y31620D01*
X26790D01*
Y31660D01*
X26830D01*
Y31740D01*
X26790D01*
Y31780D01*
X26710D01*
Y31740D01*
X26670D01*
Y31660D01*
X26710D01*
X25410Y31610D02*
Y31570D01*
X25490D01*
Y31610D01*
X25530D01*
Y31690D01*
X25490D01*
Y31730D01*
X25410D01*
Y31690D01*
X25370D01*
Y31610D01*
X25410D01*
Y24760D02*
Y24720D01*
X25490D01*
Y24760D01*
X25530D01*
Y24840D01*
X25490D01*
Y24880D01*
X25410D01*
Y24840D01*
X25370D01*
Y24760D01*
X25410D01*
X29210Y13560D02*
Y13520D01*
X29290D01*
Y13560D01*
X29330D01*
Y13640D01*
X29290D01*
Y13680D01*
X29210D01*
Y13640D01*
X29170D01*
Y13560D01*
X29210D01*
Y15810D02*
Y15770D01*
X29290D01*
Y15810D01*
X29330D01*
Y15890D01*
X29290D01*
Y15930D01*
X29210D01*
Y15890D01*
X29170D01*
Y15810D01*
X29210D01*
X19910Y34810D02*
Y34770D01*
X19990D01*
Y34810D01*
X20030D01*
Y34890D01*
X19990D01*
Y34930D01*
X19910D01*
Y34890D01*
X19870D01*
Y34810D01*
X19910D01*
X56010Y22860D02*
Y22820D01*
X56090D01*
Y22860D01*
X56130D01*
Y22940D01*
X56090D01*
Y22980D01*
X56010D01*
Y22940D01*
X55970D01*
Y22860D01*
X56010D01*
X26760Y15010D02*
Y14970D01*
X26840D01*
Y15010D01*
X26880D01*
Y15090D01*
X26840D01*
Y15130D01*
X26760D01*
Y15090D01*
X26720D01*
Y15010D01*
X26760D01*
X26710Y40960D02*
Y40920D01*
X26790D01*
Y40960D01*
X26830D01*
Y41040D01*
X26790D01*
Y41080D01*
X26710D01*
Y41040D01*
X26670D01*
Y40960D01*
X26710D01*
X31220Y41820D02*
X31260D01*
X31300Y41860D01*
X31340Y41820D01*
X31380D01*
Y41860D01*
X31340Y41900D01*
X31380Y41940D01*
Y41980D01*
X31340D01*
X31300Y41940D01*
X31260Y41980D01*
X31220D01*
Y41940D01*
X31260Y41900D01*
X31220Y41860D01*
Y41820D01*
Y40128D02*
X31300Y40208D01*
X31380Y40128D01*
X31300Y40048D01*
X31220Y40128D01*
D68*
X53130Y42350D02*
G03*
X53130Y42350I-80J0D01*
G01*
Y41366D02*
G03*
X53130Y41366I-80J0D01*
G01*
X26730Y46650D02*
G03*
X26730Y46650I-80J0D01*
G01*
X29730D02*
G03*
X29730Y46650I-80J0D01*
G01*
X48746Y40000D02*
G03*
X48746Y40000I-80J0D01*
G01*
X50714D02*
G03*
X50714Y40000I-80J0D01*
G01*
M02*
