G04*
G04 #@! TF.GenerationSoftware,Altium Limited,Altium Designer,20.0.10 (225)*
G04*
G04 Layer_Color=255*
%FSLAX24Y24*%
%MOIN*%
G70*
G01*
G75*
%ADD10C,0.0100*%
%ADD17R,0.0600X0.0500*%
G04:AMPARAMS|DCode=18|XSize=60mil|YSize=50mil|CornerRadius=0mil|HoleSize=0mil|Usage=FLASHONLY|Rotation=0.000|XOffset=0mil|YOffset=0mil|HoleType=Round|Shape=Octagon|*
%AMOCTAGOND18*
4,1,8,0.0300,-0.0125,0.0300,0.0125,0.0175,0.0250,-0.0175,0.0250,-0.0300,0.0125,-0.0300,-0.0125,-0.0175,-0.0250,0.0175,-0.0250,0.0300,-0.0125,0.0*
%
%ADD18OCTAGOND18*%

%ADD19R,0.0500X0.0500*%
%ADD20R,0.0500X0.0500*%
%ADD21R,0.2165X0.0315*%
%ADD22R,0.1181X0.0591*%
%ADD45R,0.0984X0.0709*%
%ADD46O,0.0984X0.0709*%
%ADD47C,0.0709*%
%ADD48C,0.0591*%
%ADD49C,0.0787*%
%ADD50R,0.0669X0.0669*%
%ADD51C,0.0669*%
%ADD52R,0.0709X0.0709*%
%ADD53C,0.1772*%
%ADD54C,0.2000*%
D10*
X58276Y8824D02*
Y47800D01*
X19300Y8824D02*
X58276D01*
X19300D02*
Y47800D01*
X58276D01*
D17*
X33750Y47100D02*
D03*
D18*
X34750D02*
D03*
D19*
X32539D02*
D03*
X31639D02*
D03*
D20*
X49400Y21150D02*
D03*
Y20250D02*
D03*
D21*
X21750Y13887D02*
D03*
Y13100D02*
D03*
Y10738D02*
D03*
Y11525D02*
D03*
Y12313D02*
D03*
Y14675D02*
D03*
X21600Y45287D02*
D03*
Y44500D02*
D03*
Y42138D02*
D03*
Y42925D02*
D03*
Y43713D02*
D03*
Y46075D02*
D03*
X56100Y42888D02*
D03*
Y43675D02*
D03*
Y46037D02*
D03*
Y45250D02*
D03*
Y44463D02*
D03*
Y42100D02*
D03*
Y11425D02*
D03*
Y12213D02*
D03*
Y14575D02*
D03*
Y13787D02*
D03*
Y13000D02*
D03*
Y10638D02*
D03*
D22*
X20850Y15881D02*
D03*
X20869Y9531D02*
D03*
X20700Y47281D02*
D03*
X20719Y40931D02*
D03*
X57000Y40894D02*
D03*
X56981Y47244D02*
D03*
X57000Y9431D02*
D03*
X56981Y15781D02*
D03*
D45*
X23150Y38837D02*
D03*
X23050Y30653D02*
D03*
X53700Y33781D02*
D03*
X53383Y17981D02*
D03*
Y25947D02*
D03*
D46*
X23150Y37853D02*
D03*
Y36869D02*
D03*
Y35884D02*
D03*
Y33916D02*
D03*
Y34900D02*
D03*
X23050Y29669D02*
D03*
Y28684D02*
D03*
Y27700D02*
D03*
Y25731D02*
D03*
Y26716D02*
D03*
X53700Y37719D02*
D03*
Y38703D02*
D03*
Y36734D02*
D03*
Y35750D02*
D03*
Y34766D02*
D03*
X53383Y21918D02*
D03*
Y22903D02*
D03*
Y20934D02*
D03*
Y19950D02*
D03*
Y18966D02*
D03*
Y29884D02*
D03*
Y30868D02*
D03*
Y28900D02*
D03*
Y27916D02*
D03*
Y26932D02*
D03*
D47*
X53050Y42350D02*
D03*
Y41366D02*
D03*
X50634Y40000D02*
D03*
X45800Y34320D02*
D03*
X31823D02*
D03*
X45800Y35320D02*
D03*
X31823Y36320D02*
D03*
Y35320D02*
D03*
X45800Y36320D02*
D03*
X36650Y30950D02*
D03*
X33650D02*
D03*
X37650D02*
D03*
X34650D02*
D03*
X35650D02*
D03*
X44595Y30667D02*
D03*
X39595D02*
D03*
X40595D02*
D03*
X41595D02*
D03*
X42595D02*
D03*
X43595D02*
D03*
X31750Y23380D02*
D03*
X45727D02*
D03*
X31750Y22380D02*
D03*
X45727Y21380D02*
D03*
Y22380D02*
D03*
X31750Y21380D02*
D03*
X40900Y26750D02*
D03*
X43900D02*
D03*
X39900D02*
D03*
X42900D02*
D03*
X41900D02*
D03*
X32955Y27033D02*
D03*
X37955D02*
D03*
X36955D02*
D03*
X35955D02*
D03*
X34955D02*
D03*
X33955D02*
D03*
D48*
X49050Y44866D02*
D03*
Y45850D02*
D03*
D49*
X48500Y37639D02*
D03*
Y42600D02*
D03*
D50*
X26650Y46650D02*
D03*
D51*
X29650D02*
D03*
D52*
X48666Y40000D02*
D03*
D53*
X31563Y45186D02*
D03*
X46059D02*
D03*
Y30690D02*
D03*
X31563D02*
D03*
X45987Y12514D02*
D03*
X31491D02*
D03*
Y27010D02*
D03*
X45987D02*
D03*
D54*
X53300Y12725D02*
D03*
X24500D02*
D03*
X53300Y44875D02*
D03*
X24500D02*
D03*
M02*
