G04*
G04 #@! TF.GenerationSoftware,Altium Limited,Altium Designer,20.0.10 (225)*
G04*
G04 Layer_Physical_Order=2*
G04 Layer_Color=16711680*
%FSLAX24Y24*%
%MOIN*%
G70*
G01*
G75*
%ADD10C,0.0100*%
%ADD19R,0.0500X0.0500*%
%ADD41C,0.0600*%
%ADD42C,0.0300*%
%ADD43C,0.0200*%
%ADD44C,0.0400*%
%ADD45R,0.0984X0.0709*%
%ADD46O,0.0984X0.0709*%
%ADD47C,0.0709*%
%ADD48C,0.0591*%
%ADD49C,0.0787*%
%ADD50R,0.0669X0.0669*%
%ADD51C,0.0669*%
%ADD52R,0.0709X0.0709*%
%ADD53C,0.1772*%
%ADD54C,0.2000*%
%ADD55C,0.0500*%
%ADD56C,0.0630*%
%ADD57R,0.0413X0.1260*%
%ADD58R,0.4114X0.3937*%
%ADD59R,0.0984X0.0906*%
%ADD60C,0.0800*%
G36*
X22850Y39400D02*
X22800Y39350D01*
X24600D01*
Y20550D01*
X26495D01*
Y15241D01*
X26497Y15230D01*
X26494Y15227D01*
X26459Y15141D01*
X26447Y15050D01*
X26459Y14959D01*
X26494Y14873D01*
X26550Y14800D01*
X26623Y14744D01*
X26709Y14709D01*
X26800Y14697D01*
X26891Y14709D01*
X26977Y14744D01*
X27050Y14800D01*
X27106Y14873D01*
X27141Y14959D01*
X27153Y15050D01*
X27141Y15141D01*
X27106Y15227D01*
X27050Y15300D01*
X27005Y15334D01*
Y20550D01*
X50002D01*
X50013Y20528D01*
X50016Y20500D01*
X49950Y20450D01*
X49894Y20377D01*
X49859Y20291D01*
X49854Y20250D01*
X50546D01*
X50541Y20291D01*
X50506Y20377D01*
X50450Y20450D01*
X50384Y20500D01*
X50387Y20528D01*
X50398Y20550D01*
X52900D01*
Y20564D01*
X52950Y20588D01*
X53017Y20537D01*
X53127Y20492D01*
X53246Y20476D01*
X53521D01*
X53640Y20492D01*
X53750Y20537D01*
X53767Y20550D01*
X53845Y20610D01*
X53918Y20705D01*
X53964Y20816D01*
X53980Y20934D01*
X53964Y21053D01*
X53918Y21163D01*
X53845Y21258D01*
X53750Y21331D01*
X53640Y21377D01*
X53521Y21393D01*
X53246D01*
X53127Y21377D01*
X53017Y21331D01*
X52950Y21280D01*
X52900Y21305D01*
Y21548D01*
X52950Y21573D01*
X53017Y21522D01*
X53127Y21476D01*
X53246Y21460D01*
X53521D01*
X53640Y21476D01*
X53750Y21522D01*
X53845Y21594D01*
X53918Y21689D01*
X53964Y21800D01*
X53980Y21918D01*
X53964Y22037D01*
X53918Y22148D01*
X53845Y22243D01*
X53750Y22315D01*
X53640Y22361D01*
X53521Y22377D01*
X53246D01*
X53127Y22361D01*
X53017Y22315D01*
X52950Y22264D01*
X52900Y22289D01*
Y22532D01*
X52950Y22557D01*
X53017Y22506D01*
X53127Y22460D01*
X53246Y22445D01*
X53521D01*
X53640Y22460D01*
X53750Y22506D01*
X53845Y22579D01*
X53918Y22674D01*
X53928Y22697D01*
X55764D01*
X55800Y22650D01*
X55873Y22594D01*
X55959Y22559D01*
X56050Y22547D01*
X56141Y22559D01*
X56227Y22594D01*
X56300Y22650D01*
X56356Y22723D01*
X56391Y22809D01*
X56403Y22900D01*
X56391Y22991D01*
X56356Y23077D01*
X56300Y23150D01*
X56227Y23206D01*
X56141Y23241D01*
X56050Y23253D01*
X55959Y23241D01*
X55873Y23206D01*
X55800Y23150D01*
X55766Y23105D01*
X53929D01*
X53918Y23132D01*
X53845Y23227D01*
X53750Y23300D01*
X53640Y23345D01*
X53521Y23361D01*
X53246D01*
X53127Y23345D01*
X53017Y23300D01*
X52950Y23249D01*
X52900Y23273D01*
Y25493D01*
X53976D01*
Y26402D01*
X52900D01*
Y26561D01*
X52950Y26586D01*
X53017Y26535D01*
X53127Y26489D01*
X53246Y26473D01*
X53521D01*
X53640Y26489D01*
X53750Y26535D01*
X53845Y26607D01*
X53918Y26702D01*
X53964Y26813D01*
X53980Y26932D01*
X53964Y27050D01*
X53918Y27161D01*
X53845Y27256D01*
X53750Y27328D01*
X53640Y27374D01*
X53521Y27390D01*
X53246D01*
X53127Y27374D01*
X53017Y27328D01*
X52950Y27277D01*
X52900Y27302D01*
Y27545D01*
X52950Y27570D01*
X53017Y27519D01*
X53127Y27473D01*
X53246Y27457D01*
X53521D01*
X53640Y27473D01*
X53750Y27519D01*
X53845Y27592D01*
X53918Y27687D01*
X53964Y27797D01*
X53980Y27916D01*
X53964Y28034D01*
X53918Y28145D01*
X53845Y28240D01*
X53750Y28313D01*
X53640Y28358D01*
X53521Y28374D01*
X53246D01*
X53127Y28358D01*
X53017Y28313D01*
X52950Y28262D01*
X52900Y28286D01*
Y28530D01*
X52950Y28554D01*
X53017Y28503D01*
X53127Y28457D01*
X53246Y28442D01*
X53521D01*
X53640Y28457D01*
X53750Y28503D01*
X53845Y28576D01*
X53918Y28671D01*
X53964Y28781D01*
X53980Y28900D01*
X53964Y29019D01*
X53918Y29129D01*
X53845Y29224D01*
X53750Y29297D01*
X53640Y29343D01*
X53521Y29358D01*
X53246D01*
X53127Y29343D01*
X53017Y29297D01*
X52950Y29246D01*
X52900Y29270D01*
Y29514D01*
X52950Y29538D01*
X53017Y29487D01*
X53127Y29442D01*
X53246Y29426D01*
X53521D01*
X53640Y29442D01*
X53750Y29487D01*
X53845Y29560D01*
X53918Y29655D01*
X53964Y29766D01*
X53980Y29884D01*
X53964Y30003D01*
X53918Y30113D01*
X53845Y30208D01*
X53750Y30281D01*
X53640Y30327D01*
X53521Y30343D01*
X53246D01*
X53127Y30327D01*
X53017Y30281D01*
X52950Y30230D01*
X52900Y30255D01*
Y30498D01*
X52950Y30523D01*
X53017Y30472D01*
X53127Y30426D01*
X53246Y30410D01*
X53521D01*
X53640Y30426D01*
X53750Y30472D01*
X53845Y30544D01*
X53918Y30639D01*
X53964Y30750D01*
X53980Y30868D01*
X53964Y30987D01*
X53918Y31098D01*
X53845Y31193D01*
X53750Y31265D01*
X53640Y31311D01*
X53521Y31327D01*
X53246D01*
X53127Y31311D01*
X53017Y31265D01*
X52950Y31214D01*
X52900Y31239D01*
Y32300D01*
X52950Y32350D01*
X54900D01*
Y46750D01*
X57235D01*
X57254Y46704D01*
X57244Y46694D01*
Y45602D01*
X57194Y45569D01*
X57141Y45591D01*
X57100Y45596D01*
Y45250D01*
Y44904D01*
X57141Y44909D01*
X57194Y44931D01*
X57244Y44898D01*
Y14152D01*
X57194Y14119D01*
X57141Y14141D01*
X57100Y14146D01*
Y13800D01*
Y13454D01*
X57141Y13459D01*
X57194Y13481D01*
X57244Y13448D01*
Y9609D01*
X52824D01*
X52805Y9655D01*
X52900Y9750D01*
Y9800D01*
X19750D01*
Y20535D01*
X19796Y20554D01*
X19800Y20550D01*
X20100D01*
Y34533D01*
X20127Y34544D01*
X20200Y34600D01*
X20254Y34671D01*
X21250D01*
X21280Y34677D01*
X21300Y34650D01*
X21373Y34594D01*
X21459Y34559D01*
X21550Y34547D01*
X21641Y34559D01*
X21727Y34594D01*
X21800Y34650D01*
X21856Y34723D01*
X21891Y34809D01*
X21903Y34900D01*
X21891Y34991D01*
X21856Y35077D01*
X21800Y35150D01*
X21727Y35206D01*
X21641Y35241D01*
X21550Y35253D01*
X21459Y35241D01*
X21373Y35206D01*
X21300Y35150D01*
X21246Y35079D01*
X20216D01*
X20200Y35100D01*
X20127Y35156D01*
X20100Y35167D01*
Y47250D01*
X22850D01*
Y39400D01*
D02*
G37*
G36*
X51350Y43600D02*
Y42903D01*
X48889D01*
X48852Y42952D01*
X48749Y43031D01*
X48629Y43081D01*
X48500Y43098D01*
X48371Y43081D01*
X48251Y43031D01*
X48215Y43003D01*
X42308D01*
X42162Y43150D01*
X42164Y43172D01*
X42174Y43200D01*
X51300D01*
X51215Y43668D01*
X51259Y43691D01*
X51350Y43600D01*
D02*
G37*
G36*
X38591Y43116D02*
X38631Y43018D01*
X38695Y42935D01*
X39012Y42618D01*
X38991Y42568D01*
X37493D01*
Y40550D01*
X39650D01*
X41807D01*
Y42298D01*
X41839Y42311D01*
X41857Y42314D01*
X41940Y42251D01*
X42037Y42210D01*
X42141Y42197D01*
X42141Y42197D01*
X48215D01*
X48251Y42169D01*
X48371Y42119D01*
X48500Y42102D01*
X48554Y42109D01*
X48651Y42097D01*
X51350D01*
Y38821D01*
X50433Y37903D01*
X50000D01*
X49896Y37890D01*
X49798Y37849D01*
X49715Y37785D01*
X49651Y37702D01*
X49610Y37604D01*
X49597Y37500D01*
X49610Y37396D01*
X49651Y37298D01*
X49715Y37215D01*
X49798Y37151D01*
X49896Y37110D01*
X50000Y37097D01*
X50600D01*
X50600Y37097D01*
X50704Y37110D01*
X50802Y37151D01*
X50885Y37215D01*
X51304Y37633D01*
X51350Y37614D01*
Y36989D01*
X50334D01*
X50237Y36970D01*
X50154Y36914D01*
X48541Y35302D01*
X48459Y35291D01*
X48373Y35256D01*
X48300Y35200D01*
X48244Y35127D01*
X48209Y35041D01*
X48197Y34950D01*
X48209Y34859D01*
X48244Y34773D01*
X48300Y34700D01*
X48373Y34644D01*
X48459Y34609D01*
X48550Y34597D01*
X48641Y34609D01*
X48727Y34644D01*
X48800Y34700D01*
X48856Y34773D01*
X48891Y34859D01*
X48902Y34941D01*
X50440Y36479D01*
X51350D01*
Y20950D01*
X50462D01*
X50446Y20997D01*
X50450Y21000D01*
X50506Y21073D01*
X50541Y21159D01*
X50546Y21200D01*
X49854D01*
X49859Y21159D01*
X49894Y21073D01*
X49950Y21000D01*
X49954Y20997D01*
X49938Y20950D01*
X45995D01*
X45978Y21000D01*
X46051Y21056D01*
X46124Y21151D01*
X46169Y21261D01*
X46185Y21380D01*
X46169Y21499D01*
X46124Y21609D01*
X46051Y21704D01*
X45956Y21777D01*
X45845Y21823D01*
X45727Y21838D01*
X45608Y21823D01*
X45498Y21777D01*
X45403Y21704D01*
X45330Y21609D01*
X45284Y21499D01*
X45269Y21380D01*
X45284Y21261D01*
X45330Y21151D01*
X45403Y21056D01*
X45476Y21000D01*
X45459Y20950D01*
X32019D01*
X32002Y21000D01*
X32074Y21056D01*
X32147Y21151D01*
X32193Y21261D01*
X32209Y21380D01*
X32193Y21499D01*
X32147Y21609D01*
X32074Y21704D01*
X31980Y21777D01*
X31869Y21823D01*
X31750Y21838D01*
X31632Y21823D01*
X31521Y21777D01*
X31426Y21704D01*
X31354Y21609D01*
X31308Y21499D01*
X31292Y21380D01*
X31308Y21261D01*
X31354Y21151D01*
X31426Y21056D01*
X31499Y21000D01*
X31482Y20950D01*
X28800D01*
X28700Y20850D01*
X28650Y20900D01*
Y39615D01*
X28986D01*
Y40168D01*
Y40720D01*
X28650D01*
Y41977D01*
X28986D01*
Y42530D01*
Y43083D01*
X28650D01*
Y43200D01*
X32141D01*
X32972Y42369D01*
Y41977D01*
X33059D01*
Y40720D01*
X32972D01*
Y39615D01*
X34156D01*
Y40720D01*
X34068D01*
Y41977D01*
X34156D01*
Y43083D01*
X33685D01*
X33614Y43154D01*
X33633Y43200D01*
X34397D01*
X34409Y43109D01*
X34444Y43023D01*
X34500Y42950D01*
X34573Y42894D01*
X34659Y42859D01*
X34700Y42854D01*
Y43200D01*
X34800D01*
Y42854D01*
X34841Y42859D01*
X34927Y42894D01*
X35000Y42950D01*
X35056Y43023D01*
X35091Y43109D01*
X35103Y43200D01*
X36096D01*
Y36459D01*
X33193Y33557D01*
X33113Y33452D01*
X33063Y33331D01*
X33046Y33200D01*
Y32600D01*
X32750D01*
Y32250D01*
Y31900D01*
X33050D01*
Y32020D01*
X33100Y32030D01*
X33113Y31998D01*
X33146Y31956D01*
Y30950D01*
X33163Y30819D01*
X33213Y30698D01*
X33293Y30593D01*
X33398Y30513D01*
X33519Y30463D01*
X33650Y30446D01*
X33781Y30463D01*
X33902Y30513D01*
X34007Y30593D01*
X34087Y30698D01*
X34137Y30819D01*
X34148Y30901D01*
X34198D01*
X34207Y30831D01*
X34253Y30721D01*
X34326Y30626D01*
X34421Y30553D01*
X34531Y30507D01*
X34650Y30492D01*
X34769Y30507D01*
X34879Y30553D01*
X34974Y30626D01*
X35047Y30721D01*
X35093Y30831D01*
X35108Y30950D01*
X35093Y31069D01*
X35047Y31179D01*
X34974Y31274D01*
X34879Y31347D01*
X34769Y31393D01*
X34650Y31408D01*
X34531Y31393D01*
X34421Y31347D01*
X34326Y31274D01*
X34253Y31179D01*
X34207Y31069D01*
X34204Y31045D01*
X34154Y31049D01*
Y32250D01*
X34137Y32381D01*
X34087Y32502D01*
X34054Y32544D01*
Y32991D01*
X36725Y35662D01*
X38296Y34091D01*
Y32159D01*
X38243Y32107D01*
X38163Y32002D01*
X38113Y31881D01*
X38096Y31750D01*
Y31192D01*
X38051Y31180D01*
X38046Y31181D01*
X37974Y31274D01*
X37879Y31347D01*
X37769Y31393D01*
X37650Y31408D01*
X37531Y31393D01*
X37421Y31347D01*
X37326Y31274D01*
X37253Y31179D01*
X37207Y31069D01*
X37192Y30950D01*
X37207Y30831D01*
X37253Y30721D01*
X37326Y30626D01*
X37421Y30553D01*
X37531Y30507D01*
X37650Y30492D01*
X37769Y30507D01*
X37879Y30553D01*
X37974Y30626D01*
X38046Y30719D01*
X38051Y30720D01*
X38096Y30708D01*
Y29819D01*
X38113Y29688D01*
X38163Y29566D01*
X38243Y29462D01*
X38712Y28993D01*
X38816Y28913D01*
X38843Y28902D01*
X38836Y28851D01*
X38827Y28850D01*
X38500D01*
Y28523D01*
X38497Y28500D01*
X38500Y28477D01*
Y28150D01*
X38827D01*
X38850Y28147D01*
X38873Y28150D01*
X39200D01*
Y28477D01*
X39203Y28500D01*
X39200Y28523D01*
Y28846D01*
X39400D01*
Y28550D01*
X39750D01*
X40100D01*
Y28846D01*
X43041D01*
X43496Y28391D01*
Y28050D01*
Y27044D01*
X43463Y27002D01*
X43413Y26881D01*
X43402Y26799D01*
X43352D01*
X43343Y26869D01*
X43297Y26979D01*
X43224Y27074D01*
X43129Y27147D01*
X43019Y27193D01*
X42900Y27208D01*
X42781Y27193D01*
X42671Y27147D01*
X42576Y27074D01*
X42503Y26979D01*
X42457Y26869D01*
X42442Y26750D01*
X42457Y26631D01*
X42503Y26521D01*
X42576Y26426D01*
X42671Y26353D01*
X42781Y26307D01*
X42900Y26292D01*
X43019Y26307D01*
X43129Y26353D01*
X43224Y26426D01*
X43297Y26521D01*
X43343Y26631D01*
X43352Y26701D01*
X43402D01*
X43413Y26619D01*
X43463Y26498D01*
X43543Y26393D01*
X43648Y26313D01*
X43769Y26263D01*
X43900Y26246D01*
X44031Y26263D01*
X44152Y26313D01*
X44257Y26393D01*
X44357Y26493D01*
X44437Y26598D01*
X44487Y26719D01*
X44504Y26850D01*
Y27700D01*
X44800D01*
Y28050D01*
Y28400D01*
X44504D01*
Y28600D01*
X44487Y28731D01*
X44437Y28852D01*
X44357Y28957D01*
X43607Y29707D01*
X43502Y29787D01*
X43381Y29837D01*
X43250Y29854D01*
X39278D01*
X39104Y30028D01*
Y30539D01*
X39152Y30548D01*
X39198Y30437D01*
X39271Y30343D01*
X39366Y30270D01*
X39476Y30224D01*
X39595Y30208D01*
X39713Y30224D01*
X39824Y30270D01*
X39919Y30343D01*
X39992Y30437D01*
X40038Y30548D01*
X40053Y30667D01*
X40038Y30785D01*
X39992Y30896D01*
X39919Y30991D01*
X39824Y31063D01*
X39713Y31109D01*
X39595Y31125D01*
X39476Y31109D01*
X39366Y31063D01*
X39271Y30991D01*
X39198Y30896D01*
X39152Y30785D01*
X39104Y30795D01*
Y31541D01*
X39157Y31593D01*
X39237Y31698D01*
X39287Y31819D01*
X39304Y31950D01*
Y34300D01*
X39287Y34431D01*
X39237Y34552D01*
X39157Y34657D01*
X37207Y36607D01*
X37104Y36685D01*
Y43200D01*
X38580D01*
X38591Y43116D01*
D02*
G37*
%LPC*%
G36*
X57000Y45596D02*
X56959Y45591D01*
X56873Y45556D01*
X56800Y45500D01*
X56744Y45427D01*
X56709Y45341D01*
X56704Y45300D01*
X57000D01*
Y45596D01*
D02*
G37*
G36*
Y45200D02*
X56704D01*
X56709Y45159D01*
X56744Y45073D01*
X56800Y45000D01*
X56873Y44944D01*
X56959Y44909D01*
X57000Y44904D01*
Y45200D01*
D02*
G37*
G36*
X20750Y43296D02*
Y43000D01*
X21046D01*
X21041Y43041D01*
X21006Y43127D01*
X20950Y43200D01*
X20877Y43256D01*
X20791Y43291D01*
X20750Y43296D01*
D02*
G37*
G36*
X20650D02*
X20609Y43291D01*
X20523Y43256D01*
X20450Y43200D01*
X20394Y43127D01*
X20359Y43041D01*
X20354Y43000D01*
X20650D01*
Y43296D01*
D02*
G37*
G36*
X21046Y42900D02*
X20750D01*
Y42604D01*
X20791Y42609D01*
X20877Y42644D01*
X20950Y42700D01*
X21006Y42773D01*
X21041Y42859D01*
X21046Y42900D01*
D02*
G37*
G36*
X20650D02*
X20354D01*
X20359Y42859D01*
X20394Y42773D01*
X20450Y42700D01*
X20523Y42644D01*
X20609Y42609D01*
X20650Y42604D01*
Y42900D01*
D02*
G37*
G36*
X23742Y39291D02*
X23200D01*
Y38887D01*
X23742D01*
Y39291D01*
D02*
G37*
G36*
X23100D02*
X22558D01*
Y38887D01*
X23100D01*
Y39291D01*
D02*
G37*
G36*
X23742Y38787D02*
X23200D01*
Y38383D01*
X23742D01*
Y38787D01*
D02*
G37*
G36*
X23100D02*
X22558D01*
Y38383D01*
X23100D01*
Y38787D01*
D02*
G37*
G36*
X23288Y38311D02*
X23200D01*
Y37903D01*
X23739D01*
X23730Y37971D01*
X23685Y38082D01*
X23612Y38177D01*
X23517Y38250D01*
X23406Y38295D01*
X23288Y38311D01*
D02*
G37*
G36*
X23100D02*
X23012D01*
X22894Y38295D01*
X22783Y38250D01*
X22688Y38177D01*
X22615Y38082D01*
X22570Y37971D01*
X22561Y37903D01*
X23100D01*
Y38311D01*
D02*
G37*
G36*
X23739Y37803D02*
X23200D01*
Y37395D01*
X23288D01*
X23406Y37410D01*
X23517Y37456D01*
X23612Y37529D01*
X23685Y37624D01*
X23730Y37734D01*
X23739Y37803D01*
D02*
G37*
G36*
X23100D02*
X22561D01*
X22570Y37734D01*
X22615Y37624D01*
X22688Y37529D01*
X22783Y37456D01*
X22894Y37410D01*
X23012Y37395D01*
X23100D01*
Y37803D01*
D02*
G37*
G36*
X23288Y37327D02*
X23012D01*
X22894Y37311D01*
X22783Y37265D01*
X22688Y37193D01*
X22615Y37098D01*
X22570Y36987D01*
X22554Y36869D01*
X22570Y36750D01*
X22615Y36639D01*
X22688Y36544D01*
X22783Y36472D01*
X22894Y36426D01*
X23012Y36410D01*
X23288D01*
X23406Y36426D01*
X23517Y36472D01*
X23612Y36544D01*
X23685Y36639D01*
X23730Y36750D01*
X23746Y36869D01*
X23730Y36987D01*
X23685Y37098D01*
X23612Y37193D01*
X23517Y37265D01*
X23406Y37311D01*
X23288Y37327D01*
D02*
G37*
G36*
Y36342D02*
X23012D01*
X22894Y36327D01*
X22783Y36281D01*
X22688Y36208D01*
X22615Y36113D01*
X22570Y36003D01*
X22554Y35884D01*
X22570Y35766D01*
X22615Y35655D01*
X22688Y35560D01*
X22783Y35487D01*
X22894Y35442D01*
X23012Y35426D01*
X23288D01*
X23406Y35442D01*
X23517Y35487D01*
X23612Y35560D01*
X23685Y35655D01*
X23730Y35766D01*
X23746Y35884D01*
X23730Y36003D01*
X23685Y36113D01*
X23612Y36208D01*
X23517Y36281D01*
X23406Y36327D01*
X23288Y36342D01*
D02*
G37*
G36*
Y35358D02*
X23012D01*
X22894Y35343D01*
X22783Y35297D01*
X22688Y35224D01*
X22615Y35129D01*
X22570Y35019D01*
X22554Y34900D01*
X22570Y34781D01*
X22615Y34671D01*
X22688Y34576D01*
X22783Y34503D01*
X22894Y34457D01*
X23012Y34442D01*
X23288D01*
X23406Y34457D01*
X23517Y34503D01*
X23612Y34576D01*
X23685Y34671D01*
X23730Y34781D01*
X23746Y34900D01*
X23730Y35019D01*
X23685Y35129D01*
X23612Y35224D01*
X23517Y35297D01*
X23406Y35343D01*
X23288Y35358D01*
D02*
G37*
G36*
Y34374D02*
X23012D01*
X22894Y34358D01*
X22783Y34313D01*
X22688Y34240D01*
X22615Y34145D01*
X22570Y34034D01*
X22554Y33916D01*
X22570Y33797D01*
X22615Y33687D01*
X22688Y33592D01*
X22783Y33519D01*
X22894Y33473D01*
X23012Y33458D01*
X23288D01*
X23406Y33473D01*
X23517Y33519D01*
X23612Y33592D01*
X23685Y33687D01*
X23730Y33797D01*
X23746Y33916D01*
X23730Y34034D01*
X23685Y34145D01*
X23612Y34240D01*
X23517Y34313D01*
X23406Y34358D01*
X23288Y34374D01*
D02*
G37*
G36*
X23642Y31107D02*
X22458D01*
Y30198D01*
X23642D01*
Y31107D01*
D02*
G37*
G36*
X23188Y30127D02*
X22912D01*
X22794Y30111D01*
X22683Y30065D01*
X22588Y29993D01*
X22515Y29898D01*
X22470Y29787D01*
X22454Y29669D01*
X22470Y29550D01*
X22515Y29439D01*
X22588Y29344D01*
X22683Y29272D01*
X22794Y29226D01*
X22912Y29210D01*
X23188D01*
X23306Y29226D01*
X23417Y29272D01*
X23512Y29344D01*
X23585Y29439D01*
X23630Y29550D01*
X23646Y29669D01*
X23630Y29787D01*
X23585Y29898D01*
X23512Y29993D01*
X23417Y30065D01*
X23306Y30111D01*
X23188Y30127D01*
D02*
G37*
G36*
Y29142D02*
X22912D01*
X22794Y29127D01*
X22683Y29081D01*
X22588Y29008D01*
X22515Y28913D01*
X22470Y28803D01*
X22454Y28684D01*
X22470Y28566D01*
X22515Y28455D01*
X22588Y28360D01*
X22683Y28287D01*
X22794Y28242D01*
X22912Y28226D01*
X23188D01*
X23306Y28242D01*
X23417Y28287D01*
X23512Y28360D01*
X23585Y28455D01*
X23630Y28566D01*
X23646Y28684D01*
X23630Y28803D01*
X23585Y28913D01*
X23512Y29008D01*
X23417Y29081D01*
X23306Y29127D01*
X23188Y29142D01*
D02*
G37*
G36*
Y28158D02*
X22912D01*
X22794Y28143D01*
X22683Y28097D01*
X22588Y28024D01*
X22515Y27929D01*
X22470Y27819D01*
X22454Y27700D01*
X22470Y27581D01*
X22515Y27471D01*
X22588Y27376D01*
X22683Y27303D01*
X22794Y27257D01*
X22912Y27242D01*
X23188D01*
X23306Y27257D01*
X23417Y27303D01*
X23512Y27376D01*
X23585Y27471D01*
X23630Y27581D01*
X23646Y27700D01*
X23630Y27819D01*
X23585Y27929D01*
X23512Y28024D01*
X23417Y28097D01*
X23306Y28143D01*
X23188Y28158D01*
D02*
G37*
G36*
Y27174D02*
X22912D01*
X22794Y27158D01*
X22683Y27113D01*
X22588Y27040D01*
X22515Y26945D01*
X22470Y26834D01*
X22454Y26716D01*
X22470Y26597D01*
X22515Y26487D01*
X22588Y26392D01*
X22683Y26319D01*
X22794Y26273D01*
X22912Y26258D01*
X23188D01*
X23306Y26273D01*
X23417Y26319D01*
X23512Y26392D01*
X23585Y26487D01*
X23630Y26597D01*
X23646Y26716D01*
X23630Y26834D01*
X23585Y26945D01*
X23512Y27040D01*
X23417Y27113D01*
X23306Y27158D01*
X23188Y27174D01*
D02*
G37*
G36*
Y26190D02*
X22912D01*
X22794Y26174D01*
X22683Y26128D01*
X22588Y26056D01*
X22515Y25961D01*
X22470Y25850D01*
X22454Y25731D01*
X22470Y25613D01*
X22515Y25502D01*
X22588Y25407D01*
X22683Y25335D01*
X22794Y25289D01*
X22912Y25273D01*
X23188D01*
X23306Y25289D01*
X23417Y25335D01*
X23512Y25407D01*
X23585Y25502D01*
X23630Y25613D01*
X23646Y25731D01*
X23630Y25850D01*
X23585Y25961D01*
X23512Y26056D01*
X23417Y26128D01*
X23306Y26174D01*
X23188Y26190D01*
D02*
G37*
G36*
X50546Y20150D02*
X50250D01*
Y19854D01*
X50291Y19859D01*
X50377Y19894D01*
X50450Y19950D01*
X50506Y20023D01*
X50541Y20109D01*
X50546Y20150D01*
D02*
G37*
G36*
X50150D02*
X49854D01*
X49859Y20109D01*
X49894Y20023D01*
X49950Y19950D01*
X50023Y19894D01*
X50109Y19859D01*
X50150Y19854D01*
Y20150D01*
D02*
G37*
G36*
X53521Y20408D02*
X53246D01*
X53127Y20393D01*
X53017Y20347D01*
X52950Y20296D01*
X52922Y20274D01*
X52849Y20179D01*
X52803Y20069D01*
X52787Y19950D01*
X52803Y19831D01*
X52849Y19721D01*
X52922Y19626D01*
X52950Y19604D01*
X53017Y19553D01*
X53127Y19507D01*
X53246Y19492D01*
X53521D01*
X53640Y19507D01*
X53750Y19553D01*
X53845Y19626D01*
X53918Y19721D01*
X53964Y19831D01*
X53980Y19950D01*
X53964Y20069D01*
X53918Y20179D01*
X53845Y20274D01*
X53750Y20347D01*
X53640Y20393D01*
X53521Y20408D01*
D02*
G37*
G36*
Y19424D02*
X53433D01*
Y19016D01*
X53973D01*
X53964Y19084D01*
X53918Y19195D01*
X53845Y19290D01*
X53750Y19363D01*
X53640Y19408D01*
X53521Y19424D01*
D02*
G37*
G36*
X53333D02*
X53246D01*
X53127Y19408D01*
X53017Y19363D01*
X52950Y19312D01*
X52922Y19290D01*
X52849Y19195D01*
X52803Y19084D01*
X52794Y19016D01*
X53333D01*
Y19084D01*
Y19424D01*
D02*
G37*
G36*
X53973Y18916D02*
X53433D01*
Y18507D01*
X53521D01*
X53640Y18523D01*
X53750Y18569D01*
X53845Y18642D01*
X53918Y18737D01*
X53964Y18847D01*
X53973Y18916D01*
D02*
G37*
G36*
X53333D02*
X52794D01*
X52803Y18847D01*
X52849Y18737D01*
X52922Y18642D01*
X52950Y18620D01*
X53017Y18569D01*
X53127Y18523D01*
X53246Y18507D01*
X53333D01*
Y18916D01*
D02*
G37*
G36*
X53976Y18436D02*
X53433D01*
Y18032D01*
X53976D01*
Y18436D01*
D02*
G37*
G36*
X53333D02*
X52791D01*
Y18032D01*
X53333D01*
Y18436D01*
D02*
G37*
G36*
X53976Y17931D02*
X53433D01*
Y17527D01*
X53976D01*
Y17931D01*
D02*
G37*
G36*
X53333D02*
X52791D01*
Y17527D01*
X53333D01*
Y17931D01*
D02*
G37*
G36*
X48350Y15953D02*
X48259Y15941D01*
X48173Y15906D01*
X48100Y15850D01*
X48044Y15777D01*
X48009Y15691D01*
X47997Y15600D01*
X48009Y15509D01*
X48044Y15423D01*
X48100Y15350D01*
X48173Y15294D01*
X48259Y15259D01*
X48264Y15258D01*
X49136Y14386D01*
X49136Y14386D01*
X49199Y14338D01*
X49272Y14308D01*
X49350Y14297D01*
X49350Y14297D01*
X51869D01*
X51873Y14294D01*
X51959Y14259D01*
X52050Y14247D01*
X52141Y14259D01*
X52227Y14294D01*
X52300Y14350D01*
X52356Y14423D01*
X52391Y14509D01*
X52403Y14600D01*
X52391Y14691D01*
X52356Y14777D01*
X52300Y14850D01*
X52227Y14906D01*
X52141Y14941D01*
X52050Y14953D01*
X51959Y14941D01*
X51873Y14906D01*
X51869Y14903D01*
X49475D01*
X48692Y15686D01*
X48691Y15691D01*
X48656Y15777D01*
X48600Y15850D01*
X48527Y15906D01*
X48441Y15941D01*
X48350Y15953D01*
D02*
G37*
G36*
X57000Y14146D02*
X56959Y14141D01*
X56873Y14106D01*
X56800Y14050D01*
X56744Y13977D01*
X56709Y13891D01*
X56704Y13850D01*
X57000D01*
Y14146D01*
D02*
G37*
G36*
X47450Y16003D02*
X47359Y15991D01*
X47273Y15956D01*
X47200Y15900D01*
X47144Y15827D01*
X47109Y15741D01*
X47097Y15650D01*
X47109Y15559D01*
X47144Y15473D01*
X47147Y15469D01*
Y14031D01*
X47144Y14027D01*
X47109Y13941D01*
X47097Y13850D01*
X47109Y13759D01*
X47144Y13673D01*
X47200Y13600D01*
X47273Y13544D01*
X47359Y13509D01*
X47450Y13497D01*
X47541Y13509D01*
X47627Y13544D01*
X47700Y13600D01*
X47756Y13673D01*
X47791Y13759D01*
X47803Y13850D01*
X47791Y13941D01*
X47756Y14027D01*
X47753Y14031D01*
Y15469D01*
X47756Y15473D01*
X47791Y15559D01*
X47803Y15650D01*
X47791Y15741D01*
X47756Y15827D01*
X47700Y15900D01*
X47627Y15956D01*
X47541Y15991D01*
X47450Y16003D01*
D02*
G37*
G36*
X57000Y13750D02*
X56704D01*
X56709Y13709D01*
X56744Y13623D01*
X56800Y13550D01*
X56873Y13494D01*
X56959Y13459D01*
X57000Y13454D01*
Y13750D01*
D02*
G37*
G36*
X29250Y16203D02*
X29159Y16191D01*
X29073Y16156D01*
X29000Y16100D01*
X28944Y16027D01*
X28909Y15941D01*
X28897Y15850D01*
X28909Y15759D01*
X28944Y15673D01*
X28947Y15669D01*
Y13781D01*
X28944Y13777D01*
X28909Y13691D01*
X28897Y13600D01*
X28909Y13509D01*
X28944Y13423D01*
X29000Y13350D01*
X29073Y13294D01*
X29159Y13259D01*
X29250Y13247D01*
X29341Y13259D01*
X29427Y13294D01*
X29500Y13350D01*
X29556Y13423D01*
X29591Y13509D01*
X29603Y13600D01*
X29591Y13691D01*
X29556Y13777D01*
X29553Y13781D01*
Y15669D01*
X29556Y15673D01*
X29591Y15759D01*
X29603Y15850D01*
X29591Y15941D01*
X29556Y16027D01*
X29500Y16100D01*
X29427Y16156D01*
X29341Y16191D01*
X29250Y16203D01*
D02*
G37*
G36*
X53300Y13828D02*
X53127Y13815D01*
X52959Y13774D01*
X52799Y13708D01*
X52651Y13618D01*
X52520Y13505D01*
X52407Y13374D01*
X52317Y13226D01*
X52251Y13066D01*
X52210Y12898D01*
X52197Y12725D01*
X52210Y12552D01*
X52251Y12384D01*
X52317Y12224D01*
X52407Y12076D01*
X52520Y11945D01*
X52651Y11832D01*
X52799Y11742D01*
X52942Y11683D01*
X52959Y11676D01*
X53127Y11635D01*
X53300Y11622D01*
X53473Y11635D01*
X53641Y11676D01*
X53801Y11742D01*
X53949Y11832D01*
X54080Y11945D01*
X54193Y12076D01*
X54283Y12224D01*
X54349Y12384D01*
X54390Y12552D01*
X54403Y12725D01*
X54390Y12898D01*
X54349Y13066D01*
X54283Y13226D01*
X54193Y13374D01*
X54080Y13505D01*
X53949Y13618D01*
X53801Y13708D01*
X53641Y13774D01*
X53473Y13815D01*
X53300Y13828D01*
D02*
G37*
G36*
X24500D02*
X24327Y13815D01*
X24159Y13774D01*
X23999Y13708D01*
X23851Y13618D01*
X23720Y13505D01*
X23607Y13374D01*
X23517Y13226D01*
X23451Y13066D01*
X23410Y12898D01*
X23397Y12725D01*
X23410Y12552D01*
X23451Y12384D01*
X23517Y12224D01*
X23607Y12076D01*
X23720Y11945D01*
X23851Y11832D01*
X23999Y11742D01*
X24159Y11676D01*
X24327Y11635D01*
X24500Y11622D01*
X24673Y11635D01*
X24841Y11676D01*
X25001Y11742D01*
X25149Y11832D01*
X25280Y11945D01*
X25393Y12076D01*
X25483Y12224D01*
X25549Y12384D01*
X25590Y12552D01*
X25603Y12725D01*
X25590Y12898D01*
X25549Y13066D01*
X25483Y13226D01*
X25393Y13374D01*
X25280Y13505D01*
X25149Y13618D01*
X25001Y13708D01*
X24841Y13774D01*
X24673Y13815D01*
X24500Y13828D01*
D02*
G37*
G36*
X20850Y11896D02*
Y11600D01*
X21146D01*
X21141Y11641D01*
X21106Y11727D01*
X21050Y11800D01*
X20977Y11856D01*
X20891Y11891D01*
X20850Y11896D01*
D02*
G37*
G36*
X20750D02*
X20709Y11891D01*
X20623Y11856D01*
X20550Y11800D01*
X20494Y11727D01*
X20459Y11641D01*
X20454Y11600D01*
X20750D01*
Y11896D01*
D02*
G37*
G36*
X45987Y13504D02*
X45793Y13485D01*
X45608Y13429D01*
X45436Y13337D01*
X45286Y13214D01*
X45163Y13064D01*
X45071Y12893D01*
X45015Y12707D01*
X44996Y12514D01*
X45015Y12321D01*
X45071Y12135D01*
X45163Y11963D01*
X45286Y11813D01*
X45436Y11690D01*
X45608Y11599D01*
X45793Y11542D01*
X45987Y11523D01*
X46180Y11542D01*
X46366Y11599D01*
X46537Y11690D01*
X46687Y11813D01*
X46810Y11963D01*
X46902Y12135D01*
X46958Y12321D01*
X46977Y12514D01*
X46958Y12707D01*
X46902Y12893D01*
X46810Y13064D01*
X46687Y13214D01*
X46537Y13337D01*
X46366Y13429D01*
X46180Y13485D01*
X45987Y13504D01*
D02*
G37*
G36*
X31491D02*
X31297Y13485D01*
X31111Y13429D01*
X30940Y13337D01*
X30790Y13214D01*
X30667Y13064D01*
X30575Y12893D01*
X30519Y12707D01*
X30500Y12514D01*
X30519Y12321D01*
X30575Y12135D01*
X30667Y11963D01*
X30790Y11813D01*
X30940Y11690D01*
X31111Y11599D01*
X31297Y11542D01*
X31491Y11523D01*
X31684Y11542D01*
X31870Y11599D01*
X32041Y11690D01*
X32191Y11813D01*
X32314Y11963D01*
X32406Y12135D01*
X32462Y12321D01*
X32481Y12514D01*
X32462Y12707D01*
X32406Y12893D01*
X32314Y13064D01*
X32191Y13214D01*
X32041Y13337D01*
X31870Y13429D01*
X31684Y13485D01*
X31491Y13504D01*
D02*
G37*
G36*
X21146Y11500D02*
X20850D01*
Y11204D01*
X20891Y11209D01*
X20977Y11244D01*
X21050Y11300D01*
X21106Y11373D01*
X21141Y11459D01*
X21146Y11500D01*
D02*
G37*
G36*
X20750D02*
X20454D01*
X20459Y11459D01*
X20494Y11373D01*
X20550Y11300D01*
X20623Y11244D01*
X20709Y11209D01*
X20750Y11204D01*
Y11500D01*
D02*
G37*
G36*
X29628Y43083D02*
X29086D01*
Y42580D01*
X29628D01*
Y43083D01*
D02*
G37*
G36*
Y42480D02*
X29086D01*
Y41977D01*
X29628D01*
Y42480D01*
D02*
G37*
G36*
X31300Y42358D02*
X31181Y42343D01*
X31071Y42297D01*
X30976Y42224D01*
X30903Y42129D01*
X30857Y42019D01*
X30842Y41900D01*
X30857Y41781D01*
X30903Y41671D01*
X30976Y41576D01*
X31071Y41503D01*
X31181Y41457D01*
X31300Y41442D01*
X31419Y41457D01*
X31529Y41503D01*
X31624Y41576D01*
X31697Y41671D01*
X31743Y41781D01*
X31758Y41900D01*
X31743Y42019D01*
X31697Y42129D01*
X31624Y42224D01*
X31529Y42297D01*
X31419Y42343D01*
X31300Y42358D01*
D02*
G37*
G36*
X29628Y40720D02*
X29086D01*
Y40218D01*
X29628D01*
Y40720D01*
D02*
G37*
G36*
X50684Y40452D02*
Y40050D01*
X51086D01*
X51077Y40119D01*
X51031Y40229D01*
X50958Y40324D01*
X50863Y40397D01*
X50753Y40443D01*
X50684Y40452D01*
D02*
G37*
G36*
X50584D02*
X50516Y40443D01*
X50405Y40397D01*
X50310Y40324D01*
X50237Y40229D01*
X50192Y40119D01*
X50183Y40050D01*
X50584D01*
Y40452D01*
D02*
G37*
G36*
X31300Y40547D02*
X31192Y40533D01*
X31091Y40491D01*
X31004Y40424D01*
X30938Y40338D01*
X30896Y40237D01*
X30881Y40128D01*
X30896Y40020D01*
X30938Y39919D01*
X31004Y39832D01*
X31091Y39766D01*
X31192Y39724D01*
X31300Y39710D01*
X31408Y39724D01*
X31509Y39766D01*
X31596Y39832D01*
X31662Y39919D01*
X31704Y40020D01*
X31719Y40128D01*
X31704Y40237D01*
X31662Y40338D01*
X31596Y40424D01*
X31509Y40491D01*
X31408Y40533D01*
X31300Y40547D01*
D02*
G37*
G36*
X29628Y40118D02*
X29086D01*
Y39615D01*
X29628D01*
Y40118D01*
D02*
G37*
G36*
X51086Y39950D02*
X50684D01*
Y39548D01*
X50753Y39557D01*
X50863Y39603D01*
X50958Y39676D01*
X51031Y39771D01*
X51077Y39881D01*
X51086Y39950D01*
D02*
G37*
G36*
X50584D02*
X50183D01*
X50192Y39881D01*
X50237Y39771D01*
X50310Y39676D01*
X50405Y39603D01*
X50516Y39557D01*
X50584Y39548D01*
Y39950D01*
D02*
G37*
G36*
X49120Y40454D02*
X48211D01*
Y39546D01*
X49120D01*
Y40454D01*
D02*
G37*
G36*
X41807Y40450D02*
X39700D01*
Y38431D01*
X41807D01*
Y40450D01*
D02*
G37*
G36*
X39600D02*
X37493D01*
Y38431D01*
X39600D01*
Y40450D01*
D02*
G37*
G36*
X48550Y38131D02*
Y37689D01*
X48991D01*
X48981Y37768D01*
X48931Y37888D01*
X48852Y37991D01*
X48749Y38071D01*
X48629Y38120D01*
X48550Y38131D01*
D02*
G37*
G36*
X48450D02*
X48371Y38120D01*
X48251Y38071D01*
X48148Y37991D01*
X48069Y37888D01*
X48019Y37768D01*
X48009Y37689D01*
X48450D01*
Y38131D01*
D02*
G37*
G36*
X48991Y37589D02*
X48550D01*
Y37148D01*
X48629Y37158D01*
X48749Y37208D01*
X48852Y37287D01*
X48931Y37390D01*
X48981Y37510D01*
X48991Y37589D01*
D02*
G37*
G36*
X48450D02*
X48009D01*
X48019Y37510D01*
X48069Y37390D01*
X48148Y37287D01*
X48251Y37208D01*
X48371Y37158D01*
X48450Y37148D01*
Y37589D01*
D02*
G37*
G36*
X31823Y36778D02*
X31705Y36763D01*
X31594Y36717D01*
X31499Y36644D01*
X31426Y36549D01*
X31381Y36439D01*
X31365Y36320D01*
X31381Y36201D01*
X31426Y36091D01*
X31499Y35996D01*
X31594Y35923D01*
X31705Y35877D01*
X31823Y35862D01*
X31942Y35877D01*
X32052Y35923D01*
X32147Y35996D01*
X32220Y36091D01*
X32266Y36201D01*
X32281Y36320D01*
X32266Y36439D01*
X32220Y36549D01*
X32147Y36644D01*
X32052Y36717D01*
X31942Y36763D01*
X31823Y36778D01*
D02*
G37*
G36*
X45800D02*
X45681Y36763D01*
X45570Y36717D01*
X45476Y36644D01*
X45403Y36549D01*
X45357Y36439D01*
X45341Y36320D01*
X45357Y36201D01*
X45403Y36091D01*
X45476Y35996D01*
X45570Y35923D01*
X45681Y35877D01*
X45800Y35862D01*
X45826Y35865D01*
X45873Y35819D01*
X45849Y35772D01*
X45800Y35778D01*
X45681Y35763D01*
X45570Y35717D01*
X45476Y35644D01*
X45403Y35549D01*
X45357Y35439D01*
X45341Y35320D01*
X45357Y35201D01*
X45403Y35091D01*
X45476Y34996D01*
X45570Y34923D01*
X45681Y34877D01*
X45800Y34862D01*
X45918Y34877D01*
X46029Y34923D01*
X46124Y34996D01*
X46196Y35091D01*
X46242Y35201D01*
X46258Y35320D01*
X46251Y35370D01*
X46299Y35393D01*
X48047Y33644D01*
Y30081D01*
X48044Y30077D01*
X48009Y29991D01*
X47997Y29900D01*
X48009Y29809D01*
X48044Y29723D01*
X48100Y29650D01*
X48173Y29594D01*
X48259Y29559D01*
X48350Y29547D01*
X48441Y29559D01*
X48527Y29594D01*
X48600Y29650D01*
X48656Y29723D01*
X48691Y29809D01*
X48703Y29900D01*
X48691Y29991D01*
X48656Y30077D01*
X48653Y30081D01*
Y33770D01*
X48642Y33848D01*
X48612Y33921D01*
X48564Y33984D01*
X46254Y36293D01*
X46258Y36320D01*
X46242Y36439D01*
X46196Y36549D01*
X46124Y36644D01*
X46029Y36717D01*
X45918Y36763D01*
X45800Y36778D01*
D02*
G37*
G36*
X31823Y35778D02*
X31705Y35763D01*
X31594Y35717D01*
X31499Y35644D01*
X31426Y35549D01*
X31381Y35439D01*
X31365Y35320D01*
X31381Y35201D01*
X31426Y35091D01*
X31499Y34996D01*
X31594Y34923D01*
X31705Y34877D01*
X31823Y34862D01*
X31942Y34877D01*
X32052Y34923D01*
X32147Y34996D01*
X32220Y35091D01*
X32266Y35201D01*
X32281Y35320D01*
X32266Y35439D01*
X32220Y35549D01*
X32147Y35644D01*
X32052Y35717D01*
X31942Y35763D01*
X31823Y35778D01*
D02*
G37*
G36*
Y34778D02*
X31705Y34763D01*
X31594Y34717D01*
X31499Y34644D01*
X31426Y34549D01*
X31381Y34439D01*
X31365Y34320D01*
X31381Y34201D01*
X31426Y34091D01*
X31499Y33996D01*
X31594Y33923D01*
X31705Y33877D01*
X31823Y33862D01*
X31942Y33877D01*
X32052Y33923D01*
X32147Y33996D01*
X32220Y34091D01*
X32266Y34201D01*
X32281Y34320D01*
X32266Y34439D01*
X32220Y34549D01*
X32147Y34644D01*
X32052Y34717D01*
X31942Y34763D01*
X31823Y34778D01*
D02*
G37*
G36*
X37050Y32900D02*
X36750D01*
Y32600D01*
X37050D01*
Y32900D01*
D02*
G37*
G36*
X36650D02*
X36350D01*
Y32600D01*
X36650D01*
Y32900D01*
D02*
G37*
G36*
X32650Y32600D02*
X32350D01*
Y32300D01*
X32650D01*
Y32600D01*
D02*
G37*
G36*
X37050Y32500D02*
X36750D01*
Y32200D01*
X37050D01*
Y32500D01*
D02*
G37*
G36*
X36650D02*
X36350D01*
Y32200D01*
X36650D01*
Y32500D01*
D02*
G37*
G36*
X37600Y32903D02*
X37577Y32900D01*
X37250D01*
Y32573D01*
X37247Y32550D01*
X37250Y32527D01*
Y32200D01*
X37577D01*
X37600Y32197D01*
X37623Y32200D01*
X37950D01*
Y32527D01*
X37953Y32550D01*
X37950Y32573D01*
Y32900D01*
X37623D01*
X37600Y32903D01*
D02*
G37*
G36*
X32650Y32200D02*
X32350D01*
Y31900D01*
X32650D01*
Y32200D01*
D02*
G37*
G36*
X35700Y31402D02*
Y31000D01*
X36102D01*
X36093Y31069D01*
X36047Y31179D01*
X35974Y31274D01*
X35879Y31347D01*
X35769Y31393D01*
X35700Y31402D01*
D02*
G37*
G36*
X35600D02*
X35531Y31393D01*
X35421Y31347D01*
X35326Y31274D01*
X35253Y31179D01*
X35207Y31069D01*
X35198Y31000D01*
X35600D01*
Y31402D01*
D02*
G37*
G36*
X45800Y34778D02*
X45681Y34763D01*
X45570Y34717D01*
X45476Y34644D01*
X45403Y34549D01*
X45357Y34439D01*
X45341Y34320D01*
X45357Y34201D01*
X45403Y34091D01*
X45476Y33996D01*
X45570Y33923D01*
X45681Y33877D01*
X45800Y33862D01*
X45826Y33865D01*
X47097Y32594D01*
Y30719D01*
X47047Y30717D01*
X47031Y30883D01*
X46975Y31069D01*
X46883Y31240D01*
X46760Y31391D01*
X46610Y31514D01*
X46439Y31605D01*
X46253Y31662D01*
X46059Y31681D01*
X45866Y31662D01*
X45680Y31605D01*
X45509Y31514D01*
X45359Y31391D01*
X45236Y31240D01*
X45144Y31069D01*
X45088Y30883D01*
X45081Y30811D01*
X45030Y30804D01*
X44992Y30896D01*
X44919Y30991D01*
X44824Y31063D01*
X44713Y31109D01*
X44595Y31125D01*
X44476Y31109D01*
X44366Y31063D01*
X44271Y30991D01*
X44198Y30896D01*
X44152Y30785D01*
X44137Y30667D01*
X44152Y30548D01*
X44198Y30437D01*
X44271Y30343D01*
X44366Y30270D01*
X44476Y30224D01*
X44595Y30208D01*
X44713Y30224D01*
X44824Y30270D01*
X44919Y30343D01*
X44992Y30437D01*
X45034Y30538D01*
X45072Y30539D01*
X45084Y30536D01*
X45088Y30497D01*
X45144Y30311D01*
X45236Y30140D01*
X45359Y29990D01*
X45509Y29867D01*
X45680Y29775D01*
X45866Y29719D01*
X46059Y29700D01*
X46253Y29719D01*
X46439Y29775D01*
X46610Y29867D01*
X46760Y29990D01*
X46883Y30140D01*
X46975Y30311D01*
X47031Y30497D01*
X47047Y30663D01*
X47097Y30661D01*
Y30000D01*
X47105Y29939D01*
X47097Y29875D01*
X47109Y29784D01*
X47144Y29698D01*
X47200Y29625D01*
X47273Y29569D01*
X47359Y29534D01*
X47450Y29522D01*
X47541Y29534D01*
X47627Y29569D01*
X47700Y29625D01*
X47756Y29698D01*
X47791Y29784D01*
X47803Y29875D01*
X47791Y29966D01*
X47756Y30052D01*
X47703Y30121D01*
Y32720D01*
X47692Y32798D01*
X47662Y32871D01*
X47614Y32934D01*
X46254Y34293D01*
X46258Y34320D01*
X46242Y34439D01*
X46196Y34549D01*
X46124Y34644D01*
X46029Y34717D01*
X45918Y34763D01*
X45800Y34778D01*
D02*
G37*
G36*
X36102Y30900D02*
X35700D01*
Y30498D01*
X35769Y30507D01*
X35879Y30553D01*
X35974Y30626D01*
X36047Y30721D01*
X36093Y30831D01*
X36102Y30900D01*
D02*
G37*
G36*
X35600D02*
X35198D01*
X35207Y30831D01*
X35253Y30721D01*
X35326Y30626D01*
X35421Y30553D01*
X35531Y30507D01*
X35600Y30498D01*
Y30900D01*
D02*
G37*
G36*
X36650Y31408D02*
X36531Y31393D01*
X36421Y31347D01*
X36326Y31274D01*
X36253Y31179D01*
X36207Y31069D01*
X36192Y30950D01*
X36207Y30831D01*
X36253Y30721D01*
X36326Y30626D01*
X36421Y30553D01*
X36531Y30507D01*
X36650Y30492D01*
X36769Y30507D01*
X36879Y30553D01*
X36974Y30626D01*
X37047Y30721D01*
X37093Y30831D01*
X37108Y30950D01*
X37093Y31069D01*
X37047Y31179D01*
X36974Y31274D01*
X36879Y31347D01*
X36769Y31393D01*
X36650Y31408D01*
D02*
G37*
G36*
X43595Y31125D02*
X43476Y31109D01*
X43366Y31063D01*
X43271Y30991D01*
X43198Y30896D01*
X43152Y30785D01*
X43137Y30667D01*
X43152Y30548D01*
X43198Y30437D01*
X43271Y30343D01*
X43366Y30270D01*
X43476Y30224D01*
X43595Y30208D01*
X43713Y30224D01*
X43824Y30270D01*
X43919Y30343D01*
X43992Y30437D01*
X44038Y30548D01*
X44053Y30667D01*
X44038Y30785D01*
X43992Y30896D01*
X43919Y30991D01*
X43824Y31063D01*
X43713Y31109D01*
X43595Y31125D01*
D02*
G37*
G36*
X42595D02*
X42476Y31109D01*
X42366Y31063D01*
X42271Y30991D01*
X42198Y30896D01*
X42152Y30785D01*
X42137Y30667D01*
X42152Y30548D01*
X42198Y30437D01*
X42271Y30343D01*
X42366Y30270D01*
X42476Y30224D01*
X42595Y30208D01*
X42713Y30224D01*
X42824Y30270D01*
X42919Y30343D01*
X42992Y30437D01*
X43038Y30548D01*
X43053Y30667D01*
X43038Y30785D01*
X42992Y30896D01*
X42919Y30991D01*
X42824Y31063D01*
X42713Y31109D01*
X42595Y31125D01*
D02*
G37*
G36*
X41595D02*
X41476Y31109D01*
X41366Y31063D01*
X41271Y30991D01*
X41198Y30896D01*
X41152Y30785D01*
X41137Y30667D01*
X41152Y30548D01*
X41198Y30437D01*
X41271Y30343D01*
X41366Y30270D01*
X41476Y30224D01*
X41595Y30208D01*
X41713Y30224D01*
X41824Y30270D01*
X41919Y30343D01*
X41992Y30437D01*
X42038Y30548D01*
X42053Y30667D01*
X42038Y30785D01*
X41992Y30896D01*
X41919Y30991D01*
X41824Y31063D01*
X41713Y31109D01*
X41595Y31125D01*
D02*
G37*
G36*
X40595D02*
X40476Y31109D01*
X40366Y31063D01*
X40271Y30991D01*
X40198Y30896D01*
X40152Y30785D01*
X40137Y30667D01*
X40152Y30548D01*
X40198Y30437D01*
X40271Y30343D01*
X40366Y30270D01*
X40476Y30224D01*
X40595Y30208D01*
X40713Y30224D01*
X40824Y30270D01*
X40919Y30343D01*
X40992Y30437D01*
X41038Y30548D01*
X41053Y30667D01*
X41038Y30785D01*
X40992Y30896D01*
X40919Y30991D01*
X40824Y31063D01*
X40713Y31109D01*
X40595Y31125D01*
D02*
G37*
G36*
X31563Y31681D02*
X31370Y31662D01*
X31184Y31605D01*
X31013Y31514D01*
X30863Y31391D01*
X30740Y31240D01*
X30648Y31069D01*
X30592Y30883D01*
X30573Y30690D01*
X30592Y30497D01*
X30648Y30311D01*
X30740Y30140D01*
X30863Y29990D01*
X31013Y29867D01*
X31184Y29775D01*
X31370Y29719D01*
X31563Y29700D01*
X31757Y29719D01*
X31942Y29775D01*
X32114Y29867D01*
X32264Y29990D01*
X32387Y30140D01*
X32479Y30311D01*
X32535Y30497D01*
X32554Y30690D01*
X32535Y30883D01*
X32479Y31069D01*
X32387Y31240D01*
X32264Y31391D01*
X32114Y31514D01*
X31942Y31605D01*
X31757Y31662D01*
X31563Y31681D01*
D02*
G37*
G36*
X40100Y28450D02*
X39800D01*
Y28150D01*
X40100D01*
Y28450D01*
D02*
G37*
G36*
X39700D02*
X39400D01*
Y28150D01*
X39700D01*
Y28450D01*
D02*
G37*
G36*
X45200Y28400D02*
X44900D01*
Y28100D01*
X45200D01*
Y28400D01*
D02*
G37*
G36*
X29650Y29703D02*
X29559Y29691D01*
X29473Y29656D01*
X29400Y29600D01*
X29344Y29527D01*
X29309Y29441D01*
X29297Y29350D01*
X29309Y29259D01*
X29344Y29173D01*
X29400Y29100D01*
X29473Y29044D01*
X29559Y29009D01*
X29650Y28997D01*
X29689Y29002D01*
X29720Y28960D01*
X29694Y28927D01*
X29659Y28841D01*
X29647Y28750D01*
X29659Y28659D01*
X29694Y28573D01*
X29750Y28500D01*
X29823Y28444D01*
X29909Y28409D01*
X29940Y28405D01*
X29954Y28353D01*
X29950Y28350D01*
X29894Y28277D01*
X29859Y28191D01*
X29847Y28100D01*
X29859Y28009D01*
X29894Y27923D01*
X29950Y27850D01*
X30023Y27794D01*
X30109Y27759D01*
X30200Y27747D01*
X30291Y27759D01*
X30377Y27794D01*
X30450Y27850D01*
X30481Y27891D01*
X30944D01*
X30957Y27842D01*
X30940Y27833D01*
X30790Y27710D01*
X30667Y27560D01*
X30575Y27389D01*
X30519Y27203D01*
X30500Y27010D01*
X30519Y26817D01*
X30575Y26631D01*
X30667Y26460D01*
X30790Y26309D01*
X30940Y26186D01*
X31111Y26095D01*
X31297Y26038D01*
X31491Y26019D01*
X31684Y26038D01*
X31870Y26095D01*
X32041Y26186D01*
X32191Y26309D01*
X32314Y26460D01*
X32406Y26631D01*
X32462Y26817D01*
X32469Y26889D01*
X32520Y26896D01*
X32558Y26804D01*
X32631Y26709D01*
X32726Y26637D01*
X32837Y26591D01*
X32955Y26575D01*
X33074Y26591D01*
X33184Y26637D01*
X33279Y26709D01*
X33352Y26804D01*
X33398Y26915D01*
X33413Y27033D01*
X33398Y27152D01*
X33352Y27263D01*
X33279Y27357D01*
X33184Y27430D01*
X33074Y27476D01*
X32955Y27492D01*
X32837Y27476D01*
X32726Y27430D01*
X32631Y27357D01*
X32558Y27263D01*
X32516Y27162D01*
X32478Y27161D01*
X32466Y27164D01*
X32462Y27203D01*
X32406Y27389D01*
X32314Y27560D01*
X32191Y27710D01*
X32041Y27833D01*
X32024Y27842D01*
X32037Y27891D01*
X35319D01*
X35350Y27850D01*
X35423Y27794D01*
X35509Y27759D01*
X35600Y27747D01*
X35691Y27759D01*
X35777Y27794D01*
X35850Y27850D01*
X35906Y27923D01*
X35941Y28009D01*
X35953Y28100D01*
X35941Y28191D01*
X35906Y28277D01*
X35850Y28350D01*
X35777Y28406D01*
X35691Y28441D01*
X35600Y28453D01*
X35509Y28441D01*
X35423Y28406D01*
X35417Y28401D01*
X34262D01*
X34246Y28448D01*
X34250Y28450D01*
X34306Y28523D01*
X34341Y28609D01*
X34353Y28700D01*
X34341Y28791D01*
X34306Y28877D01*
X34250Y28950D01*
X34177Y29006D01*
X34091Y29041D01*
X34000Y29053D01*
X33909Y29041D01*
X33823Y29006D01*
X33774Y28967D01*
X33010D01*
X32987Y29012D01*
X33006Y29036D01*
X33041Y29121D01*
X33053Y29213D01*
X33041Y29304D01*
X33006Y29389D01*
X32950Y29462D01*
X32877Y29518D01*
X32791Y29553D01*
X32700Y29566D01*
X32609Y29553D01*
X32523Y29518D01*
X32506Y29505D01*
X29965D01*
X29956Y29527D01*
X29900Y29600D01*
X29827Y29656D01*
X29741Y29691D01*
X29650Y29703D01*
D02*
G37*
G36*
X45200Y28000D02*
X44900D01*
Y27700D01*
X45200D01*
Y28000D01*
D02*
G37*
G36*
X41950Y27202D02*
Y26800D01*
X42352D01*
X42343Y26869D01*
X42297Y26979D01*
X42224Y27074D01*
X42129Y27147D01*
X42019Y27193D01*
X41950Y27202D01*
D02*
G37*
G36*
X41850Y27202D02*
X41781Y27193D01*
X41671Y27147D01*
X41576Y27074D01*
X41503Y26979D01*
X41457Y26869D01*
X41448Y26800D01*
X41850D01*
Y27202D01*
D02*
G37*
G36*
X37955Y27492D02*
X37837Y27476D01*
X37726Y27430D01*
X37631Y27357D01*
X37558Y27263D01*
X37512Y27152D01*
X37497Y27033D01*
X37512Y26915D01*
X37558Y26804D01*
X37631Y26709D01*
X37726Y26637D01*
X37837Y26591D01*
X37955Y26575D01*
X38074Y26591D01*
X38184Y26637D01*
X38279Y26709D01*
X38352Y26804D01*
X38398Y26915D01*
X38413Y27033D01*
X38398Y27152D01*
X38352Y27263D01*
X38279Y27357D01*
X38184Y27430D01*
X38074Y27476D01*
X37955Y27492D01*
D02*
G37*
G36*
X36955D02*
X36837Y27476D01*
X36726Y27430D01*
X36631Y27357D01*
X36558Y27263D01*
X36512Y27152D01*
X36497Y27033D01*
X36512Y26915D01*
X36558Y26804D01*
X36631Y26709D01*
X36726Y26637D01*
X36837Y26591D01*
X36955Y26575D01*
X37074Y26591D01*
X37184Y26637D01*
X37279Y26709D01*
X37352Y26804D01*
X37398Y26915D01*
X37413Y27033D01*
X37398Y27152D01*
X37352Y27263D01*
X37279Y27357D01*
X37184Y27430D01*
X37074Y27476D01*
X36955Y27492D01*
D02*
G37*
G36*
X35955D02*
X35837Y27476D01*
X35726Y27430D01*
X35631Y27357D01*
X35558Y27263D01*
X35512Y27152D01*
X35497Y27033D01*
X35512Y26915D01*
X35558Y26804D01*
X35631Y26709D01*
X35726Y26637D01*
X35837Y26591D01*
X35955Y26575D01*
X36074Y26591D01*
X36184Y26637D01*
X36279Y26709D01*
X36352Y26804D01*
X36398Y26915D01*
X36413Y27033D01*
X36398Y27152D01*
X36352Y27263D01*
X36279Y27357D01*
X36184Y27430D01*
X36074Y27476D01*
X35955Y27492D01*
D02*
G37*
G36*
X34955D02*
X34837Y27476D01*
X34726Y27430D01*
X34631Y27357D01*
X34558Y27263D01*
X34512Y27152D01*
X34497Y27033D01*
X34512Y26915D01*
X34558Y26804D01*
X34631Y26709D01*
X34726Y26637D01*
X34837Y26591D01*
X34955Y26575D01*
X35074Y26591D01*
X35184Y26637D01*
X35279Y26709D01*
X35352Y26804D01*
X35398Y26915D01*
X35413Y27033D01*
X35398Y27152D01*
X35352Y27263D01*
X35279Y27357D01*
X35184Y27430D01*
X35074Y27476D01*
X34955Y27492D01*
D02*
G37*
G36*
X33955D02*
X33837Y27476D01*
X33726Y27430D01*
X33631Y27357D01*
X33558Y27263D01*
X33512Y27152D01*
X33497Y27033D01*
X33512Y26915D01*
X33558Y26804D01*
X33631Y26709D01*
X33726Y26637D01*
X33837Y26591D01*
X33955Y26575D01*
X34074Y26591D01*
X34184Y26637D01*
X34279Y26709D01*
X34352Y26804D01*
X34398Y26915D01*
X34413Y27033D01*
X34398Y27152D01*
X34352Y27263D01*
X34279Y27357D01*
X34184Y27430D01*
X34074Y27476D01*
X33955Y27492D01*
D02*
G37*
G36*
X42352Y26700D02*
X41950D01*
Y26298D01*
X42019Y26307D01*
X42129Y26353D01*
X42224Y26426D01*
X42297Y26521D01*
X42343Y26631D01*
X42352Y26700D01*
D02*
G37*
G36*
X41850D02*
X41448D01*
X41457Y26631D01*
X41503Y26521D01*
X41576Y26426D01*
X41671Y26353D01*
X41781Y26307D01*
X41850Y26298D01*
Y26700D01*
D02*
G37*
G36*
X40900Y27208D02*
X40781Y27193D01*
X40671Y27147D01*
X40576Y27074D01*
X40503Y26979D01*
X40457Y26869D01*
X40442Y26750D01*
X40457Y26631D01*
X40503Y26521D01*
X40576Y26426D01*
X40671Y26353D01*
X40781Y26307D01*
X40900Y26292D01*
X41019Y26307D01*
X41129Y26353D01*
X41224Y26426D01*
X41297Y26521D01*
X41343Y26631D01*
X41358Y26750D01*
X41343Y26869D01*
X41297Y26979D01*
X41224Y27074D01*
X41129Y27147D01*
X41019Y27193D01*
X40900Y27208D01*
D02*
G37*
G36*
X39900D02*
X39781Y27193D01*
X39671Y27147D01*
X39576Y27074D01*
X39503Y26979D01*
X39457Y26869D01*
X39442Y26750D01*
X39457Y26631D01*
X39503Y26521D01*
X39576Y26426D01*
X39671Y26353D01*
X39781Y26307D01*
X39900Y26292D01*
X40019Y26307D01*
X40129Y26353D01*
X40224Y26426D01*
X40297Y26521D01*
X40343Y26631D01*
X40358Y26750D01*
X40343Y26869D01*
X40297Y26979D01*
X40224Y27074D01*
X40129Y27147D01*
X40019Y27193D01*
X39900Y27208D01*
D02*
G37*
G36*
X45987Y28000D02*
X45793Y27981D01*
X45608Y27925D01*
X45436Y27833D01*
X45286Y27710D01*
X45163Y27560D01*
X45071Y27389D01*
X45015Y27203D01*
X44996Y27010D01*
X45015Y26817D01*
X45071Y26631D01*
X45163Y26460D01*
X45286Y26309D01*
X45436Y26186D01*
X45608Y26095D01*
X45793Y26038D01*
X45987Y26019D01*
X46180Y26038D01*
X46366Y26095D01*
X46537Y26186D01*
X46687Y26309D01*
X46810Y26460D01*
X46902Y26631D01*
X46958Y26817D01*
X46977Y27010D01*
X46958Y27203D01*
X46902Y27389D01*
X46810Y27560D01*
X46687Y27710D01*
X46537Y27833D01*
X46366Y27925D01*
X46180Y27981D01*
X45987Y28000D01*
D02*
G37*
G36*
X45727Y23838D02*
X45608Y23823D01*
X45498Y23777D01*
X45403Y23704D01*
X45330Y23609D01*
X45284Y23499D01*
X45269Y23380D01*
X45284Y23261D01*
X45330Y23151D01*
X45403Y23056D01*
X45498Y22983D01*
X45608Y22937D01*
X45727Y22922D01*
X45845Y22937D01*
X45956Y22983D01*
X46051Y23056D01*
X46124Y23151D01*
X46169Y23261D01*
X46185Y23380D01*
X46169Y23499D01*
X46124Y23609D01*
X46051Y23704D01*
X45956Y23777D01*
X45845Y23823D01*
X45727Y23838D01*
D02*
G37*
G36*
X31750D02*
X31632Y23823D01*
X31521Y23777D01*
X31426Y23704D01*
X31354Y23609D01*
X31308Y23499D01*
X31292Y23380D01*
X31308Y23261D01*
X31354Y23151D01*
X31426Y23056D01*
X31521Y22983D01*
X31632Y22937D01*
X31750Y22922D01*
X31869Y22937D01*
X31980Y22983D01*
X32074Y23056D01*
X32147Y23151D01*
X32193Y23261D01*
X32209Y23380D01*
X32193Y23499D01*
X32147Y23609D01*
X32074Y23704D01*
X31980Y23777D01*
X31869Y23823D01*
X31750Y23838D01*
D02*
G37*
G36*
X45727Y22838D02*
X45608Y22823D01*
X45498Y22777D01*
X45403Y22704D01*
X45330Y22609D01*
X45284Y22499D01*
X45269Y22380D01*
X45284Y22261D01*
X45330Y22151D01*
X45403Y22056D01*
X45498Y21983D01*
X45608Y21937D01*
X45727Y21922D01*
X45845Y21937D01*
X45956Y21983D01*
X46051Y22056D01*
X46124Y22151D01*
X46169Y22261D01*
X46185Y22380D01*
X46169Y22499D01*
X46124Y22609D01*
X46051Y22704D01*
X45956Y22777D01*
X45845Y22823D01*
X45727Y22838D01*
D02*
G37*
G36*
X31750D02*
X31632Y22823D01*
X31521Y22777D01*
X31426Y22704D01*
X31354Y22609D01*
X31308Y22499D01*
X31292Y22380D01*
X31308Y22261D01*
X31354Y22151D01*
X31426Y22056D01*
X31521Y21983D01*
X31632Y21937D01*
X31750Y21922D01*
X31869Y21937D01*
X31980Y21983D01*
X32074Y22056D01*
X32147Y22151D01*
X32193Y22261D01*
X32209Y22380D01*
X32193Y22499D01*
X32147Y22609D01*
X32074Y22704D01*
X31980Y22777D01*
X31869Y22823D01*
X31750Y22838D01*
D02*
G37*
G36*
X50250Y21596D02*
Y21300D01*
X50546D01*
X50541Y21341D01*
X50506Y21427D01*
X50450Y21500D01*
X50377Y21556D01*
X50291Y21591D01*
X50250Y21596D01*
D02*
G37*
G36*
X50150D02*
X50109Y21591D01*
X50023Y21556D01*
X49950Y21500D01*
X49894Y21427D01*
X49859Y21341D01*
X49854Y21300D01*
X50150D01*
Y21596D01*
D02*
G37*
%LPD*%
D10*
X58276Y8824D02*
Y47800D01*
X19300Y8824D02*
X58276D01*
X19300D02*
Y47800D01*
X58276D01*
D19*
X38850Y28500D02*
D03*
X39750D02*
D03*
X43950Y28050D02*
D03*
X44850D02*
D03*
X33600Y32250D02*
D03*
X32700D02*
D03*
X37600Y32550D02*
D03*
X36700D02*
D03*
D41*
X50000Y37500D02*
X50600D01*
X53800Y40700D02*
Y41000D01*
X50600Y37500D02*
X53800Y40700D01*
Y41000D02*
X54350Y41550D01*
X48651Y42500D02*
X52871D01*
X52966Y42404D01*
X52966D01*
X53015Y42356D01*
X48551Y42600D02*
X48651Y42500D01*
X42141Y42600D02*
X48551D01*
X41873Y42868D02*
X42141Y42600D01*
X39332Y42868D02*
X41873D01*
X38981Y43220D02*
X39332Y42868D01*
X38981Y43220D02*
Y44500D01*
X40721Y45700D02*
X42100D01*
X40319Y45299D02*
X40721Y45700D01*
X40319Y44500D02*
Y45299D01*
D42*
X48550Y34950D02*
X50334Y36734D01*
X53700D01*
X29650Y29350D02*
X29750Y29250D01*
X32662D01*
X32700Y29213D01*
X30038Y28712D02*
X33988D01*
X30000Y28750D02*
X30038Y28712D01*
X33988D02*
X34000Y28700D01*
X30246Y28146D02*
X35554D01*
X35600Y28100D01*
X30200D02*
X30246Y28146D01*
X26750Y15241D02*
Y23196D01*
Y31700D02*
Y41000D01*
Y23300D02*
Y31700D01*
X26762Y15088D02*
X26800Y15050D01*
X26762Y15088D02*
Y15230D01*
X26750Y15241D02*
X26762Y15230D01*
X26750Y23196D02*
X26800Y23246D01*
Y23300D01*
D43*
X19975Y34875D02*
X21250D01*
X19950Y34850D02*
X19975Y34875D01*
X53383Y22903D02*
X53385Y22901D01*
X56049D01*
X56050Y22900D01*
D44*
X39650Y44500D02*
Y45650D01*
X39650Y45650D01*
X40989Y44500D02*
X42100D01*
X49350Y14600D02*
X52050D01*
X48350Y15600D02*
X49350Y14600D01*
X47450Y13850D02*
Y15650D01*
X45800Y36320D02*
X48350Y33770D01*
Y29900D02*
Y33770D01*
X47400Y30000D02*
X47450Y29950D01*
X47400Y30000D02*
Y32720D01*
X45800Y34320D02*
X47400Y32720D01*
X27700Y24850D02*
Y31450D01*
X27650Y31500D02*
X27700Y31450D01*
X25450Y24800D02*
Y31650D01*
X29250Y13600D02*
Y15850D01*
D45*
X23150Y38837D02*
D03*
X23050Y30653D02*
D03*
X53700Y33781D02*
D03*
X53383Y17981D02*
D03*
Y25947D02*
D03*
D46*
X23150Y37853D02*
D03*
Y36869D02*
D03*
Y35884D02*
D03*
Y33916D02*
D03*
Y34900D02*
D03*
X23050Y29669D02*
D03*
Y28684D02*
D03*
Y27700D02*
D03*
Y25731D02*
D03*
Y26716D02*
D03*
X53700Y37719D02*
D03*
Y38703D02*
D03*
Y36734D02*
D03*
Y35750D02*
D03*
Y34766D02*
D03*
X53383Y21918D02*
D03*
Y22903D02*
D03*
Y20934D02*
D03*
Y19950D02*
D03*
Y18966D02*
D03*
Y29884D02*
D03*
Y30868D02*
D03*
Y28900D02*
D03*
Y27916D02*
D03*
Y26932D02*
D03*
D47*
X53050Y42350D02*
D03*
Y41366D02*
D03*
X50634Y40000D02*
D03*
X45800Y34320D02*
D03*
X31823D02*
D03*
X45800Y35320D02*
D03*
X31823Y36320D02*
D03*
Y35320D02*
D03*
X45800Y36320D02*
D03*
X36650Y30950D02*
D03*
X33650D02*
D03*
X37650D02*
D03*
X34650D02*
D03*
X35650D02*
D03*
X44595Y30667D02*
D03*
X39595D02*
D03*
X40595D02*
D03*
X41595D02*
D03*
X42595D02*
D03*
X43595D02*
D03*
X31750Y23380D02*
D03*
X45727D02*
D03*
X31750Y22380D02*
D03*
X45727Y21380D02*
D03*
Y22380D02*
D03*
X31750Y21380D02*
D03*
X40900Y26750D02*
D03*
X43900D02*
D03*
X39900D02*
D03*
X42900D02*
D03*
X41900D02*
D03*
X32955Y27033D02*
D03*
X37955D02*
D03*
X36955D02*
D03*
X35955D02*
D03*
X34955D02*
D03*
X33955D02*
D03*
X31300Y41900D02*
D03*
D48*
X49050Y44866D02*
D03*
Y45850D02*
D03*
D49*
X48500Y37639D02*
D03*
Y42600D02*
D03*
D50*
X26650Y46650D02*
D03*
D51*
X29650D02*
D03*
D52*
X48666Y40000D02*
D03*
D53*
X31563Y45186D02*
D03*
X46059D02*
D03*
Y30690D02*
D03*
X31563D02*
D03*
X45987Y12514D02*
D03*
X31491D02*
D03*
Y27010D02*
D03*
X45987D02*
D03*
D54*
X53300Y12725D02*
D03*
X24500D02*
D03*
X53300Y44875D02*
D03*
X24500D02*
D03*
D55*
X48550Y34950D02*
D03*
X50000Y37500D02*
D03*
X54350Y41550D02*
D03*
X29650Y29350D02*
D03*
X39650Y45650D02*
D03*
X42100Y44500D02*
D03*
X34750Y43200D02*
D03*
X42100Y45700D02*
D03*
X21550Y34900D02*
D03*
X32700Y29213D02*
D03*
X35600Y28100D02*
D03*
X34000Y28700D02*
D03*
X30000Y28750D02*
D03*
X30200Y28100D02*
D03*
X50200Y20200D02*
D03*
X52050Y14600D02*
D03*
X57050Y45250D02*
D03*
Y13800D02*
D03*
X20800Y11550D02*
D03*
X20700Y42950D02*
D03*
X50200Y21250D02*
D03*
X38850Y28500D02*
D03*
X37600Y32550D02*
D03*
X41000Y41950D02*
D03*
X47450Y13850D02*
D03*
X48350Y15600D02*
D03*
X47450Y15650D02*
D03*
X48350Y29900D02*
D03*
X47450Y29875D02*
D03*
X27650Y31500D02*
D03*
X27700Y24850D02*
D03*
X26750Y31700D02*
D03*
X25450Y31650D02*
D03*
Y24800D02*
D03*
X29250Y13600D02*
D03*
Y15850D02*
D03*
X19950Y34850D02*
D03*
X56050Y22900D02*
D03*
X26800Y15050D02*
D03*
X26750Y41000D02*
D03*
D56*
X31300Y40128D02*
D03*
D57*
X38311Y44500D02*
D03*
X38981D02*
D03*
X39650D02*
D03*
X40319D02*
D03*
X40989D02*
D03*
D58*
X39650Y40500D02*
D03*
D59*
X29036Y42530D02*
D03*
Y40168D02*
D03*
X33564Y42530D02*
D03*
Y40168D02*
D03*
D60*
X37600Y46550D02*
X45463D01*
X45485Y46572D01*
X48328D01*
X36600Y45550D02*
X37600Y46550D01*
X48328Y46572D02*
X49050Y45850D01*
X44000Y28050D02*
Y28600D01*
X35950Y46200D02*
X36600Y45550D01*
X44000Y26850D02*
Y28050D01*
X34000Y46650D02*
X34450Y46200D01*
X35950D01*
X43900Y26750D02*
X44000Y26850D01*
X39069Y29350D02*
X43250D01*
X44000Y28600D01*
X38600Y29819D02*
Y31750D01*
Y29819D02*
X39069Y29350D01*
X38600Y31750D02*
X38800Y31950D01*
X36850Y36250D02*
X38800Y34300D01*
Y31950D02*
Y34300D01*
X36600Y36250D02*
X36850D01*
X33550Y32250D02*
Y33200D01*
X36600Y36250D02*
Y45550D01*
X33550Y33200D02*
X36600Y36250D01*
X33650Y30950D02*
Y32250D01*
X36600Y45550D02*
X37500Y44650D01*
X38118D01*
X29650Y46650D02*
X34000D01*
X26650Y45550D02*
Y46650D01*
X33524Y42530D02*
X33564D01*
X32254Y43800D02*
X33524Y42530D01*
X28400Y43800D02*
X32254D01*
X26650Y45550D02*
X28400Y43800D01*
X33564Y40168D02*
Y42530D01*
M02*
