G04*
G04 #@! TF.GenerationSoftware,Altium Limited,Altium Designer,20.0.10 (225)*
G04*
G04 Layer_Color=16711935*
%FSLAX24Y24*%
%MOIN*%
G70*
G01*
G75*
%ADD10C,0.0100*%
%ADD25R,0.0580X0.0580*%
%ADD29R,0.1064X0.0789*%
%ADD30O,0.1064X0.0789*%
%ADD31C,0.0789*%
%ADD32C,0.0671*%
%ADD33C,0.0867*%
%ADD34R,0.0749X0.0749*%
%ADD35C,0.0749*%
%ADD36R,0.0789X0.0789*%
%ADD37C,0.1852*%
%ADD38C,0.2080*%
%ADD39C,0.0580*%
%ADD40C,0.0710*%
%ADD61R,0.0493X0.1340*%
%ADD62R,0.4194X0.4017*%
%ADD63R,0.1064X0.0986*%
D10*
X58276Y8824D02*
Y47800D01*
X19300Y8824D02*
X58276D01*
X19300D02*
Y47800D01*
X58276D01*
D25*
X38850Y28500D02*
D03*
X39750D02*
D03*
X43950Y28050D02*
D03*
X44850D02*
D03*
X33600Y32250D02*
D03*
X32700D02*
D03*
X37600Y32550D02*
D03*
X36700D02*
D03*
D29*
X23150Y38837D02*
D03*
X23050Y30653D02*
D03*
X53700Y33781D02*
D03*
X53383Y17981D02*
D03*
Y25947D02*
D03*
D30*
X23150Y37853D02*
D03*
Y36869D02*
D03*
Y35884D02*
D03*
Y33916D02*
D03*
Y34900D02*
D03*
X23050Y29669D02*
D03*
Y28684D02*
D03*
Y27700D02*
D03*
Y25731D02*
D03*
Y26716D02*
D03*
X53700Y37719D02*
D03*
Y38703D02*
D03*
Y36734D02*
D03*
Y35750D02*
D03*
Y34766D02*
D03*
X53383Y21918D02*
D03*
Y22903D02*
D03*
Y20934D02*
D03*
Y19950D02*
D03*
Y18966D02*
D03*
Y29884D02*
D03*
Y30868D02*
D03*
Y28900D02*
D03*
Y27916D02*
D03*
Y26932D02*
D03*
D31*
X53050Y42350D02*
D03*
Y41366D02*
D03*
X50634Y40000D02*
D03*
X45800Y34320D02*
D03*
X31823D02*
D03*
X45800Y35320D02*
D03*
X31823Y36320D02*
D03*
Y35320D02*
D03*
X45800Y36320D02*
D03*
X36650Y30950D02*
D03*
X33650D02*
D03*
X37650D02*
D03*
X34650D02*
D03*
X35650D02*
D03*
X44595Y30667D02*
D03*
X39595D02*
D03*
X40595D02*
D03*
X41595D02*
D03*
X42595D02*
D03*
X43595D02*
D03*
X31750Y23380D02*
D03*
X45727D02*
D03*
X31750Y22380D02*
D03*
X45727Y21380D02*
D03*
Y22380D02*
D03*
X31750Y21380D02*
D03*
X40900Y26750D02*
D03*
X43900D02*
D03*
X39900D02*
D03*
X42900D02*
D03*
X41900D02*
D03*
X32955Y27033D02*
D03*
X37955D02*
D03*
X36955D02*
D03*
X35955D02*
D03*
X34955D02*
D03*
X33955D02*
D03*
X31300Y41900D02*
D03*
D32*
X49050Y44866D02*
D03*
Y45850D02*
D03*
D33*
X48500Y37639D02*
D03*
Y42600D02*
D03*
D34*
X26650Y46650D02*
D03*
D35*
X29650D02*
D03*
D36*
X48666Y40000D02*
D03*
D37*
X31563Y45186D02*
D03*
X46059D02*
D03*
Y30690D02*
D03*
X31563D02*
D03*
X45987Y12514D02*
D03*
X31491D02*
D03*
Y27010D02*
D03*
X45987D02*
D03*
D38*
X53300Y12725D02*
D03*
X24500D02*
D03*
X53300Y44875D02*
D03*
X24500D02*
D03*
D39*
X48550Y34950D02*
D03*
X50000Y37500D02*
D03*
X54350Y41550D02*
D03*
X29650Y29350D02*
D03*
X39650Y45650D02*
D03*
X42100Y44500D02*
D03*
X34750Y43200D02*
D03*
X42100Y45700D02*
D03*
X21550Y34900D02*
D03*
X32700Y29213D02*
D03*
X35600Y28100D02*
D03*
X34000Y28700D02*
D03*
X30000Y28750D02*
D03*
X30200Y28100D02*
D03*
X50200Y20200D02*
D03*
X52050Y14600D02*
D03*
X57050Y45250D02*
D03*
Y13800D02*
D03*
X20800Y11550D02*
D03*
X20700Y42950D02*
D03*
X50200Y21250D02*
D03*
X38850Y28500D02*
D03*
X37600Y32550D02*
D03*
X41000Y41950D02*
D03*
X47450Y13850D02*
D03*
X48350Y15600D02*
D03*
X47450Y15650D02*
D03*
X48350Y29900D02*
D03*
X47450Y29875D02*
D03*
X27650Y31500D02*
D03*
X27700Y24850D02*
D03*
X26750Y31700D02*
D03*
X25450Y31650D02*
D03*
Y24800D02*
D03*
X29250Y13600D02*
D03*
Y15850D02*
D03*
X19950Y34850D02*
D03*
X56050Y22900D02*
D03*
X26800Y15050D02*
D03*
X26750Y41000D02*
D03*
D40*
X31300Y40128D02*
D03*
D61*
X38311Y44500D02*
D03*
X38981D02*
D03*
X39650D02*
D03*
X40319D02*
D03*
X40989D02*
D03*
D62*
X39650Y40500D02*
D03*
D63*
X29036Y42530D02*
D03*
Y40168D02*
D03*
X33564Y42530D02*
D03*
Y40168D02*
D03*
M02*
